<?xml version="1.0" encoding="UTF-8"?>
<svg id="Layer_1" xmlns="http://www.w3.org/2000/svg" version="1.1" viewBox="0 0 360 360">
  <!-- Generator: Adobe Illustrator 29.1.0, SVG Export Plug-In . SVG Version: 2.1.0 Build 142)  -->
  <path d="M231.94,208.04l3.96,12.12-8.3-.05,4.34-12.07ZM67.85,219.84l8.3.05-3.96-12.12-4.34,12.07ZM338.83,215.36c0,11.61-9.42,21.02-21.02,21.02H42.21c-11.61,0-21.02-9.42-21.02-21.02s9.42-21.02,21.02-21.02h275.59c11.61,0,21.02,9.42,21.02,21.02ZM53.68,228.46v-10.07l8.25-17.25h-3.87l-6.15,13.19-6.81-13.19h-10.12l9,17.25v10.07h9.7ZM88.78,228.51l-9.28-27.32h-8.58l-10.02,27.32h3.82l2.14-5.92h10.12l1.96,5.92h9.84ZM117.92,220.35c0-.56,0-1.17-.09-1.82l-4.15-.89c.19,1.21.33,2.1.33,2.7,0,1.86-.65,3.45-1.91,4.71s-2.94,1.86-4.85,1.86c-4.71,0-7.04-3.64-6.99-11.05,0-8.58,2.28-12.82,6.29-12.82s5.97,2,5.92,6.06v.79c0,.33-.05.65-.05,1.07l4.2-1.54c0-5.69-3.5-8.67-10.91-8.58-4.66.05-8.44,1.35-11.37,4.01-2.94,2.66-4.38,6.15-4.38,10.49,0,9.14,4.94,13.7,14.92,13.7,3.96,0,7.18-.79,9.51-2.33l-.05-.05c2.38-1.58,3.59-3.68,3.59-6.34ZM149.1,201.33h-9.74v10.95h-7.97v-10.95h-9.79v27.32h9.79v-13.61h7.92v13.61h9.79v-27.32ZM178.52,201.33l-26.9-.05v2.8h8.25v24.57h10.4v-24.57h8.25v-2.75ZM219.68,220.91c0-4.43-3.96-7.88-12.12-10.02-4.2-1.12-6.25-2.61-6.25-4.24,0-2.19,1.86-3.31,5.59-3.26,4.75,0,7.04,1.58,7.04,4.75,0,.47-.09,1.17-.23,1.82l4.48-.79c0-5.41-3.64-8.11-11.05-8.16-3.59,0-6.53.75-8.72,2.24-2.24,1.49-3.36,3.45-3.36,5.92,0,4.34,3.31,7.51,9.93,9.51,4.57,1.35,6.85,2.98,6.85,4.8,0,2.47-1.91,3.68-5.73,3.68-4.8,0-7.13-1.68-7.13-5.08,0-.89.19-1.91.56-3.03l-4.71.84c-.09.61-.14,1.12-.14,1.58,0,5.22,4.15,7.88,12.49,7.92,3.78,0,6.81-.75,9.04-2.33v.05c2.28-1.54,3.45-3.59,3.45-6.2ZM248.58,228.83l-9.28-27.32h-8.58l-10.02,27.32h3.82l2.14-5.92h10.12l1.96,5.92h9.84ZM274.82,226.13l-13.8-.05v-24.57h-9.74l-.05,27.36h23.59v-2.75ZM300.7,226.18h-14.08v-10.77h10.12v-2.75h-10.12v-8.3h12.07v-2.8h-21.82l-.05,27.36h23.87v-2.75ZM327.22,220.91c0-4.43-3.96-7.88-12.12-10.02-4.2-1.12-6.25-2.61-6.25-4.24,0-2.19,1.86-3.31,5.59-3.26,4.75,0,7.04,1.58,7.04,4.75,0,.47-.09,1.17-.23,1.82l4.48-.79c0-5.41-3.64-8.11-11.05-8.16-3.59,0-6.53.75-8.72,2.24-2.24,1.49-3.36,3.45-3.36,5.92,0,4.34,3.31,7.51,9.93,9.51,4.57,1.35,6.85,2.98,6.85,4.8,0,2.47-1.91,3.68-5.73,3.68-4.8,0-7.13-1.68-7.13-5.08,0-.89.19-1.91.56-3.03l-4.71.84c-.09.61-.14,1.12-.14,1.58,0,5.22,4.15,7.88,12.49,7.92,3.78,0,6.81-.75,9.04-2.33v.05c2.28-1.54,3.45-3.59,3.45-6.2ZM328.85,124.51h-19.76v60.97h19.76v-60.97ZM266.25,185.48h20.93v-54.87h16.69v-6.11h-54.45v6.15h16.83v54.82ZM202.01,185.48h-53.09v-60.97h19.76v54.82h27.64l18.09-54.82h17.39l18.97,60.97h-19.86l-4.06-13.24h-20.51l-4.34,13.24ZM208.3,166.18h16.73l-8.06-27.04-8.67,27.04ZM58.11,186.51c6.15,0,11.93-1.72,17.43-5.22l2.14,4.2h6.29v-32.91h-28.02v6.11h9.88v14.96c0,4.89-2.47,7.37-7.37,7.37-4.2,0-7.04-1.72-8.48-5.22-1.45-3.5-2.19-10.07-2.19-19.76,0-10.4.93-17.48,2.75-21.3,1.82-3.82,5.22-5.69,10.21-5.69,6.76,0,10.49,3.64,11.09,10.77l.14,3.31v1.49l9.28-3.82c-2.75-11.51-10.4-17.25-22.98-17.25-9.51,0-17.29,2.89-23.17,8.81-5.87,5.92-8.86,13.43-8.86,23.21s2.8,17.43,8.34,22.84c5.59,5.41,13.43,8.11,23.49,8.11ZM94.89,185.48h-7.74l20.14-60.97h17.34l18.97,60.97h-19.86l-4.06-13.24h-20.46l-4.34,13.24ZM101.14,166.18h16.73l-8.06-27.04-8.67,27.04Z"/>
</svg>