<?xml version="1.0" encoding="UTF-8"?>
<svg id="Layer_1" xmlns="http://www.w3.org/2000/svg" version="1.1" viewBox="0 0 360 360">
  <!-- Generator: Adobe Illustrator 29.1.0, SVG Export Plug-In . SVG Version: 2.1.0 Build 142)  -->
  <path d="M287.64,167.89c-8.26,9.05-17.79,18.71-27.33,26.42-2.06,1.66-7.88,6.58-10.16,6.52-2-.05-4.96-.91-6.97-.95-2.34-.04-5.11.87-7.85.44-1.54-.24-3.77-1.7-5.73-2.15-11.9-2.73-17.36,3.79-27.43,6.12-7.68,1.78-15.14,1.1-22.87.16l-17.44-3.64c29.55-2.61,58.96-6.52,88.15-11.7,3.96-2.25,7.65-5.18,10.54-8.68-21.37.55-42.64,3.51-63.7,6.95l3.62-2.4,6.33-3.17c-.32-.85-2.71-.5-3.47-.45-12.31.81-26.1,2.93-38.39,4.7-12.44,1.79-24.85,4.03-37.18,6.37l-1.57-.41c12.99-2.59,25.88-5.68,38.91-8.12,35.54-6.66,71.78-10.8,107.96-11.34l-.21,1.4-3.26,6.47,8.8-10.66-32.91.45c-36.88,2.35-73.58,7.69-109.65,15.45-7.12,1.53-19.15,3.48-25.51,6-3.83,1.52-4.99,6.2-6.5,7.17-.97.63-4.97.83-6.36,1.51-1.29-1.46,6.32-10.89,8.1-12.05,4.27-2.78,14.34-2.7,19.1-4.99,1.49-.72,5.56-5.11,7.32-6.58,2.63-2.17,5.57-3.96,8.09-6.27-3.52-1.14-7.67-.11-11.12-1.38-1.11-.41-1.58-.82-1.39-2.09,10.91-2.34,21.81-4.92,32.81-6.81,12.33-2.11,26.08-5.16,38.08-.6.13.77-1.13.51-1.63.48-21.24-1.32-41.96,5.49-59.21,17.67l-4.49,3.62c24.4-4.75,48.86-9.77,73.66-12.05.11-.81-1.05-.44-1.61-.46-5.98-.25-11.9.48-17.86.25l-9.25-6.04c6.05-1.12,12.57-2.08,18.78-1.64,6.71.47,12.46,4.38,18.49,6.92,24.88-2.75,49.81-3.47,74.85-3.19-.32,1.43-1.64,1.75-2.57,2.76ZM149.76,137.86l-7.35-1.91,7.39-1.42c.15-5.06,1.89-9.66,4.28-14.02.57-1.03,2.95-3.84,3.09-4.36.42-1.6-3.25-5.17-2.71-5.69l5.7,2.73c4.33-3.67,9.89-6.51,15.61-6.91v-2.32c-3.52.56-7.52-.97-10.91-.48-1.4.2-1.86,1.09-2.86,1.32-8.01,1.86-5.86-12.88,2.9-5.94l11.34-.92c.77-3.97-.91-3.62-2.77-5.8-3.55-4.15-3.31-10.33.91-13.89,8.36-7.05,19.53,2.8,14.62,11.84-.93,1.71-4.19,3.99-4.35,4.45-.24.7-.26,2.77.36,3.2,1.26.87,9.34.22,11.37,1.13,1.33-.13,1.77-2.21,4.6-1.85,4.76.61,3.95,9.09-1.71,7.78-1-.23-1.45-1.12-2.86-1.32-3.39-.49-7.39,1.04-10.91.49.03.6-.16,1.34.21,1.88.25.36,6.81,2.1,8.31,2.81,2.52,1.2,4.67,3.11,7.08,4.48l5.25-2.69c.57.62-2.78,4.31-2.7,5.25.08.93,2.47,3.26,3.08,4.33,2.48,4.3,4.01,9.12,4.46,14.08l6.74,2.06-6.38,1.72c-.58,5.38-2.51,7.97-6.83,11.01-1.18.09-.52-.16-.34-.8.86-3.04,2.78-6.02,2.43-9.39h-1.38c-.77,4.86-2.18,9.15-5.33,12.98-1.28,1.56-4.2,5.02-6.26,3.93,5.54-4.09,9.1-9.59,10.19-16.45l-14.82,2.32,6.02,9.72-9.72-6.02c-.45,2.49-.37,6.04-1.14,8.35-.24.72-.72,1.54-1.64,1.37.78-3.55.7-9,1.86-12.26.2-.57,3.83-6.3,4.16-6.5l13.21.26,8.56-.95-19.92-2.79c.22-.66.87-1.3,1.59-1.35,3.27-.2,8.34,2.32,11.84,1.59-1.92-10.22-10.08-19.19-20.84-19.7l2.09,12.06-4.87,2.76v-23.63l-3.8,25.62-4.31,5.88h-22.47c.19.93.95.79,1.63.92,6.09,1.18,12.63,1.58,18.76,2.79l-1.15,1.4-11.81-1.86c.37,4.6,3.06,10.15,6.23,13.45.43.45,5.11,3.55,4.42,4.15-1.59.28-2.78-.96-3.92-1.86-3.05-2.42-5.8-6.87-7.08-10.52-.38-1.09-1.12-5.18-1.47-5.48-.48-.4-1.72-.5-1.39.46l2.53,9.53c-4.02-2.81-6.92-5.82-6.78-11.05ZM177.62,113.24c-10.2.57-19.49,9.71-20.38,19.92,3.98-.86,9.4-.81,13.18-1.87.5-.14.85-.15,1.17-.67l-6.01-9.03,9.72,6.02,2.32-14.36ZM182.72,110c-.17.92.42,1.12,1.12,1.43,1.63.7,4.12.92,6.15,1.73,8.36,3.33,14.27,11.26,15.43,20.16l1.39.31c-.65-12.51-11.71-22.95-24.09-23.63ZM177.39,89.14c1.65-2.26,4.58-1.71,6.49,0,3.76-3.95.18-9.42-5-8.23-3.47.79-4.32,6.16-1.49,8.23ZM153.99,133.62l1.62-.46c1.43-11.5,10.45-20,21.74-21.73l.27-1.43c-12.47,1.22-22.35,11.21-23.63,23.62ZM235.82,202.99c-.9-.09-3.91-1.88-5.49-2.31-12.15-3.3-18.28,3.78-29,6.01-16.31,3.4-33.95-2.7-50.03-5.28-26.99-4.33-54.12-2.1-78.87,9.83.02.67,8.33-1.75,9.18-1.94,17.74-3.88,35.43-5.49,53.54-3.33,25.7,3.07,53.95,16.77,78.36,1.79-.9,2.62-3.85,4.53-6.11,5.94-1.02.63-2.2,1.22-3.38,1.49-.13.73.65.49,1.16.47,6.55-.26,17.92-5.32,25.22-6.76,12.57-2.47,22.64-1.59,35.14-.34.51.05,1.58.55,1.48-.32-7.54-3.37-15.6-5.7-23.94-5.85-2-.04-5.51.79-7.28.62ZM47.65,244.82l-8.77-17.18c-.94-.68-6.88-.82-7.22.27v36.83c2.15-.28,5.2-.02,6.95-1.16v-21.54l7.47,14.54c.62,1.34,2.91.49,3.61-.45l6.99-14.55v20.39l6.95-.93v-33.82h-6.72l-9.27,17.6ZM329.13,234.63v-6.72l-.7-.7h-20.85l-.7.7v34.05l22.24,2.78v-7.41l-14.83-1.39v-7.88l12.98.69-.51-6.67-12.47-.97v-6.49h14.83ZM163.72,243.43l-12.25-15.32-6.75-.43v28.26c2.2-.31,5.21.75,6.95-.7v-15.98l12.71,15.79,6.29.43v-27.8h-6.95v15.75ZM121.55,246.89l6.03,9.51-7.57.39c-1.31-.45-4.59-8.19-5.87-8.96-.86-.52-4.38-.55-5.09.46v9.03l-6.95.46v-30.58c7.67,1.73,21.07-2.95,24.32,6.95,1.08,3.29.55,6.77-1.63,9.48-.8,1-3.21,2.48-3.24,3.24ZM118.79,234.85c-1.7-1.9-7.69-2.29-9.74-.91v8.11h6.72c.14,0,2.26-.96,2.54-1.17,1.78-1.33,1.94-4.39.49-6.03ZM86.58,227.68l12.27,30.58-7.13.5-2.58-6.31c-4.19-.52-8.42-.24-12.55.46l-2.74,6.99-7.43.67,12.59-33.28,7.57.38ZM86.34,245.75l-3.47-9.73c-1.86,3-2.87,6.79-3.94,10.19l7.41-.46ZM222.56,250.38v-6.02h12.97v-5.56h-12.97v-5.56h14.83v-5.56h-22.24l.46,28.27,22.24.46-.46-6.02h-14.83ZM183.64,243.89l12.98.47c-.27-1.92.69-4.55-.7-6.03h-12.28v-5.1h14.83v-5.56h-21.78v27.8h22.24v-5.56h-14.59c-1.39-1.47-.43-4.1-.7-6.03ZM278.86,234.17h8.11v25.25l.77.62,6.64.54v-26.41h8.8v-6.95h-24.32c-1.12,1.49-1.14,5.41,0,6.95ZM135.61,209.22c-10.36-1.49-20.51-1.93-30.9-.47-4.97.7-9.78,2.13-14.66,3.18-.11.83,1.04.45,1.56.4,7.43-.69,14.82-1.25,22.32-.89,20.8,1.01,41.09,8.84,62.06,6.97l4.87-.92c-15.48-.36-30.1-6.08-45.25-8.27ZM249.43,227.68c-1.2.44-7.15-.87-7.43.31l.48,28.88,20.85,1.39v-6.95l-13.9-.46v-23.17ZM267.5,227.22v31.04l6.95.46v-31.51c-2.48.79-4.47.19-6.95,0ZM184.41,139.95l-18.37,11.28c-.21-.86.32-1.28.63-1.91,2.83-5.76,7.12-11.81,10.46-17.34l18.1-10.39-10.82,18.37ZM179.33,133.72c-2.06.62-1.77,5.07.82,5.26,4.48.34,4.11-6.74-.82-5.26ZM131.75,227.91v28.49l6.95-.46v-28.26c-1.15.48-6.95-.97-6.95.23ZM204.02,159.34c-.35.52-.72.31.02.91.8.66,5.27,2.78,6.16,2.59l4.26-6.52,3.46,3.24c2.01-6.61,1.37-13.34-.46-19.92-.78-.18-.93.25-1.38.7-1.95,1.98-3.54,4.86-5.75,6.98-1.62,1.56-3.78,3.41-5.84,4.36-.56.82,3.53,1.24,3.96,1.37.52.16.82-.3.66.7-.52,1.78-4.03,3.97-5.09,5.57ZM146.35,156.33c.92-.36,1.74,3.37,2.85,3.65l6.65-1.34-4.17-5.55,4.63-.47-12.5-12.97c-2.34,6.54-2.37,13.18-.93,19.92.64.68,2.67-2.92,3.48-3.24ZM146.58,175.32l36.14-5.1-8.37-6.26-1-.14-14.58,4.94-12.19,6.56ZM134.06,136.16c.2-.66-.29-.82.93-.68l1.46,5.03h1.73s2.84-8.73,2.84-8.73c-3.44-.7-2.08,3.8-4.16,5.09l-1.46-5.03h-1.73s-1.45,5.03-1.45,5.03c-1.34-.37-1.45-4.67-1.89-5.05l-2.26.18,3.22,8.37c2.04,1.28,2.41-2.92,2.79-4.2ZM227.66,138.96l-4.64-.24v-1.85s3.71,0,3.71,0v-1.62s-3.71-.24-3.71-.24v-1.39h4.17s0-1.85,0-1.85h-6.03s0,8.8,0,8.8c1.69-.35,6.86,1.13,6.49-1.62ZM177.22,154.88l3.18.06v-10.19c-1.14.24-4.58,1.99-4.61,2.97l1.43,7.16Z"/>
</svg>