<?xml version="1.0" encoding="UTF-8"?>
<svg id="Layer_1" xmlns="http://www.w3.org/2000/svg" version="1.1" viewBox="0 0 360 360">
  <!-- Generator: Adobe Illustrator 29.1.0, SVG Export Plug-In . SVG Version: 2.1.0 Build 142)  -->
  <path d="M48.02,115.28c.07,2.14-.69,4.16-1.03,6.22-1.48,8.96-3.21,17.88-4.72,26.84-1.01,6-2.09,11.93-3.14,17.9-3.75,21.36-7.25,42.83-11.35,64.12l-1.86,11.37-.77.1v3.81h282.22c.17-2.31.81-4.53,1.2-6.81.86-5.02,1.77-10.02,2.64-15.05,2.37-13.79,4.83-27.54,7.16-41.32,1.8-10.66,3.93-21.25,5.75-31.91.59-3.47,1-6.98,1.59-10.45.91-5.34,2.23-10.57,3.14-15.92.24-1.43.17-3.35.64-4.7.13-.38.19-.42.6-.39v-3.81H48.02ZM322.72,125.22c-.69,4.03-1.6,8-2.29,12.05-2.9,17.18-6.1,34.31-9.06,51.47-2.07,11.99-4.15,23.98-6.27,35.96-.64,3.64-1.43,7.22-2.11,10.85-.31,1.64.21,4.33-2.09,4.31H33.91c-2.17.14-1.48-2.02-1.27-3.41.62-4.02,1.59-8.03,2.28-12.05,3.04-17.62,6.2-35.18,9.26-52.79,2.01-11.59,4.09-23.17,6.1-34.76.64-3.7,1.42-7.32,2.11-11.01.22-1.16.09-4.29,1.37-4.57l268.81.08c.89.41.29,3.01.14,3.88ZM182.73,190.15c-1.7,3.27-3.68,6.3-5.35,9.59-.59,1.16-1.06,2.65-1.72,3.77-.63,1.09-1.62,2.13-2.24,3.25-.39.31-.88.42-1.37.46-5.63.5-11.99-.39-17.7,0-.48-.02-.88-.31-1.11-.72-.34-1.61-.66-3.24-.93-4.87-2.26-14.03-4.07-28.16-6.1-42.23-.23-1.6-.19-5.04-1.02-6.29-1.36-2.03-1.5,2.8-1.61,3.4-2.26,13-5.3,25.82-7.34,38.86-.44,2.82-1.06,4.61-.5,7.6.24,1.31,1.76,4.16-.44,4.27-4.97-.35-10.51.44-15.41,0-2.3-.21.31-2.83.87-3.87,3.53-6.49,3.85-13.86,5.2-21.03.98-5.2,2.32-10.26,3.29-15.46,1.37-7.32,2.46-14.72,3.88-22.04.66-3.37,1.68-6.04.71-9.64-.24-.87-1-1.8-.72-2.72.31-1.02,3.03-.42,3.85-.4,10.2.19,20.76.17,30.97,0,1.31-.02,2.92-.71,3.65.91.69,1.52.75,5.5,1.01,7.38,1.48,10.59,3.5,21.07,4.57,31.72.22,2.21,1.08,1.6,1.91.12.35-.64.44-1.33.78-1.96.39-.71,1.15-1.48,1.59-2.23,1.55-2.62,2.85-5.9,4.31-8.65,4.32-8.15,8.68-16.47,13.17-24.49.21-.37,1.41-2.46,1.56-2.55,1.03-.66,2.64-.24,3.72-.23,10.14.1,20.53.2,30.66,0,1.13-.02,4.58-.8,3.09,1.57-1.31,2.1-2.69,4.6-3.29,7.08-2.11,8.82-3.46,17.83-5.12,26.74-1.32,7.08-3.05,14.04-4.33,21.13-.81,4.47-2.29,11.23-1.35,15.6.19.87.79,1.6.67,2.48-.14.47-.98.52-1.42.57l-32.1-.09c-.34-.24-.61-.56-.38-.98.72-1.5,2.15-2.74,2.8-4.22,1.91-4.37,2.25-9.17,3.11-13.81.9-4.85,2.19-9.57,3.12-14.42.99-5.18,1.7-10.43,2.68-15.62.17-.92,1.54-5.45.86-5.9-.76-.51-1.04,1.18-1.23,1.57-1.29,2.67-2.86,5.24-4.23,7.82-5.02,9.52-10.06,19.02-15.04,28.57ZM305.09,132.73c.37,4.01-.29,8.59,0,12.66-.4,1.95-1.78.36-2.8-.11-3.03-1.4-5.35-1.21-8.57-1.34-6.52-.26-13.31-.41-19.82,0-2.66.17-5.89.38-7.01,3.36-1.53,4.08-1.9,8.44-2.72,12.68-1.39,7.22-3.2,14.33-4.49,21.58-.29,1.66-.83,4.17-.95,5.76-.15,1.93.16,4.89,2.13,5.79,1.35.61,2.88.79,4.34,1,9.16-.62,20.32,1.29,29.14-1.37.58-.18,1.97-1.27,2.2-.08.18.95-.53,1.94-.8,2.85-.74,2.45-1.55,4.83-2.36,7.25-.67,2.02-.3,3.5-3.01,3.7-15.09-.47-30.55.61-45.6,0-5.74-.23-11.3-1.75-13.67-7.53-2.31-5.63-.93-12.33.08-18.12,1.21-6.94,2.89-13.76,4.18-20.68.61-3.29.92-7.31,1.87-10.48,2.92-9.81,9.37-17.27,20.1-18.17l46.77-.05c.7.08.93.66.99,1.3ZM52.05,202.79c2.27-3.87,3.14-11.27,4.01-15.81,2.16-11.31,4.31-22.59,6.34-33.91,1.18-6.63,3.56-11.66,2.2-18.75-.24-1.23-1.18-2.08.92-2.36.4-.05.78-.06,1.18-.05,9,.18,18.12.33,27.14.17.81-.02,3.23-.57,3.65.3.41.84-1.13,2.08-1.48,2.79-3.1,6.32-4.06,14.99-5.35,21.94-1.85,10.03-3.97,20-5.79,30.04-.26,1.4-1.48,5.59-1.15,6.72.11.36.73.73,1.11.72,8.19-.23,16.54.29,24.71,0,2.19-.08,4.81-.21,6.9-.88.97-.31,1.82-.92,2.82-1.09,1.15.28-.19,3.02-.39,3.67-.93,2.96-2.2,7.79-3.89,10.29-.43.64-.88.61-1.62.66h-62.37c-3.06.04.42-3.35,1.06-4.44ZM73.22,214.51c-.93,3.69-1.69,8.52-2.31,12.33-.16.98.34,2.17-1.16,2.35-.78.09-4.67.11-5.27-.07-1.33-.4-.08-1.96.09-2.82.33-1.62.94-4.36,1.12-5.89.04-.35.17-1.69-.36-1.58-1.42,2.05-2.78,4.08-3.92,6.3-.21.41-.21.91-.4,1.28-.22.43-1.34,2.35-1.6,2.52-.64.42-3.69.41-4.37.03-.79-.45-.8-1.34-.91-2.14-.27-1.94-.19-3.98-.67-5.88-.36-1.42-1.02-2.05-1.56-.28-.46,1.51-.97,3.75-1.25,5.31-.12.7-.12,2.32-.31,2.74-.29.63-1.63.58-2.24.48-1.6-.25-.29-1.93-.12-2.85.54-2.95.94-5.95,1.46-8.91.16-.95.57-1.85.7-2.81.13-.98-.36-2.22.89-2.62,2.15.12,4.73-.28,6.83-.04.87.1,1.06.59,1.23,1.37.24,1.14.49,2.61.66,3.76.1.7-.09,3.72.86,3.72.68,0,1.7-3.17,2.03-3.77.42-.77,1.2-1.61,1.68-2.44.79-1.37.54-2.47,2.54-2.64,1.41-.12,4.58-.16,5.96,0,1.75.21.65,1.65.42,2.56ZM113.65,211.95c-4.38-.3-9.12.2-13.54.03-1.22.27-.78,2.12-.91,3.05-.11.8-.63,1.69-.83,2.52-.66,2.82-.94,5.77-1.46,8.61-.15.83-1.36,2.45-.26,2.93.35.15,4.77.16,5.41.08,1.53-.18,1.01-1.48,1.16-2.5.14-.93.55-3.03.88-3.84.44-1.07,1.87-1.42,2.37-.22.46,1.81.72,3.7,1.21,5.49.19.68.33.98,1.07,1.06.78.09,4.99.11,5.58-.07.28-.09.61-.41.69-.69.17-.58-1.09-3.71-1.24-4.72-.32-2.17.65-1.5,1.76-2.67,1.16-1.22,1.88-5.36,1.66-7-.24-1.79-2.1-1.97-3.57-2.07ZM108.52,219.16c-.73.17-2.6.3-3.1-.35-.36-.47-.07-2.48.15-3.05.19-.49.6-.78,1.11-.88.54-.1,2-.11,2.55-.03,2.23.34,1.24,3.84-.7,4.31ZM287.93,211.94c-4.43-.3-9.23.21-13.69.04-1.45.26-.9,1.57-1.05,2.61-.49,3.5-1.19,7.32-1.85,10.8-.21,1.09-1.65,3.57-.04,3.79,1.05.14,3.79.1,4.89,0,1.99-.18,1.28-1.65,1.46-3.11.16-1.27.57-5.26,2.71-3.97.93.56.88,3.13,1.12,4.21.17.75.62,2.46,1.33,2.79.33.15,4.94.16,5.57.08,1.98-.23.55-2.07.27-3.02-.13-.46-.7-3.13-.67-3.46.07-.76.74-.71,1.22-1.07.66-.5,1.08-1.09,1.31-1.89.3-1.07.82-4.8.62-5.81-.35-1.69-1.72-1.88-3.2-1.98ZM283.27,219.03c-.7.39-3.65.46-4.02-.37-.35-.79.43-3.56,1.4-3.78.62-.14,2.86-.11,3.39.21,1.29.78.29,3.35-.76,3.94ZM234.78,213.23c-.35,3.12-1.74,6.82-2.36,10-.27,1.39-.27,2.95-.6,4.28-.25.98-.59,1.55-1.68,1.67-1,.11-5.82.14-6.61-.1-1.07-.33-.94-1.69-1.24-2.57-.53-1.59-1.28-3.18-1.79-4.77-.26-.81-.76-4.45-1.8-4.46-.18,0-.28.1-.39.23-.37.44-.64,3.94-.8,4.84-.17.99-.54,1.91-.69,2.97-.13.94,0,3.28-.73,3.69-.5.29-2.48.35-2.81-.2-.48-.81.23-1.56.42-2.34.37-1.52.41-3.1.7-4.63.44-2.29,1.29-5.02,1.62-7.22.15-1-.39-2.37,1.04-2.62,1.19-.21,5.72-.19,6.98-.04,1.11.13,1.32.8,1.64,1.72.75,2.14,1.12,4.81,1.87,6.97.18.52.88,2.29,1.11,2.7.61,1.07,1.02.27,1.21-.53.61-2.52,1.09-5.76,1.41-8.35.17-1.38-.49-2.32,1.45-2.51,1.1-.11,2.2-.11,2.05,1.28ZM148.96,212.47c.38.57-.28,1.39-.43,2.03-.97,4.34-1.39,8.84-2.37,13.18-.22.97-.31,1.37-1.41,1.49-1.02.11-6.13.14-6.91-.1-1.4-.43-1.5-2.96-1.86-4.24-.56-1.93-1.25-4.77-2-6.53-.9-2.09-1.59-.17-1.88.96-.55,2.14-1.08,5.48-1.43,7.72-.13.84.28,2.03-1,2.2-.55.07-1.93.12-2.23-.38-.47-.77.35-1.31.58-2.04.81-2.65,1.12-6.56,1.61-9.37.16-.9.58-1.84.7-2.81.12-1-.36-2.07.74-2.62,2.31.13,5.03-.28,7.29-.03,1.87.21,1.43,1.16,1.82,2.45.74,2.43,1.49,4.84,2.15,7.31.12.47.2,2.91,1.22,1.99.73-.67,1.19-5.38,1.49-6.59.21-.84.72-1.68.83-2.52.13-.97-.33-2.45,1.02-2.64.63-.09,1.69-.05,2.08.53ZM92.46,222.01l-1.77-9.36c-.22-.39-.86-.63-1.29-.69-.89-.12-4.31-.14-5.14.02-1.25.25-1.2,1.62-1.72,2.55-.54.97-1.59,1.99-2.23,2.95-2.14,3.17-4.08,6.42-6.31,9.55-.33.46-1.14.89-.95,1.58.22.82,2.65.7,3.24.4,1.2-.62,1.35-4.32,3.82-4.56,1.08-.1,3.51-.11,4.58,0,1.41.16,1.61,1.29,1.75,2.52.09.8-.36,1.94.72,2.18.84.19,5.1.15,6.07.04,1.68-.2.71-1.44.45-2.29-.46-1.53-.39-3.33-1.22-4.88ZM85,221.26c-.3.92-3.2.79-3.52.14-.34-.7.52-1.15.82-1.62.4-.63.49-1.83,1.36-2.01.18-.04.36-.06.54,0,.54.16.98,2.95.8,3.49ZM167.48,214.54c-.44,1.09-1.6.35-2.44.3-.99-.06-4.12-.14-4.94.11-1.02.31-1.54,3.12-1.1,3.8.52.81,1.81.37,2.52.36,1.02-.01,2.04.04,3.05,0,.57-.02,1.27-.51,1.53.3.31.93.01,2.26-1.08,2.44-1.89.3-4.37-.26-6.33.08-.3.11-.48.31-.63.59-.27.5-.93,3.17-.66,3.62.08.13.63.39.8.42,1.81.36,4.38-.16,6.22-.13,2.16.04.96,2.71-.45,2.76-4.23-.31-8.96.38-13.13,0-2.12-.19-.68-1.75-.41-2.72.38-1.34.33-3.06.69-4.49.59-2.34,1.43-4.98,1.77-7.38.14-.98-.37-2.22.89-2.62l13.27.08c.76.35.69,1.81.42,2.48ZM212.69,214.93c-1.55.19-6.5-.66-7.49.44-.42.47-.72,2.54-.53,3.14.33,1.05,1.6.61,2.3.6,1.12-.01,2.24.02,3.36,0,.3,0,.61-.17.88-.13,1.09.15.92,2.79-.31,3-.34.06-.67-.13-1.02-.14-.94-.01-5.36-.14-5.87.09-.25.11-.42.46-.51.71-.16.44-.6,2.82-.5,3.18.04.14.19.37.31.46.61.45,4.51.34,5.5.3.49-.02,1.87-.38,2.2-.24,1.28.54-.28,3-1.43,2.83-4.13-.3-8.75.37-12.82,0-2.02-.18-.82-1.5-.56-2.56.69-2.89.87-6.5,1.61-9.37.22-.87.71-1.58.83-2.53.11-.88-.3-2.5.76-2.74l12.78-.04c1.55.16,1.71,2.24.54,2.98ZM270.54,214.53c-.64.89-1.57.33-2.43.31-1.29-.03-3.67-.17-4.85.04-.94.17-1.11.8-1.29,1.61-.33,1.49-.54,2.8,1.41,2.79,1.27,0,2.78-.13,4.11-.17.51-.01.82-.35,1.38,0,.68.41.51,2.6-.42,2.81-1.32.18-6.32-.45-7.2.11-.48.31-1.01,3.42-.77,3.95.06.14.26.29.39.37.68.41,4.08.27,5.1.25.57-.01,2.76-.65,2.81.37.04.74-1.14,2.37-2.04,2.23-4.08-.29-8.65.37-12.67,0-2.1-.19-.64-1.67-.41-2.87.57-2.95.94-5.95,1.45-8.92.16-.94.57-1.85.7-2.8.13-.98-.36-2.22.89-2.62l12.93-.04c1.34.16,1.63,1.58.9,2.59ZM195.26,214.27c-.55,1.5-1.42.65-2.48.57-1.14-.09-4.38-.18-5.25.39-.89.58-1.56,3.08-1.79,4.15-.19.86-.25,1.78-.4,2.65-.22,1.29-1.23,3.39.15,4.22.87.53,3.71.36,4.86.33,1.14-.02,3.47-.86,2.86,1.19-.26.87-.92,1.32-1.79,1.41-2.5.24-8.03.24-10.53,0-1.05-.11-1.98-.56-2.4-1.57-.93-2.23.45-6.54.9-8.91.17-.88.05-1.73.38-2.67.23-.65,2.09-3.11,2.63-3.47.55-.36,1.53-.5,2.18-.56,2.28-.22,7.34-.31,9.56-.05,1.24.15,1.48,1.29,1.1,2.33ZM252.9,214.88c-.82.38-3.14-.49-4.37.2-1.05.59-.9,3.07-1.12,4.21-.49,2.51-1.08,4.99-1.47,7.53-.14.92.33,1.95-.93,2.28-.78.2-4.67.18-5.57.08-1.81-.21-.58-1.5-.26-2.25.75-1.79,1.11-5.38,1.46-7.39.15-.88.8-3.04.73-3.71-.19-1.85-4.01-.45-4.6-1.2-.47-.6.13-2.52,1.04-2.65l14.46-.04c1.49-.03,1.67,2.46.65,2.94ZM127.14,213.07c-1.04,2.72-1.22,5.54-1.72,8.36-.32,1.78-.8,3.35-1.02,5.23-.14,1.23.45,2.32-1.3,2.51-1,.11-4.06.14-5.02-.01-1.57-.25-.24-2.76,0-3.8.73-3.24,1.55-7.62,1.9-10.91.1-.9-.37-2.2.87-2.48.69-.15,4.69-.14,5.45-.02.61.09.89.51.84,1.12Z"/>
</svg>