<?xml version="1.0" encoding="UTF-8"?>
<svg id="Layer_1" xmlns="http://www.w3.org/2000/svg" version="1.1" viewBox="0 0 360 75.56">
  <!-- Generator: Adobe Illustrator 29.1.0, SVG Export Plug-In . SVG Version: 2.1.0 Build 142)  -->
  <path d="M349.94,50.95s.03,0,.05.03c0,.01-.03,0-.02.02,0,.01-.02-.01,0-.02-.01,0-.01.03-.02.04,0-.01-.02-.03-.03,0,0,0,0-.01-.01-.02.02,0,0,0,.01-.03,0,0,.01,0,.01,0,0,0,0,.01,0,.02,0,0,.01,0,.02,0,0-.01-.01-.02,0-.04ZM350.04,52.22s-.02-.01-.02-.03c0,0,.03,0,.01-.02-.01.02-.02,0-.03,0,.01,0-.01,0,0,.02.03.01.01.01.04.03,0-.02.05-.01.02-.04,0,0,0,.02-.01.02ZM350.23,52.46s0,0,0,0c0,0,0,0,0,0h0ZM349.48,50.05s-.06-.01-.06-.04c0,0,.04-.04,0-.02.01,0-.02.01-.03,0-.01.04.05.04.02.06.01.02.08.03.07,0ZM349.47,50s0-.05-.01-.04c0,0,0,.03.01.04ZM350.11,52.24s.01-.01.01-.02c-.03,0-.02-.02-.02-.03-.02.03,0,.05,0,.08.02,0,.02-.02.03,0,.01-.02,0-.03,0-.04,0,.01,0,.02-.02.01ZM349.54,49.81s0,0,0,0c0-.03,0-.01-.02-.01,0,0,0,0,0,0,0,0,0,0,0,0,0,0,.01,0,.02,0ZM349.89,52.22s0,.02.02.02c0-.01,0-.02,0-.03,0,.01-.01,0-.02.01ZM349.45,49.9s.01,0,.01,0c0,0,0,.02.01.02,0-.01.01-.01,0-.02-.02,0-.02-.04-.05-.01,0-.01.01-.01,0-.02,0,.01-.02,0-.02.02.02,0,.01.03.03.01ZM349.47,49.84s.02.02.03,0c-.01,0-.02-.03-.03,0ZM349.53,50.02s0-.01-.02-.01c-.01.02,0,.02,0,.03,0,0,.01-.01.02-.02ZM349.35,49.97s.02,0,.03,0c0-.01,0-.04,0-.02,0,0,0,0,0,.01-.01,0-.02,0-.03,0ZM349.2,49.91s0,.02-.01.02c0,0-.01-.01-.02,0,0,0,.02.03.03.02-.02,0,.01-.03,0-.03ZM349.25,49.97s0-.02,0-.03c-.03.04-.02.03,0,.03ZM349.56,49.9s0-.03.02-.04c-.02,0,0,.01-.03.01.01,0,0,.02.01.03ZM349.22,50.11s.02-.01.01-.05c0,0,0,0,0,0,0,0-.02.01-.03.02.02,0,0,.02.02.03ZM349.35,50.04s.01.01.03.02c0,0,.01-.01,0,0-.02,0,0-.02-.03-.01,0,0,0,0,0,0ZM349.34,49.87s.04-.02.03-.03c0,.01-.05.01-.03.03ZM349.28,49.84s.04.02.02,0c-.01,0-.01-.01-.03-.02-.01.03-.05.02-.04.05,0,0,.02-.02.04,0,.01-.01,0-.03.01-.03ZM349.34,49.86s-.01-.03.03-.03c-.01,0-.01-.01-.02-.01-.02,0,0,.02-.01.02-.01,0-.01-.04-.03-.02.02,0-.03,0,0,.02.02-.02.03.02.04.03ZM349.25,50.04c.06.02.06-.03.08-.05,0,0,0,.01,0,.01.01-.02.01-.03,0-.04-.02,0-.02,0-.02,0-.02,0,.02-.02,0-.03,0,0-.02,0-.02,0,0,.01-.02.02-.03.05,0,0,0,.01,0,.02.02,0,.02,0,.03.01-.03,0-.07-.03-.08-.02.02.02-.02.02,0,.03.02,0,.04.03.04,0ZM350.22,52.19s.02.01.03.02c0-.02-.01-.03-.01-.05,0,.01-.02,0-.02.03ZM350.2,52.38s0,.01-.02.02c0,0,0,.01.02,0-.01.01,0,.02,0,.03h-.03s-.02,0-.02.02c.02.02.03.01.06.03,0-.04,0-.03.03-.02.02-.03,0-.02,0-.03-.02-.01.02-.02.02-.02,0,0-.03-.03,0-.03-.02-.01-.04,0-.05-.02ZM349.15,50.01s0,0,.01,0c0-.01.02-.02.03,0,0-.02-.02-.07-.04-.05.02,0,.02.02.01.04,0,0-.03,0-.02,0ZM350.35,52.35s0,0,.02,0c0-.01,0-.01,0-.02,0,0-.04,0-.02.02ZM348.75,49.88s-.03,0-.03.02c.01.02.05,0,.05,0-.02,0,0-.01-.02-.02ZM348.66,49.88s.05,0,.05-.02c-.02,0-.07.02-.05.02ZM348.58,49.86s-.05.01-.04.02c0,0,.05,0,.04-.02ZM349.45,50.12s.04.01.06.03c.01-.03.04-.01.04-.05.03,0,.05.03.08.04-.02,0,0-.04-.02-.04,0,.01,0,.02,0,.02-.03-.05-.06-.05-.09-.01.01-.03,0-.01-.04-.03-.02.02.02.03.01.05-.02-.02-.01-.03-.04-.02,0-.01.02-.03,0-.02,0,0-.03.03-.02.03ZM349.83,51.38s0-.04-.03-.03c.01,0,.01.04.03.03ZM349.79,51.32s.04.04.05.01c-.03,0-.01-.02-.04-.02,0,.01-.01,0-.02.01ZM349.76,51.5s.01,0,.02-.02c-.01,0-.03-.01-.03,0,0,0,.01,0,.02.01ZM349.78,51.73s.04-.03.05-.05c-.02,0-.02.02-.05.03,0,0,0,0,0,.01ZM349.74,51.84s.01-.02.04-.03c-.02,0-.03-.02-.04,0,.02.01,0,.04,0,.03ZM349.8,51.69s0-.03,0-.04c0,.01-.01.03-.03.01v.03s.03,0,.03,0ZM349.8,51.08s0,0,0,.01c.01,0,.03.01.04,0-.02,0-.02-.02-.04,0ZM349.84,51.74s0,0-.02,0c0,.03-.03.02-.05.04.03,0,0,.02.04.03,0-.02.02-.02.01-.04,0,0,.02,0,.02.01,0,0,0,0,0,0,0,0,.01,0,.01-.01-.02,0,.02-.03,0-.04ZM349.82,51.97s.01.03.02.01c0-.01,0-.03,0-.04h0s0,.02-.01.03ZM349.96,50.35s0,0,0,.01c0,0,.01.01.03.02.01-.02-.02-.03-.02-.03ZM350.24,50.24s-.02,0-.03-.01c-.01.02-.03.02-.03,0,0,.01-.03.02-.01.03,0-.03.04.03.06,0-.03-.01,0,0,0-.02ZM349.91,50.19s0-.01.01-.02c-.01-.01-.02-.01-.03,0,0,0,0,0,0,.01h.02ZM349.79,50.08s-.06.02-.11,0c-.01,0-.03.03-.01.04-.02,0-.01-.02-.02-.03,0,.01-.02.03,0,.04,0,0,0-.02.01-.02,0,.02.02.03.02.05.01-.03.02,0,.05,0,0,.02.02.02,0,.04.03,0,.01-.03.04-.02-.02-.03.02-.04,0-.07.02.01,0-.01.01,0,.02,0,0,.01.02.02.02-.04.07,0,.08-.05-.01.02-.04-.02-.03.01-.02,0-.03-.01-.04-.02,0,.02-.02,0-.02.03ZM349.83,51.52s-.01.01-.02.02c.01,0,0,.02.01.02.01-.02,0-.03.03,0,0-.02,0-.02,0-.03-.02,0-.02-.02-.03-.01ZM349.55,49.94s.01,0,0,0c0,0,0,0,0,0,.05,0,.07,0,.11-.02-.02-.01-.02-.02-.03-.06,0,.01.01,0,.02,0-.01.02.02.01,0,.03.02,0,.02,0,.02-.02,0,0,0,0,.01,0-.04-.02-.03-.01-.06-.03,0,.03-.02.04-.04.03-.01.03.03.03.03.05-.04,0-.05,0-.07,0ZM349.71,49.99s.02,0,.04-.02c0-.02-.05,0-.04.02ZM349.76,51.1s0,0,0,0h0s0,0,0,0ZM349.67,50.02s.03,0,.03-.02c-.03-.01,0,.01-.03.01,0,0,0,0,0-.01,0,0-.01,0-.01.02.01,0,.01.02.02,0ZM349.66,49.99s0-.03-.01-.03c0,0,0,.02,0,.02-.02-.01-.03,0-.03,0-.02-.01,0-.02,0-.03,0,0-.01,0-.03,0-.02.03.02,0,.01.02-.02,0-.03-.02-.04,0,0,.02.03,0,.04,0,0,0,0,.02-.01.02,0-.02-.02,0-.03-.01-.01.02,0,.02-.01.03.01,0,.01,0,.02,0,0-.01,0-.01,0-.02.02,0,.02.03.04.01,0,0,0-.01,0-.02.04.02.04,0,.06,0ZM349.78,49.95s-.02,0-.03.02c0,.01.02.02.04.02-.02,0,0-.03-.01-.04ZM349.7,49.84s-.03,0-.02-.02h0s-.03,0-.03.02c.02,0,.02.02.04.03v-.03ZM349.66,49.99s0,0,0,0c0,0,0,0,0,0,0,0,0,0,0,0ZM349.81,50.92s.03.03.04.05c0-.03-.03-.01-.03-.04,0,0,.02,0,.02,0-.01,0-.02-.02-.04,0ZM349.87,51.02s-.03,0-.06-.02c0,.02,0,.02-.03.02,0-.01.01-.01,0-.02,0,0-.02,0-.02,0,.02,0-.02.01,0,.02.03.03.01.03,0,.07,0,0,.02,0,.03,0,0,.02,0,.01-.01.03,0,0,.01,0,.02,0h0s0-.06,0-.08c.02.02.02,0,.03-.01,0,.02,0,.03.03.04,0-.02,0-.03,0-.05ZM349.72,51.07s0,0-.01.03c.02,0,.04,0,.06,0,0-.02,0-.02,0-.04,0,.02-.03,0-.04.01ZM349.82,50.97s-.02,0-.02.02c.04.02.04-.02.02-.02ZM349.89,52.11s-.01.01-.01.02c0,0,0,.01.02.01,0-.03.02-.02,0-.04ZM349.74,50.25s-.02-.04-.03,0c.02,0,.02.02.03,0ZM347.77,53.12s.04.03.05,0c0-.01-.03-.02-.04-.03,0,.01-.01.01-.01.02ZM347.73,53.07s0,0,.01-.02c-.02,0-.03-.01-.05-.03-.01.02.03.02.03.04.02.02.05.02.06.02-.02,0-.03-.02-.05-.02ZM347.72,53.07s0,0,0,0c-.02,0,0-.02-.02-.02,0,0,.01,0,.02.01ZM347.83,53.16h.03s-.01-.01-.02-.02v.02ZM347.96,53.21s-.06-.03-.08-.05c0,0-.01,0-.01.02.04.01.04.03.09.06,0-.01.02-.01,0-.03ZM348.84,53.67c-.07-.02-.07-.09-.13-.12,0,0,0,0-.01.01.03.04.03.22.13.22.03,0,.04-.03.04-.06-.04,0-.02-.04-.03-.06ZM347.95,53.91s0-.02,0-.04c-.02,0-.03,0-.04.03,0,.01.02,0,.03,0ZM347.63,53.01s0-.03-.02-.02c0,0,0,0,0,.01,0,0,.03,0,.02.02.02.01.02,0,.03,0,.01.01,0,.01,0,.03,0-.01.02,0,.02-.02-.02,0-.02-.02-.03-.03,0,.02-.01,0-.02.01ZM348.99,49.99s-.01,0-.02.02c0,.01.03,0,.02.02.01-.01,0-.03,0-.04ZM349.81,52.4s0,0,0,0c0,0,.01,0,0,.01,0,0,0,0,0-.01ZM348.99,50.04s0,0,0,0c0,0,0,0,0,0,0,0,0,0,0,0ZM349.56,53.37s.02,0,.02-.02c0-.01-.01-.02-.04-.03-.02.02-.01.04.01.05ZM349.77,52.37s.03.02.03.04c-.02.01-.03,0-.04.03-.02,0,0-.02-.02-.02-.03,0-.01.03-.04,0-.02,0-.02.02-.03.01,0,.02.01.02,0,.03,0-.01-.01-.02-.02-.02,0,.02-.03.01-.03.05-.02,0-.04-.02-.05,0-.01,0,0-.01-.01-.02,0,.02-.04.02-.06.04.03.04.13,0,.16.01,0,.01,0,.02.01.03.02,0,0-.01,0-.02,0,.01.02,0,.03.01-.02.03.02.02.01.04-.02,0-.03,0-.04,0-.02,0-.03.03-.04.03-.02,0-.05,0-.08-.01-.08,0-.13.03-.2,0-.01.03,0,.05.03.07-.03.03-.07.03-.11.04,0,.02-.02.06-.05.06,0,.07-.06.04-.08.1-.06.01-.1.09-.14.12,0,.02.02,0,.02.02,0,0-.03,0-.03,0-.04-.06-.11-.07-.17-.03-.09-.02-.17,0-.23.05,0,0,0,.03.02.01,0,.02-.02.07-.05.07-.02-.01-.03-.03-.02-.05-.02-.01-.02,0-.04,0,0,.04,0,.08.01.11-.04-.03-.03-.07-.06-.1-.04-.05-.09-.06-.15-.09,0,0,0-.02-.02-.02-.06-.03-.12-.03-.18-.05-.01,0-.02-.02-.04-.02-.03,0-.06,0-.09-.01,0,0-.01-.02-.02-.02-.07-.04-.13-.03-.13-.11-.23.05-.3-.19-.31-.35-.11-.03-.19-.07-.24-.01-.05.05-.09.09-.17.07-.04-.05-.02-.09,0-.16.03,0,.05-.03.06-.06.02.02.04-.04.07-.03,0-.04.03-.06.05-.08.03-.1.07-.23.08-.32,0-.02,0-.05,0-.07,0-.02-.04-.05-.04-.06,0-.01.02-.02.02-.03,0,0-.01-.02,0-.03,0-.04.04-.07.04-.09,0-.05-.04-.08-.07-.13,0,0,0-.02,0-.03-.02-.03-.07-.06-.09-.1-.02-.02-.01-.04-.03-.05,0,0-.01,0-.02,0-.06-.06-.06-.07-.05-.14.03,0,.06-.02.07-.04.04-.08-.08-.23.05-.27-.01,0,0-.03.01-.02,0,0,0,0,0-.01,0,0,.01-.02.03-.01.02-.07.02-.14.05-.2.01-.03.06-.06.03-.09.01,0,.02-.02.02-.02,0,0-.02,0-.03-.02.01-.01.03-.02.05-.02.07-.12.24-.24.38-.29.03-.01.05,0,.07-.01,0,0,0-.02,0-.01.03-.02.07-.03.06-.07.08,0,.12-.06.19-.05,0,.03,0,.05.04.06,0-.04.03-.02.03-.06.01,0,.01-.02.03,0,0-.01,0-.01,0-.03.02.02.03,0,.03,0,0,.02.03.02.03.04,0,0,.02,0,.02-.02.02.03.03,0,.04,0,.02,0,0-.01,0-.02.02.02.02,0,.03,0,.02,0,0,.02.01.02.02,0,0-.04.03-.02,0,.01-.02.02-.02.03,0,.02.03-.02.02.01.01,0,.02-.01.03-.02.02,0,0,0,0,.02.02,0,.03-.03.05,0,0,0,0,0,0,0,0-.02-.02-.01,0-.03.02.01.04.01.06.03.02,0,0-.02,0-.03.03.01.05,0,.07,0,0,0,0,0,0,0,.01-.02,0-.01.01-.03,0,0,.03,0,.01.03.03,0,.02.03.06.02,0,0,0-.02,0-.02.02,0,.04.02.05.04.01,0,0-.03.01-.03.02,0,0,.02,0,.03.02,0,.02,0,.03,0,.02,0,.02-.02.02-.03,0,.02.01.02,0,.04.03.02.02-.02.03-.03,0,0,0-.02-.02-.02.01,0,0-.01.01-.02.02.02.02.01.05.03,0-.01.02-.02,0-.02.03-.02.05.01.08-.02.02.02,0,.02-.02.02,0,.01.02.02.02.03,0,.01-.03,0-.03,0,0,.02.01,0,.01.01,0,0-.02,0-.03,0,0,.02.02.02,0,.03-.02,0-.04-.02-.06,0,0,.02.03,0,.02.03.04,0,.09-.01.08-.05.01-.02.03,0,.03.01.01-.02-.02-.03,0-.04-.02,0-.03,0-.02-.02.01.02.03,0,.03.02.01-.02.03-.02.05-.02,0,.01,0,.02.02.03,0-.03.02-.05,0-.08,0,0,0,0,0,.01,0,0,.01,0,.02-.01.01.03.04,0,.07.02-.02.04-.04.03-.05.05-.02,0-.01-.01-.03-.02,0,.03-.02.03,0,.06-.02-.02-.03-.04-.06-.05,0,0,0,.02,0,.03,0,.02-.02,0-.02.02-.01,0,0-.03.01-.03-.03,0-.03.03-.04.05,0,.01-.01,0-.02,0,0,.02,0,.04-.02.04,0,0,0,0,0,.01,0,0,0,0-.01,0,0,.04-.02.03-.02.06h-.02s0-.04.01-.04c0,.01.03-.04.04-.07-.04.01-.04.05-.07.06-.01.02.02.01,0,.03-.02,0-.03,0-.04-.02,0-.02.02-.04-.01-.05,0,.03-.02,0-.03.02.01.01,0,.03-.02.03.03,0,.01.04.04.01-.01.03.01.04-.02.04.01,0,.01.01.02.01,0-.02.01-.03.02-.03.02.03,0,.03.04.03,0,0-.02.03,0,.02,0-.01.01-.02.02-.02,0,0,0,0,0,.01,0-.02.02.01.03,0-.02,0,.03-.03,0-.04.03.02.01,0,.03-.01,0,.02.02,0,.02.03-.03.02-.01.04,0,.07.02,0,.03,0,.04-.01-.01,0-.02,0-.04-.01.01-.03,0-.05,0-.09-.01.01-.02,0-.03,0,0,0,0-.02.01-.02.03,0,.01.03.04.03.02,0,.03-.02.02-.04,0,0,0,0,.01,0,0-.02.01-.03.01-.05h.02s0,0-.01,0c0,0,.01.02.02.02-.02,0-.02.02-.03.02.01,0,.03.01.04,0,0,0,0,.01,0,.01,0,0,0,.02,0,.03-.02,0-.04,0-.05-.02-.02.02,0,.05,0,.07,0,0,0,.01.01.01,0,0,0-.05.02-.04-.02.01,0,.03-.01.05.04,0,.03-.06.04-.07,0-.02.03.01.03,0,.01,0,0,.03,0,.04.04,0,.03-.06.01-.07.02,0,.02.02.05,0,0,.01,0,.03-.02.02,0,0,0,.01,0,.02.05,0,0,.01.04.01.03,0-.01.02.02.03,0,0,0,0-.02,0,0,.02.03.04.05.04,0,0,0,0,.01-.01,0,0,.05.02.05,0,0-.03-.05,0-.08,0,.02-.04.08,0,.1-.03.02,0-.01.01-.01.02.02,0,0,.03.02.04,0,0,0,0,0-.01,0-.01-.01,0,0-.01.01,0,.03-.01.06-.01,0,.01-.02.01-.02.03.03,0,.03,0,.04-.03.02.04.06.01.07.06-.01,0-.02.03-.03.01,0,.02.04.02,0,.05,0,.01.02,0,.03.02,0,.02,0,.04-.03.04.01,0,0-.02,0-.04-.01,0-.02.02-.03,0-.01.01,0,.03-.02.02.02.01.01.03.03.04-.02,0-.04-.03-.04-.05-.01,0,0,.05-.04.03,0,.01,0,.02,0,.03.06,0,.05.04.09.04,0-.02,0-.06,0-.06-.01-.01.01-.03.03-.02-.01.02,0,.02,0,.04.02-.02.04-.06.06-.09.04.03.03-.05-.02-.04,0,.03,0,.02-.02.03-.02-.04.01-.07.02-.1,0,0,.02.05.04,0,.05.02-.02.03-.02.03,0,.03.04.02.03.07,0,0,0,0,0,.01.02-.03.06-.01.07.01,0,0-.01.01-.02,0,.02-.01,0,0,0-.02-.02,0-.01.03-.04.03,0,.01.01,0,.02,0,0,.01-.01,0-.02,0,0,.01,0,.03.02.04-.02,0-.06.02-.08-.01-.01,0-.01.02-.03.02,0,0,.03.01.03,0,0,0,0,.01.01.02,0,.01-.01.02-.02.02.02,0,.02-.03.05,0-.04.02-.06.03-.11.03.02.03,0,.06,0,.09-.01.01-.03-.03-.04,0-.02-.01,0-.02,0-.04-.03-.01-.03.01-.05,0,0,0,0,.01,0,.02.01,0,.02,0,.04,0,.01.05.05.05.08.08,0,0-.01,0-.01,0-.04.02-.06-.03-.09-.02,0,.03-.01.06,0,.08.02,0,.02-.01.04,0,0,.01,0,.02,0,.02-.02,0-.04,0-.05.03-.04-.03-.06,0-.07.03.02.02.04.02.05.03,0,0-.01,0-.01.02-.03-.02-.05-.02-.06-.06-.02.02.03.07.07.07,0,.01,0,.02,0,.03,0,0-.03-.02-.03,0,0-.01-.01-.02-.02-.03-.01,0-.02.03-.03.02,0,.01,0,.02,0,.02-.01.01-.03,0-.04.03-.01,0,0-.02,0-.03-.02.03-.02-.05-.05-.01,0,.01.02,0,.02.01-.02,0-.08-.04-.11,0-.01,0,0-.01-.02-.01,0,0,0,0,0,0,0,0,.01.01.02.01,0,0,0,.01-.01.02-.01,0-.02,0-.03,0h0s-.06,0-.06-.05c-.01,0,0,.05-.02.05-.02,0,0-.02,0-.04-.02,0-.03,0-.06-.01.04.02-.03,0-.01.03-.01,0-.04-.03-.05-.04-.02,0,0,.01-.02.02.01.02.02.02,0,.05,0,0,.02,0,.03.02-.01,0-.03,0-.05-.02,0,.01,0,.02.01.02-.02.02-.03-.03-.05-.04.01,0,.02,0,.04,0-.02-.01-.05,0-.05,0,0,.03.06.03.05.07-.02-.02-.06-.03-.09-.05,0,0-.01.02-.01.04.01.01.01,0,.02-.01.02.03.02.04.03.08-.04,0-.04-.04-.07-.02.03.02.03.04.08.05-.01.01-.01,0-.02,0,0,.01,0,.03,0,.03.03-.02.06-.02.1,0,0,0,0,0,.01-.02-.01-.03-.07-.03-.08-.03,0-.03.02,0,.03-.03.02.01.05.01.06.05.02,0,.01-.02.04-.01-.01.01-.02.02-.03.02,0,.02.02.01.03.02.01-.02.02-.02,0-.05.02.02,0-.03.01,0,.02-.02-.01-.02-.04-.01,0-.01-.01-.01,0-.03.03.02.04-.02.06,0,.01,0,0-.02,0-.02,0-.01.04.02.04-.01.02.01,0,.04,0,.05.02,0-.02-.04.02-.02,0-.01-.02-.01-.01-.03,0,0,0,0,.01-.01.03,0,.05.05.07.02.02.03.05.05.07.03.02.01.03.03.07.04,0,0,.01,0,.01,0,.01-.01,0-.02,0-.02.02,0,.01-.04.06-.02,0,0-.01-.02,0-.02.05.02.09.06.15.07.01-.02,0-.03,0-.04,0,0,.02,0,.02,0,0,.03.04.04.02.07.02,0,0,.03.04.03-.01.01-.02.02-.04.01,0,.01-.02.04,0,.04.02,0-.01-.01,0-.02.02.03.04.03.06.06,0,0-.01,0-.02,0,0,0,.01,0,.02,0,0,0,0,0,.01,0,0-.01-.02-.01,0-.03.02,0,.02.01.03.02,0,0-.01.01-.02.03,0,0,.01,0,.02.01,0-.03.01-.04.03-.04-.01,0-.02,0-.03-.02.04-.04.07-.03.1,0,.02-.02.03,0,.04-.02,0-.02-.02-.04,0-.04,0-.01-.02,0-.02,0-.01-.02,0-.04,0-.06.04,0,.06,0,.08,0,.01.04,0,.02-.01.06-.01,0,0-.02-.01-.03,0,.01-.01.01-.04.01,0,.01.02,0,.03,0,0,.02.01.06-.01.04,0,.01.02.01.01.03-.02.01-.05,0-.06.02-.03-.01-.04-.03-.06-.03,0,.01,0,.03.02.03-.02,0,0,.03-.03.04.03,0,.04-.01.07,0,0,.02-.02,0-.02.01.03,0,.07,0,.11,0-.01.01-.01.02-.01.04,0-.02-.02-.01-.03-.01,0,.02,0,.01-.01.02-.02,0-.02-.01-.03-.02-.02,0-.03.02-.04.04.02,0,.02,0,.01.02l.07.02s-.04,0-.04.01c0,0,0-.01,0-.02-.01,0-.02,0-.03,0,.02.04,0,.02,0,.06-.01,0,0-.02-.02-.02.02,0,0-.02.01-.04-.02,0-.03.01-.05,0,.01,0,.01-.02.02-.03-.01,0-.02,0-.03-.01,0,.02.03.04-.01.02.04.05.09.07.1.12,0-.02,0-.02,0-.04.02,0,.02.01.03.02-.02.03-.03.03-.05.05,0,0,0,0,0,0,0,0,.01,0,.02.01.01-.01,0-.03.03-.03,0,0,0,.02.02.01,0-.01,0-.03-.02-.03,0,0,.02,0,.02-.01.03.01.02.01.05.02,0,0-.01-.03-.02-.02-.01-.02.03,0,.04-.02,0-.01,0-.02-.03-.03,0-.02,0-.03.01-.04.02.03.03.06.07.06-.01.02-.03,0-.04-.01.01.04,0,.09-.06.08,0,0,0,.01,0,.02,0,0,0,.01,0,.02.01,0,.02-.01.03,0,0,0,0-.02,0-.02.02,0,.05.01.03-.02h.02s0,.04,0,.06c-.03,0-.04-.02-.08.02-.02,0-.03-.05,0-.05,0-.02-.02,0-.03-.01,0,.02.02.04-.02.03,0,.01.04,0,.02.02,0,0,0,0,0,0,0,0,0,0,0,0-.05,0-.07.03-.09,0-.01.02-.03.04-.04.06,0,0-.02-.05,0-.04-.01-.03-.05.01-.04-.03-.01,0-.02,0-.03,0,.03.02,0,.04-.01.05,0,0,0-.02,0-.03,0,0,0,.01.02.01,0-.01-.02-.02-.03-.02,0-.01,0-.01.01-.02,0-.01-.01,0,0-.01-.01,0,0,0,0,.02-.02,0-.02-.03,0-.04-.01,0-.02.01-.03.02,0,0,0-.03-.02-.01,0-.04,0-.05,0-.08,0,0-.01,0-.02,0,0,.01,0,0,.02,0v.02s-.03.02-.03.02c-.02,0,0-.02,0-.03-.01,0-.02,0-.03,0,0,0,.01.02.02.03,0,.02-.01.01,0,.03-.01-.01-.02-.04,0-.05-.03-.01-.03.03-.07.02,0,.02-.01.02,0,.04-.01,0-.02-.03,0-.04-.02,0-.02,0-.03-.01,0-.02,0-.04-.02-.06.04,0-.03-.05-.05-.04,0,0,0,.02.01.02-.01.02-.02,0-.03,0,0,.02.02.03.04.05,0,.02-.02,0-.03,0,0,.03.05.01.05.02-.02.02-.07.03-.07,0,0,0,0,0-.01.01-.01,0,0-.02-.02-.02,0,.03,0,.03-.01,0-.01,0,0,.03-.02.03,0,0,.04.04.02,0,.01,0,.03.01.06,0,0,0,0,.02.02.03,0,.01-.03,0-.03.02-.01,0,0-.02-.02-.02,0,.02-.04.01-.03.04.02-.02.03,0,.04-.02,0,0,.02.02,0,.03,0,0,0-.01-.01,0,0,.02.02.02.03.01.02,0,.04.04.05,0,0,.03,0,.04,0,.07.02-.06.04-.08.09-.05.02-.03.06-.02.07-.07.02.01,0,.01,0,.03.02-.01.03.02.04.03,0,0-.02-.02-.03,0,0,0,0,0,0-.02-.02.02-.04,0-.06.03,0,0,.01,0,.02-.01.02.02,0,.02.01.03-.02,0-.03,0-.05,0,0,.01.01.02.02.03.01,0,.04-.04.05,0,0,0,.01-.03.02-.04.02,0,.02.02.04.03-.03,0-.03.02-.05.03,0,0,.02,0,.04,0,0,0-.01-.01,0-.02.02.02.02.01.02.04,0,0,.02,0,.03,0-.02-.01-.03-.03-.04-.05,0,0,0,0,0,0,.04,0,.02-.02.02-.03.02,0,.02.02.04,0,0,.02.01.03.02.05.01,0,.01,0,.02,0,.03.02.03.02.04.04,0,0,0,0,0-.01.02,0,.01,0,.03,0,0,.02-.02,0-.02.02.01,0,.01,0,.03,0,.01,0,.02-.02.02-.03-.02-.02-.02.01-.03,0,0-.02,0-.03-.01-.04,0-.03.02.02.02-.01.01,0,0,0,0,.02,0,0,.03-.02.02-.03,0,0,.03.04.06.05-.02.03-.04-.01-.06-.03,0,.02.02.03.03.04,0,.01,0,.02-.01.02.03,0,.06.05.09.02.01.01,0,.03.04.03-.01,0-.02.02-.04,0,0,0,.01,0,.02.01-.02.02-.05,0-.06,0-.02,0-.03.03-.05.01.02.01,0,.04,0,.05.01,0,.03.02.05.04-.02-.05-.03-.02.01-.06.03.01,0,.02.03.03-.02,0-.02.04-.03.04,0,0-.04-.01-.06-.02-.01.01,0,.02,0,.03-.02,0-.03-.02-.04-.04-.03.02-.05-.01-.07,0,0,.02,0-.01.02,0,0,.02-.01.01-.02.02.01,0,.03,0,.04-.01-.01.03.06.07.05.03.02.02,0,.04,0,.05,0,0,.01,0,.02-.01,0,0,0,0-.01,0,.02-.03.02.03.05.01,0-.01-.03-.01-.01-.03.02,0,.01.03.04.03-.01.02-.01.02,0,.04.02,0,.01-.01,0-.02.01-.01.02.02.04.02,0,0,0-.01,0-.02.01.03.07.05.09.08,0,0,0,0,0,0-.01,0-.01.02-.04,0,0-.02.02,0,.02-.02,0-.02-.03,0-.02-.02-.02,0,0,.02-.02.03,0,.01.04.01.02.04-.01,0-.04-.01-.06,0,0,0,0,.02.02.02,0,.01-.02.01-.03.03.02,0,.02-.01.04-.03.06,0,0,.07.06.08,0-.01,0-.01,0-.03.03.02.03.02.06.01,0-.02,0-.03,0-.04,0,0,0-.02,0-.02,0,.04,0,.07.01.08-.04.02-.04,0-.07-.01,0,0,0,.02-.02.03.02,0,0,0,.03,0,0,0-.01,0-.01,0,.01.02.02.01.04.02-.04.02-.09.03-.06.1-.02-.03-.02-.03-.03-.06-.02.02-.04.04-.07.06.03.02-.02.03.01.05,0,.01-.01,0-.02,0-.01.01,0,.02,0,.03.01,0,.02-.04.04-.03-.03.02-.03.05.01.06,0-.02,0-.03,0-.03.05,0,.02.06.07.05-.03.02-.05-.03-.06.02,0,0,.02,0,.02.03.02,0,0-.02,0-.03ZM349.57,51.63s0,.02,0,.03c.01,0,.02,0,.03,0-.03,0-.01-.05-.03-.03ZM349.42,51.25s-.02-.02-.03-.03c-.01.02,0,.03,0,.05,0,0,.01,0,.02-.01ZM349.49,51.36s-.03-.02-.04-.02c0,.01,0,.03,0,.03,0-.01,0-.02,0-.03.02,0,.02.01.03.02ZM349.52,51.3s-.02-.01-.04-.02c0,.06-.05,0-.03.04-.01,0-.02-.04-.02-.03-.01.03,0,.01,0,.04.04-.01.06-.02.1-.03ZM349.47,51.18s.02,0,.02-.02c0,0-.01,0-.02-.01,0,0,0,.02,0,.03ZM349.45,51.27s.02,0,.02,0c0-.06.03,0,.02-.06-.02,0-.05,0-.07.01.04,0,0,.02.03.03ZM349.43,51.16s0-.05-.01-.04c0,.01.01.06.01.04ZM349.63,51.38s-.03,0-.02.02c0,0,0,0,0,0,.01.04.01-.03.04,0,.01-.02-.01-.01-.03-.02ZM349.57,51.31s0-.02,0-.02c-.02,0-.04.01-.04,0,0,0,0,.01,0,.02,0,0-.01,0-.01,0,.01,0,.02,0,.02,0,.02.02,0,.04,0,.05-.01,0,0-.02,0-.02h-.02s0,.03,0,.05c.02,0,.02,0,.04,0-.02.02.01.03.02.02,0,0-.02-.02-.01-.04,0,0,0,0,.01,0,0,0,0,.02,0,.02h0s0-.01,0-.01c-.02-.02,0-.03,0-.05,0,0,.03.03.01.01,0-.03.02-.03.03-.04-.02-.03-.03.03-.05.03ZM349.56,51.27s.01,0,.02.02c0,0,0,0,0-.02h-.02s0,0,0,0ZM349.54,51.19s0,0-.02-.01c0,.01-.01.02-.02.03-.01,0-.02,0-.02-.01,0,.01-.01.02,0,.04,0-.02.03,0,.04-.01,0,.04.05.04,0,.06.02,0,.03.01.05,0,0-.03-.04-.05-.01-.09ZM349.59,51.14s0,.02.02.02c0-.02.04,0,.03-.03-.02.02-.01-.01-.03-.01,0,.02-.02,0-.03.02ZM349.56,51.16s0,0,0,0c.01,0,.02.02.02.04,0-.01,0-.03,0-.05-.01,0-.03,0-.03.01ZM349.53,51.16s.02,0,.03,0c0,0,0-.01,0-.02-.03,0-.01,0-.04.02ZM349.46,51.12s.03.01.04.03c.01,0,.01-.02.03,0,0-.02-.04-.01-.04-.03.01,0,.04-.01.04,0-.01,0,.02-.04,0-.04,0,0,0,0,0,0-.02.01-.04.05-.06.05ZM349.37,51.07s.02,0,.03.01c0-.01,0-.04.02-.03.01.02.03.01.04.03-.02.01,0-.01-.03-.01,0,.03,0,.01,0,.03,0,0,.03,0,.02.01,0,0,0,0,0,0,0,0,.01-.01.02,0,0-.02,0-.02,0-.06-.04-.01-.05-.01-.08-.02,0,.01-.03.02-.02.04ZM349.38,51.15s.01-.03-.01-.03c-.02,0,0,.04.01.03ZM349.23,51.12s0-.02-.01-.02c0,.01-.02.01,0,.02,0,0,0,0,.01,0,0,.01.02.02,0,0ZM349.32,51.1s0-.01,0-.02c-.02,0-.03,0-.04,0,.02.01.02.03.04.02ZM349.28,51.28s-.02,0-.02-.02c0,0,0-.02,0-.01,0,.03-.02.02-.01.04,0-.02.03,0,.03,0ZM349.27,51.13s0,.05.01.04c0-.01.02-.02-.01-.04ZM349.35,51.28s0-.02-.02-.03c-.01.02.01.02,0,.03-.01,0-.02,0-.03,0,.02,0,.03,0,.04-.01ZM349.36,51.08s-.02-.02-.03,0c.02,0,0,.03.01.03v-.03ZM349.35,50.99s-.05.03-.04.07c0-.03.04,0,.04-.01,0-.01-.02,0-.01-.02.01,0,.04-.04.01-.04ZM349.32,51s-.02-.05-.03-.02c0,0,.02.01.03.02ZM349.26,50.93h.01s-.01.04,0,.02c.03-.03.02-.02.05-.04-.02,0-.03,0-.06,0v.02ZM349.24,50.99s-.02.04,0,.04c-.01,0,.02-.03,0-.04ZM349.21,50.98c.05.02.03-.05,0-.04,0,.02.01.02,0,.04ZM349.15,51.2s.04-.02.04,0c0,0-.01,0-.02,0,.02.01.03,0,.04-.01-.02-.03-.04,0-.05-.03v.02s0,.02,0,.02ZM349.49,50.36s-.01.01,0,.02c.02,0,0-.03,0-.02ZM348.58,50.85s-.01-.02,0-.02c.01,0,0,.02.01.02,0-.01,0-.04.02-.05-.02,0-.06.04-.03.04ZM348.67,50.92s-.03-.03-.03-.03c.02.02-.02.03-.03.05.04.02.04-.05.06-.02ZM348.74,50.74s-.04.02-.05.05c.01,0,.01.02.03.02.02-.02,0-.05.02-.07ZM348.74,50.34s.04,0,.06.02c0-.02.03,0,.03-.02-.04,0-.04-.03-.05-.05-.01,0,0,.03-.01.03,0-.02-.03-.03-.04-.02.02.02,0,.03.02.05ZM348.8,50.73s0,0-.03,0h0s0,.02.01.02c0,0,0,0,0,0,.01,0,.01.01.01.02,0-.01.02-.01,0-.02ZM348.85,50.76s-.03,0-.03,0c.01,0,0,.04.03.02,0,0,0-.02,0-.03ZM348.85,50.67s-.02,0-.03,0c0-.01,0-.02,0-.03-.02,0,0,.02,0,.03.01,0,.02,0,.03,0ZM348.88,50.67s-.03-.03-.05-.01c.04,0,0,.04.04.03-.02,0,0-.01,0-.01ZM349.04,50.7s-.03,0-.05-.03c0,0,0,.01,0,.02-.03.02-.09-.03-.1-.01,0,0,.03.01.03.02,0,0-.01,0-.02.01.01,0,.01.01,0,.02.02,0,.04.02.03,0,0,0,0-.02,0-.02,0,.02.05,0,.07.02,0-.01.01-.02.02-.03ZM348.92,50.54s.02.02.03.03c0-.04,0-.04,0-.07,0,0,0,0-.02,0,0,.03.02.03-.01.05ZM349.01,50.56s0,0,0,0c0,0,.01-.01.01-.03-.01,0-.03-.02-.03,0,.01,0,.01.01.02.02ZM349.04,50.51s-.03,0-.04,0c.01,0,.04.03.04,0ZM349.05,50.48s-.04-.01-.05,0c.01.01.06,0,.05,0ZM348.99,50.38s0,.03.02,0c-.02-.01.02,0,.01-.01-.01,0-.02,0-.03,0ZM348.98,50.39s0,.01,0,.02c0,0,.02,0,.02-.01,0,0-.01,0-.01-.01ZM349.09,50.72s-.02-.03-.04-.02c.01,0,.02.02.02.03,0,0,.01,0,.02-.01ZM349.21,50.7s0-.02.01-.04c-.02-.02-.04-.01-.08-.02,0,0,0,0,0,0,0,0-.02.02-.02.04-.02,0-.03,0-.05-.01,0,0,0-.02,0-.03,0,.01-.01,0-.02,0-.02.04.03.03.03.04,0,0-.03,0-.01.01.05.02.05.05.08.03,0,0-.01,0,0,.02,0,0,.01,0,.02,0,0-.01-.01-.03-.02-.03,0-.04.03-.04.06-.03-.02,0,0,.01.01.01,0,0,0,0,0,.01ZM349.14,50.52s0-.01.02,0c.01-.02-.01-.02-.02-.03,0,0,0,.02,0,.02,0,0-.02,0-.02-.01,0,0,.01,0,.01-.01-.03-.01-.02.03,0,.04ZM349.14,50.43s0,0,0-.01c-.02,0-.04,0-.04.02.02,0,.03-.02.04-.01ZM349.15,50.57s.03.01.02,0c0,0,0,.01-.02,0ZM349.17,50.4s-.02-.02-.04,0c.01,0,0,.03.01.03,0-.01.02-.01.02-.03ZM349.2,50.35s-.02-.01-.02-.03c0,0,0,0,0-.01-.01.03-.02,0-.01.04-.01-.02-.02-.01-.04-.03,0,.01-.02,0-.02,0,.01,0,0,.03,0,.03h.03s0,0,0,0c.02.02.04.01.06,0ZM349.14,50.29s0-.02,0-.03c0,0,0,0,.01,0h-.02s0,.02-.02.02c.02,0,.01,0,.02,0ZM349.19,50.29s-.02,0-.02-.01c0,0,0,.02-.01.02,0,0,0,0,0,0,.01.02.02,0,.04,0ZM349.16,50.23s-.04,0-.06.01c0,0,.02,0,.02.01,0,0,0,0,0,0,.01,0,.05,0,.05-.03ZM349.08,50.4s.03.02.04,0c-.02,0-.03,0-.04,0ZM349.07,50.46s.01.01.02,0c0,.01,0,.03,0,.04.01-.01,0-.02.02-.04-.01,0-.02-.02-.03-.03,0,.02-.03.01-.01.02ZM349.06,50.55s.03,0,.03-.02c0,0,0-.01-.02-.01-.01.01-.01.01-.01.03ZM349.24,50.7s-.03-.02-.02,0c0,0-.01,0-.02,0h.02s.02,0,0-.01ZM349.24,50.62s-.02,0-.03,0c0,0,0,0,.02.01v-.02ZM349.27,50.72s0-.02-.02-.03c0,.01,0,.02,0,.03,0,0,0-.01.01-.01,0,0,0,.02,0,.01ZM349.29,50.68s0-.01,0-.03c-.01,0-.02,0-.03,0,.01,0,.01.04.03.02ZM349.31,50.61s0-.01-.01-.02c-.02,0-.01.02,0,.03,0,0,0,0-.01,0,0-.03,0,0-.01,0,0-.02.02-.02.01-.04-.02,0-.02,0-.04,0,0,0,.02-.02.01-.03,0,.02-.01,0-.01.03,0,.02.02.01.03.02,0,0-.01,0-.02,0,0,.01,0,.02,0,.03.02-.03.03,0,.05,0,0-.02-.01-.03,0-.04ZM349.38,50.62s-.01-.03-.02-.05c0,0-.01.01-.02.01,0-.01,0-.02-.01-.04-.05,0-.06-.05-.11-.03,0,0,.02,0,.02.01-.04,0-.03.02-.06.03.02,0,.01.01.02.02.02,0,.04-.01.05-.04,0,0-.02,0-.01-.02,0,0,0,.01.01,0,0,0,0-.01,0,0,0,.02.02,0,0,.03.07.01.08.05.13.06ZM349.28,50.32s-.02,0-.02,0c0-.01,0-.04-.02-.04,0,.02,0,.02,0,.04.02,0,.03.02.04,0ZM349.26,50.43s.01.03-.01.03c0,0,.02,0,.03,0-.02,0,0-.02-.02-.03ZM349.22,50.42s.01-.02.03,0c.01-.02-.03-.01-.03,0ZM349.23,50.45s0,0,.01.02c0,0,0,0,0,0,0-.01-.01-.03-.02-.01ZM349.43,50.24s-.05,0-.07.02c.01.01.03,0,.03.01,0,0-.01,0-.02,0,0,0,0,.01,0,.01.04-.01,0-.02.04-.05ZM349.37,50.2s-.01.03,0,.03c.01-.02.03,0,.04,0,0-.02.02-.02,0-.03-.01.01-.03-.02-.05,0ZM349.23,50.25s0,0,0,0c0,0-.01,0-.01,0,.02,0,.02.02.04.02.01-.02-.01-.04,0-.04,0,0,0,0,.01,0-.02,0,0,.01,0,.02.04.03.04-.03.07,0,0-.01.02-.01.02-.02-.02-.01-.03.01-.04,0,0-.01.02,0,.02-.02-.02,0-.02-.02-.05-.02,0-.02,0-.03,0-.05,0,0,0,0,0,0-.01,0-.03.04-.04.01,0,.03.01.03.03.05,0,0-.02,0,0,0,.02,0,.03-.02.04,0-.02,0-.02.01-.04.01,0,0,0-.02-.02-.02-.01.02,0,.03-.02.02ZM349.17,50.16s.02,0,.03-.01c-.01,0,0-.02-.03-.02,0,.01-.02.02,0,.03ZM349.13,50.13s0,.01.01.02c.01,0,0,0,0-.02,0,0-.02,0-.02,0ZM348.97,50.19h.03c0-.05.06.05.02.03,0,.02.01.02.03.02,0,.01-.02.03,0,.04.02,0,.01-.07.02-.1,0,.01,0,.03.01.04,0,0,.02,0,.02,0-.01,0,0-.03.02-.02-.01.02,0,.02.01.03,0-.03.02,0,.04-.02-.02.02.01,0,.02,0,0,0,0,.01,0,.02-.02-.01-.03.02-.02.02,0-.02.02-.02.04-.02-.01,0,0-.02,0-.02-.01,0-.02,0-.02-.01.01.01.05.01.04,0-.01.01-.03-.01-.03-.02.02-.01,0-.01.02-.01,0,0,0-.02-.02-.03-.03.03-.06.05-.08.08,0-.01-.01-.02-.02-.03,0,0,.02,0,.02,0-.01-.01-.03-.02-.03-.04-.02.01-.03.04-.05.03,0,.02,0,0,0,.02-.02,0-.02-.02-.04-.02,0,.02-.04,0-.04.02ZM348.74,50.22s.03.03.02.04c.01-.02.01.02.02.02,0-.01.02,0,.02-.01,0-.02-.03,0-.03-.02,0-.03.03-.02.05-.02,0,0-.01.01-.02.02.05.05.07.06.12.05,0,0,0,0,0-.01,0,0,0,0,0,0,0,.01-.02,0-.04,0,0-.02,0-.05,0-.06,0,.02.04.01.04.04,0-.03.04-.05.06-.05-.02-.05-.05,0-.08-.04-.01.01,0,.03,0,.02,0,0-.02,0-.02-.02,0,.03-.03.03-.04,0-.03.02-.07,0-.08.04ZM348.72,50.08s0,.04.02.05c0-.01-.02-.03,0-.04,0,.03.02.03,0,.05,0,0,.05.01.04-.02-.03.02-.02-.01-.01-.04,0,0,0,0-.01,0,0,.04-.02-.02-.04,0ZM348.69,49.91s0,.02,0,.05c.02,0,.03.01.03,0,0,0-.01,0-.02,0,.01-.02,0-.06-.02-.05ZM348.71,50.92s-.05,0-.03.02c0-.02.04,0,.03-.02ZM348.71,50.95s.02.03.03.01c-.01,0,0-.01-.01-.02,0,0-.02,0-.02,0ZM348.78,52.25s-.03-.07-.05-.05c0,.01.01.02.01.04,0,0,0,0,0,0,.01,0,.03-.02.04,0ZM348.86,52.13s-.02,0-.03-.04c0,.01-.01,0-.01.02.02,0,.02.02.04.01ZM349.12,51.53s.02-.03.05-.01c-.01-.02,0-.03,0-.04-.01,0-.01.03-.03.03,0-.01.01-.01,0-.02,0,0-.01,0-.02,0,0,0,0,.01,0,.03ZM349.04,51.4s-.02.02,0,.02c0-.02.02,0,.03-.02-.01,0-.02,0-.02,0ZM349.04,51.35s-.02,0-.03,0c0,.01.01.02.02.02,0-.01.02-.01,0-.02ZM349.09,50.96s0,.01,0,.02c.03.02.04,0,.06.02,0-.03-.03-.03-.06-.04ZM349.05,50.93s.03.02.04,0c-.02,0-.01-.02-.03-.02v.02ZM349.04,50.95s0,.02.04.04c.01-.01,0-.03,0-.05,0,.03-.03-.01-.03,0ZM349,51.31s.06.02.06,0c-.01.01-.05-.03-.06,0ZM348.95,50.95s.03.02.04.03c0,0,0,0,0,0,0-.02.01-.04.02-.05-.01,0,0-.01-.01-.02,0,0,0,0-.01,0-.02,0,0,.02-.01.02,0,0,0-.02,0-.02,0,.02-.04.02-.02.04ZM348.9,52.11s0-.02,0-.04c-.01,0-.04,0-.02.01.02,0-.02.02.02.02ZM348.97,52.22s0-.01-.01-.02c0,0,0,0,0,0,0,0,.01.02.02.01ZM349.08,52.1s-.02-.02-.03-.03c0,.04-.07,0-.06.03,0-.01.02.02.02.02-.01,0-.01.01-.02,0-.01.03.02.03.02.05-.03-.01-.02,0-.04,0,0-.02.01-.01.01-.03,0-.02-.04,0-.04-.03,0,0,0,.01.02,0,0,0,0-.01-.02-.01,0,.02-.03.02-.05.02,0,.04.04.04.07.04.01.02.02.02.02.04.04,0,.05-.02.09,0,0-.03.03-.03.01-.04-.02.01-.05,0-.05-.02.03-.01,0-.03.01-.05,0,.02.02.01.02.02-.02,0,0,.05.02.04,0-.02-.02-.05.01-.06ZM349.09,51.52s0-.04.02-.06c-.02,0-.02-.03-.03,0,.02,0,0,.03-.02.03.02,0,.02.01.03.03ZM349.25,52.16l-.05-.02s-.01-.03-.01-.04c-.03,0-.03-.01-.05-.01,0,.02,0,.05.02.04-.01,0,0-.03.01-.02-.01.02.01,0,0,.05-.02-.01-.02,0-.04,0,0,0-.01-.04-.02-.03.01,0-.02.02-.02.02.04.01,0,.04.02.06,0,0,0,0,0,0,0,0,0,0,.01,0,0,0,0-.03,0-.02-.01.02.01.02.01.03.01-.02-.01-.05.01-.06.02,0,0,.02,0,.02,0,0,.01,0,.02,0,0,0-.01-.03,0-.02,0,.02,0,.04-.02.05.01.02.03-.01.05,0-.02-.03.02-.01.03-.04ZM349.26,52.1s-.02.02-.04,0c0,.01,0,.02,0,.03.02,0,.03,0,.04,0-.01,0,0-.02,0-.02ZM349.27,51.5s0,0,0,0c0,0,0,.01-.01,0,0,0-.02,0,0,0,0,0,0,.01.02.02h0ZM349.79,52.13s-.02,0-.03,0c0,0,.01.01.02.02,0,0,.02-.02,0-.03ZM349.67,52.05s0,.02.02.04c-.02,0-.04-.01-.04-.03-.03.02.08.04.08.04,0,0,0-.02,0-.02.01,0,.03,0,.04,0,0-.01-.01-.03-.02-.02.01-.02-.01-.02,0-.03,0,0,.01.01.02,0-.02-.01.01-.01.01-.02h-.01s0-.01,0-.01c0,.03-.02.02-.04.02,0,0,.02.01.01.02,0,0-.01,0-.02,0,0-.02-.02-.04-.04-.01ZM349.65,51.88s.05.04.08.05c0-.02,0-.03,0-.05,0,.01-.01,0-.01.03-.04,0-.03-.04-.05-.05-.01,0-.01.02-.02.02ZM349.62,51.95s.03,0,.03.01c0-.01.02-.01.02-.02-.03-.01-.03,0-.06-.02-.02,0,0,.02,0,.03ZM349.59,51.91s.02,0,.02,0c0-.02,0-.02-.01-.04,0,.01,0,.02-.01.03ZM349.56,51.97s.04-.03.02-.04c0,.03-.02.02-.03.04,0,.02.02.02.04.01,0-.02-.03,0-.03-.02ZM349.56,51.92s.02-.03,0-.04c0,0-.04,0-.02.01,0,0,0,0,0,0,0,.01,0,.02,0,.03ZM349.56,51.84s-.05.01-.02.03c0-.02.01-.02.03-.02,0,0,0-.01,0-.02,0,0-.02.01-.02,0,0,0,0,0,0,0,0,0-.01,0-.02,0,0,.02.02,0,.02.03ZM349.52,51.61s0,0,0,0c0,0,0,.01,0,.01.01,0,0-.02,0-.03,0,.01-.01.02,0,.02ZM349.52,51.75s.02,0,.02,0c-.02,0-.01-.03,0-.01,0-.01,0-.02-.01-.02,0,0-.03.03-.01.04ZM349.52,51.9s.02,0,.03.03c0-.01.01,0,.02-.01-.03,0-.03-.03-.03-.05,0,.01,0,0-.01,0,.01,0-.01.02,0,.03ZM349.45,51.64s0-.02.02-.03c-.03,0-.02.03-.02.03ZM349.42,51.64s0,.02.02.03c0,0,0,0,.02,0,0,.02.01.02.01.04.01-.02.04,0,.06,0,0-.02-.05-.01-.05-.02,0,0,.01,0,.02,0,.01,0,.02.03.03.01,0-.01-.02-.02-.01-.03,0,0,0,0,0,0,0,0-.03.03-.03.01.02,0,.02-.02.02-.03-.03.05-.04,0-.08.02ZM349.41,51.6s.01,0,.03,0c0-.01,0-.02,0-.03,0,0,0,.02-.02.02,0,0,0,0,0,0ZM349.39,51.61s0,.02,0,.02c.01,0,0,0,0-.02,0,0-.01,0-.02,0ZM349.4,51.9s0,.02,0,.03c.03,0,.02,0,.02-.03,0,0,0,0-.01,0ZM349.36,51.75s-.02-.02-.03,0c.01,0,.01.01.02.02h0ZM349.36,51.95s-.01.03,0,.03c0-.02.01-.01.02-.03,0,0-.02,0-.02,0ZM349.35,51.62s.02,0,.02.01c.02-.02-.02-.01-.01-.02.02,0,0-.03,0-.01.01,0-.01.01,0,.02ZM349.33,51.63s.02.03.02.03c-.01,0,0-.02,0-.02,0,0-.01,0-.02,0ZM349.32,51.95s.01.03.02.01c0,0-.01-.03,0-.02,0,0,0,.01.01,0-.01,0-.01-.01-.02-.01,0,0,0,0,0,.01ZM349.28,51.79s.04.03.04.01c-.02.01-.01,0-.02-.02,0,0-.01,0-.02,0ZM349.35,52.2s-.04,0-.02-.01c-.01,0-.03,0-.03.01.02,0,.06,0,.05,0ZM349.48,52.28s-.02,0-.02,0c0,0,0,.02,0,.02,0-.02.02,0,.02-.02ZM349.7,52.24s-.02-.01-.03-.02c.02-.01-.02-.02-.01-.05.03.01.03-.02.06,0-.02-.03-.03-.07-.08-.05,0,0,0,0,.01.01-.01.03,0,.01.01.03-.03,0-.01-.01-.04-.02,0,0,0,.03-.01.03,0-.03-.03,0-.04,0,0,0,0,0,0-.01.03-.03.06-.06.08-.1-.03.01-.03-.02-.06,0,.02,0,0,.03.01.04,0,0,.01,0,0-.02,0,0,.02,0,.02,0-.03.02-.05.09-.1.08,0,0,0-.01,0-.02.02.01.02,0,.04,0,0-.02,0-.03-.02-.03,0,.02-.02.03-.03.03,0-.01,0-.03-.01-.04,0,0-.02,0-.04,0,0,.01.01.03.02.03-.01-.02.01,0,.01,0,0,0,0,0,0,0,0,.01.01.04,0,.06-.01-.02-.01-.04-.02-.02,0,0-.01-.04-.02-.03,0,0-.02,0-.03.02-.04-.02-.05,0-.07-.02,0,0,.01.03,0,.03-.01,0,0-.03-.02-.04,0,.02,0,.02,0,.04.02.02.04.02.06.02-.02.01,0,.04-.02.07,0,0,0,0,.02.01,0-.02.03-.02.03-.05,0-.01-.03,0-.02-.03.02.03.03-.02.05,0,0-.01,0-.01,0-.03,0,0,.02,0,.02.01-.02.02-.02.04,0,.05-.02,0-.02.01-.04,0,0,.03.03.04.01.06.05,0,.08,0,.13.01,0-.03.03-.04.04-.05.01.05,0,.07,0,.11.01-.03.04.02.05,0-.02-.02.02,0,.01-.04.03-.01.01,0,.05-.03ZM349.7,52.36h-.02s-.02-.03,0-.02c0,.01,0,.02,0,.03.01,0,.02,0,.03,0ZM349.74,52.39s0-.02-.02-.03c0,.01,0,.03-.02.03.02.02.01-.02.02-.01,0,0,0,0,0,0ZM347.44,52.86s0,.02,0,.02c.03.02.09.04.11.09,0,0,0,0,.03,0,.01.01,0,.01,0,.03.01,0,.03.01.03,0-.06-.05-.11-.09-.17-.12ZM347.3,52.78s-.01-.01,0-.02h-.02s.01.03.02.02ZM349.63,50.97s.02-.02.01-.04c0,.03-.02,0-.05.02,0-.01.01-.03,0-.02-.03.04-.02.08-.07.08.03.01.01,0,.02.03.01-.01.03,0,.05-.02,0,0,0-.01,0-.03.03,0,.04.01.07,0-.02,0-.03,0-.03-.02ZM349.49,52.2s.02-.03.03.01c.01,0,.01-.02,0-.03,0,0-.02,0-.03,0,0,0,0,.02-.01.02ZM348.83,50.05s0-.02-.02,0c0,0,.01,0,.02,0ZM348.84,50.06s0,0,0,0c0,0,0,0,0,0,0,0,0,.01,0,0ZM349.74,51.37s-.01,0-.02,0c.01.02,0,0,.02,0,0,0,0,0,0,0ZM349.87,52.02s0,0,0-.01c0,0,0,0,0,0-.01,0,0,0,0,.02ZM349.72,52.48s.02,0,.03,0c0-.01.01,0,0-.02-.01,0-.05.01-.03.02ZM349.54,51.3s0,0,0,0c0,0,0,0,0,0,0,0-.01,0-.01,0ZM348.88,50.08s-.01,0-.01,0c0,0,.02.04.03,0-.04.01,0-.03-.02-.02ZM348.95,50.04s0,0,0,0c0,0,0,0,0,.01,0,0,0,0,0,0ZM349.04,49.9s0,0,0,0c0,0,0,0,.01,0,0,.01-.01,0-.02,0ZM349.08,50.06s0,0,0-.01c0,0,0,0,0,0,0,0,0,.01,0,.01ZM348.12,49.88s.02,0,.02.02v.02s-.04,0-.03,0c0,0,.02.01.03,0,0-.01.01-.03,0-.03-.01,0-.02-.01-.03,0ZM349.51,50.54s0,0-.01,0c0,0,0,0,0,0,0,0,0,0,0,0ZM349.54,50.52s.02,0,.02-.01c-.03,0-.02,0-.04,0,.02.02-.01.02-.01.04.01,0,.02.01.04,0,.01-.02-.01-.02-.01-.03ZM349.69,50.28s0,0,0-.01c0,0,0,0,0,0,0,0,0,.01,0,.01ZM349.26,50.13h0s0,0,0,0c0,0,0,0,0,0ZM349.75,52.56s.03.02.04,0c0-.01-.05-.03-.04,0ZM349.59,51.5s0-.02.02-.02c-.02,0-.04.01-.02.02ZM349.19,50.83s-.05,0-.08-.03c0,.03,0,.02-.02.05.04-.02.05-.02.09,0,0,0,0,0,0-.01ZM349.71,51.25h-.02s0,.02.01.03c0-.01,0-.02,0-.03ZM348.85,50.89s.03.02.04.02c-.02,0,0-.04-.02-.05,0,0-.01.02-.02.02ZM349.13,50.78s.05.03.05.04c-.01-.06-.03-.01-.05-.04ZM349.15,50.89s0-.05-.02-.04c.03,0,0,.03.02.04ZM348.93,50.84s0-.04.02-.03c.01.02.01.04.04.05,0-.04-.04-.05-.05-.07,0,.03-.03.03-.01.06ZM349.83,52.36s.01,0,.02,0c0,0,0-.01.01-.01-.02-.02-.03,0-.05-.03,0,.02.02.03.02.05ZM349.86,52.14s-.03,0-.04.03c.01,0,.02.01.02.02-.01-.01-.04,0-.02.01.02-.01.04,0,.04,0-.03-.02.03,0,.01-.03,0,0,0,.02-.02.01.01,0,0-.03,0-.04ZM349.53,51.52s0,.03.02.03c0-.03,0-.03.02-.04-.02-.02-.02.02-.03.02,0,0,0,0,0,0ZM349.81,51.97s-.01,0-.01,0c.01,0-.01.03.01.02,0,0,.02-.03,0-.03ZM349.2,51.42s0-.03,0-.05c0,.03-.03.03,0,.05ZM349.5,50.78s0-.01.02-.03c-.02-.01-.02-.04-.05-.04.02,0,0-.02,0-.03.02,0,.02.02.04,0,0,0-.01-.02-.02-.03,0,.02-.05,0-.06,0,0,.03.02.03.04.02v.03s-.02,0-.03,0c0,0,0,.01,0,.02,0,0,0,0,0-.02,0,.01.04,0,.04.03,0-.01-.01-.01-.02,0,0,.02.02.03.04.04ZM349.54,50.95s-.02,0-.02,0c.02,0,.03,0,.02-.01,0,0,0,0,0,0ZM349.23,50.89s.02,0,.02-.01c-.03-.02.04-.02,0-.04-.03,0-.02.03-.05.02,0,.02,0,.02.02.03ZM349.47,50.56s0,0,0-.01c0,.02-.02.04,0,.04,0-.03,0-.01.03,0,0-.02-.01-.03-.02-.03ZM349.4,50.72s.03.02.02.03c0,0,0,0,0-.01,0,0,0,0,0,0,0-.01-.01-.04-.03-.02ZM349.44,50.74s0-.01,0-.02c0,0,0,.01,0,.02,0,0,0,0,.01,0ZM349.39,50.68h0s.02.02.03.01c0,0,0-.01-.01-.02,0,0,0,0,0,0ZM349.56,50.65s-.01.01-.01.03c.02,0,0,.03.03.03.01-.01,0-.02.02-.03,0,0,0,0,0,.01,0-.03-.03-.01-.05-.02,0,0,0,0,0-.01,0,0,.01-.01.02-.01-.02,0-.03,0-.04-.02,0,.03,0,.03.02.02ZM349.59,50.53s-.03.06,0,.04c0-.02.02-.03,0-.04ZM349.54,50.58s.02,0,.02,0c-.01,0,0-.02,0-.03,0,.01,0,.02-.02.03ZM349.57,50.96s-.02,0-.01-.02c0,0-.01,0-.02,0,.02,0,.02.03.03,0ZM290.87,59.66s0-.01,0-.02c0,0,0,.01-.02,0,0,.01,0,.01.02,0ZM292.36,59.32s-.02,0-.02.01c0,0,.01-.01.02-.01h0ZM290.54,59.6s0,0,0,0c0,0,0,0,0,0,0,0,0,0,0,0,0,0-.01,0,0,.01ZM290.21,60.51s-.02,0-.04,0c0,0,0,0,0,0,.02,0,.03.01.04,0ZM290.7,64.13s0,0,0,0c0,0,.01-.01.02-.02,0,0,0,0-.01,0,.01.01-.01,0-.01.01ZM290,60.53s-.02.02-.02.03c0,0,0,0,0,0,0,0,.02-.02.02-.03ZM291.56,62.1s0,0,0,0c0,0,0,0,0,0,0,0,0,0,0,0ZM290.92,62.39s0,0-.01,0c0,0,.01.01.02.02,0,0,0,0,0,0,0,0,0,0,0-.01ZM297.98,58.44c.42.94.63,1.95.63,3.04s-.31,1.98-.92,2.67c-.62.7-1.35,1.24-2.19,1.63-.85.39-1.72.66-2.61.81-.9.15-1.63.23-2.19.23-2.81,0-3.52-.47-4.46-1.41-.94-.94-1.4-2.28-1.4-4.03,0-.44.1-.95.3-1.53.2-.57.48-1.14.85-1.71.36-.56.8-1.09,1.3-1.59.5-.49,1.05-.89,1.63-1.19.2-.1.37-.06.5-.23.13-.17.3-.25.47-.38.13-.09.34-.22.48-.34.14-.12.31-.18.51-.18,1.09,0,1.93-.22,2.89.16.96.38,1.79.92,2.51,1.6.72.68,1.29,1.49,1.71,2.43ZM291.12,63.81s-.02,0-.01.02c0,0,.01.01.01,0-.01,0,0,0,0-.02ZM291.15,63.87s-.01,0-.02,0c0,.01-.01,0,0,.01.01,0,.04-.01.03-.01ZM291.27,63.77h-.01s0,0,0,0c0,0,0,0,0,0ZM291.52,63.21s0,0,0,0c-.02,0,0,.02-.02.01,0,0,0,0,0,0,0,0,0,0,.01.01.01,0,0-.01.02-.01h0ZM297.17,61.23c0-.31-.09-.75-.26-1.34-.17-.59-.42-1.17-.75-1.74-.33-.58-.72-1.08-1.18-1.5-.46-.42-.99-.63-1.59-.63-.15,0-.36.05-.63.16-.27.1-.55.23-.84.36-.29.13-.57.25-.84.36-.27.11-.48.16-.63.16-.17,0-.26-.02-.26-.06,0-.02,0-.04.01-.06,0-.02.01-.04.01-.06,0,0,0-.02-.02-.03-.07,0-.11-.01-.14-.03-.03,0-.07,0-.11,0-.33,0-.69.18-1.08.55-.39.37-.76.79-1.11,1.28-.35.49-.64.98-.88,1.48-.24.5-.36.89-.36,1.18,0,1.09.34,2.01,1.01,2.74.45.48,1.03.81,1.74.97,0-.01-.01-.09-.02-.1,0,0,.02-.02.03-.02.01-.03,0-.07-.02-.09.02,0,.03.02.06.02,0-.02-.02-.01-.01-.04.12-.05.2-.16.38-.17.03,0,.06,0,.09,0,.04,0,.06-.06.09-.08.02,0,.03-.01.04-.02.04-.02.09-.01.13-.02.03,0,.05-.03.08-.04.1-.05.21-.07.34-.1,0,0,0-.02.02-.03.02-.06.06-.1.09-.15,0,0,0,0,.02,0,.02-.03.06-.05.1-.06.01,0,.03,0,.04,0-.02,0,0-.02,0-.02,0,0,0,0-.01,0,0,0,0-.01.02-.01,0,.03.02.02.03.03,0,0,.02-.03,0-.03.05,0,.11,0,.15-.01,0,.01-.02,0-.02.01.02.01.06,0,.07-.02,0,0,.01.02.03,0,0,0-.01,0-.02,0,0-.01.02,0,.02-.02,0,0,0,0,0,0,.03-.01.08-.02.12-.02.02-.03-.01-.04-.01-.06,0,0,0,0-.01,0,0-.05,0-.11-.01-.15,0-.01,0,0,0,0,0-.01,0,0,0-.01,0,0,.01,0,.01,0-.01-.02.01-.05-.01-.08,0,0,0,0,.01,0,0-.05.03-.07.05-.09,0,0,0,0,.01,0,0-.01,0-.02,0-.03.06-.04.1-.1.16-.13,0,0,0,0,0,0,.04-.04.07-.08.11-.12,0-.01,0,0,.01,0,.01-.06.07-.08.07-.14.04-.03.04-.1.08-.12,0,0,0,0,0,0,.04-.03.08-.08.13-.07,0,0-.01,0,0-.02.06-.03.09-.05.15-.07.01-.02.03-.02.04-.04.09,0,.11-.07.2-.08.05,0,.12,0,.16.02.05,0,.08.01.1.03.02,0,.02,0,.04,0,0,0,0,.01,0,.02.09.04.19.07.31.06,0,0,0,0,.01-.02,0,0-.01,0,0,0,0-.06.05-.12.01-.19-.02-.03-.04-.06-.06-.08h-.02s-.01-.01,0-.02c-.08-.01-.11-.08-.18-.11-.08-.01-.1.05-.16.05-.04,0-.07,0-.11,0h0s-.05-.03-.08-.04c-.04,0-.07.02-.11.02,0,0,0,0,0,.02,0,.01.02,0,.02.02-.02,0,0-.01-.02-.01,0,0,0,0,0,0,0,0,0,0,0,0h0s0,0,0-.01c-.01,0-.02,0-.03,0-.05,0-.1.02-.16.02-.02.01-.06.02-.1.02-.06.02-.12.04-.18.03-.03,0-.07.02-.09.02-.01,0,0-.01,0-.01-.03,0-.07-.03-.08.02,0-.01-.03,0-.03-.01,0,0,0,0,0,.01-.02-.01-.04-.03-.06-.03,0,0,0,0,.02,0,0,0-.01,0-.02-.01-.01,0,.01.02,0,.02-.01,0,0-.01,0-.02-.02,0,0,0-.02.02-.01-.01-.04,0-.05,0,0-.01-.02-.01-.03-.02,0,0,0,0,0,.02-.01,0-.02,0-.03-.02,0,0,0,.01,0,.01-.01,0,0-.01,0-.02,0,0,0,.01,0,.02,0,0,0,0-.01-.02,0,.02-.02,0-.03.01-.02,0-.03,0-.04-.02,0,.02-.03,0-.03,0,0,.03.05.04.08.05-.03,0-.05-.01-.07-.02h0c-.05-.03-.07-.13-.09-.17,0-.01,0,0,.02,0-.02-.03-.05-.05-.07-.07-.01,0-.02,0-.03,0-.04.09-.14.03-.23,0-.03.05-.13.06-.19.03-.02-.03-.04-.05-.06-.08-.03-.03-.05-.07-.08-.09.02.01.04.03.05.04,0,0,0-.01,0-.02-.02-.02-.04-.05-.05-.08,0,0-.01,0-.02.01,0,.02-.03.03-.05.04-.02.01-.03.03-.05.04-.04.04-.09.08-.13.12,0,.01-.01.02,0,.05,0,0-.02,0-.02,0,0,0,.02,0,.02.01,0,.01-.01,0-.01.01.02.02-.01.02,0,.05-.02,0-.05,0-.06.01-.08-.03-.12.09-.18.11.03-.04.05-.08.09-.11,0,0,0,0,0-.02-.02,0-.04,0-.07,0,0,0-.01,0,0-.01-.05,0-.12.02-.16-.01,0,0,.02,0,.03-.01-.01,0-.02-.02-.04-.03,0,0,0,0-.01.01,0-.01-.02,0-.03,0-.05,0-.12,0-.17-.02-.02,0-.03,0-.05,0-.05.01-.07.07-.11.1-.06.02-.1.08-.11.15-.02.01-.03.01-.04,0-.02,0-.03.03-.04.05-.02,0-.02,0-.04,0,0,0,0,.01-.01.02-.04.01-.08.04-.11.05,0,0-.01.02-.01.03-.08.02-.15.01-.25.03-.01.02-.06.07-.02.1-.01,0-.02-.01-.03-.01,0-.03.02-.04.01-.07-.03,0-.05.02-.06.05-.03-.01-.03.02-.05.02-.02.01-.03.03-.04.04-.05-.02-.09.03-.14.03,0-.03.02-.04.03-.06,0-.01-.01,0,0-.02.03-.04.06-.11.11-.13,0,0,0,0,0-.02,0,0-.01,0-.02,0,.01-.03.04-.01.07-.03,0,0,.01-.02.02-.02.01-.01.09-.05.11-.06,0,0,.01,0,.02,0,0-.04-.04-.09-.07-.1,0,0,0,0-.01,0,0,0-.02,0-.01,0-.02,0-.12.03-.16.02-.04-.05-.09-.08-.13-.13,0-.04.03-.07,0-.11-.1,0-.08-.1-.12-.15,0,0,.01,0,.03,0h0s-.04,0-.04-.02c0,0,0,0-.02,0,0-.01,0-.01,0-.02-.02.02-.01.03-.03.06-.02,0-.03,0-.03.02-.02-.01-.05,0-.06-.01,0-.06-.03-.1-.07-.12-.01,0,0,0,0,.02,0,0,0-.01-.01-.01,0,0,0,0,0,0-.01.05.09.08.07.13,0,0,0,.02.01.02,0,.02-.03.01-.04.02-.03-.03-.06-.06-.09-.08,0,.01.01.02.01.04,0,.01-.01.03-.01.04,0,.02.02.03,0,.05-.02-.02-.05,0-.07-.03-.01,0-.01,0-.01.02h-.02s.03.05.03.08c-.04,0-.05-.04-.08-.05.02.02,0,.05.01.07-.02.04-.07.04-.09,0-.02.01-.02.03-.04.04-.03,0-.03,0-.04-.02-.03.01-.02.04-.04.05,0,.05-.05.09-.09.08-.04,0-.07-.04-.1-.07.02,0,.08,0,.1-.01,0-.02-.01,0-.02,0,0-.03-.03-.04-.04-.07,0-.03.01-.04,0-.06.04.02.08.04.1.07,0,0-.01.02,0,.03,0,0-.02,0-.02.01.02.02.03-.02.05-.03,0,0,0-.02,0-.03-.02-.03-.02-.07-.04-.1.03,0,.05.03.08.04,0-.03-.02-.07-.04-.09,0,0,.03.01.04.02,0-.03-.02-.06-.03-.08,0-.01,0,0,.01,0,0-.04-.03-.11-.02-.14,0,0-.01-.02-.02-.03.04.02.07.06.11.09,0-.02,0,0,.02,0,0-.07-.02-.14-.04-.21.02.02.06.03.08.06,0-.04,0-.08-.02-.12.01,0,.02,0,.02,0,.05-.02.06.05.1.06,0-.02-.03-.04-.03-.07.02,0,.03.01.04.02.05,0,.08.04.13.06-.02-.08-.03-.14-.07-.2,0,0,0,0,0,0,0,0,0,0,.01,0,0,0,0-.02,0-.02,0,0,.02,0,.03,0,.01,0,0-.04,0-.06,0,0,.01,0,.01-.01.04.02.04.05.07.07,0-.04.01-.1,0-.15.02,0,.03.04.05.03,0-.02.01-.05.02-.08,0,0,.01.02.02.02.01.04.04.06.05.1.02,0,.02-.03.04-.04.02.01.02,0,.04,0,0,0,0,0,0,0,0,0,0-.02.02-.02.01,0,0,.02.02,0,0,0,0,.02,0,.03-.02,0-.02.03-.03.04,0,.04.03.07.04.11.01-.04,0-.11,0-.15.02.02.04.05.04.06.02-.01,0-.04,0-.05.02.01.05.03.06.05,0-.03,0-.07,0-.1,0,0,.02.01.02.02,0,0,0,0,.01,0,0,.05.04.08.05.12.01-.02,0-.04,0-.06.02,0,0,.03.02.03.01,0,0-.02,0-.02,0,0,0,0,0,0,.01-.01,0-.07,0-.09,0-.01.02.03.02,0,.03.04.05.08.08.12.03.04.07.08.1.11,0,0,0,0,0,0-.02-.02-.05-.05-.06-.07-.01-.02-.02-.06-.05-.06.01-.02.03,0,.04,0,.01,0,0-.01,0-.01,0,0,0-.02,0-.03.01.01.03.02.04.04,0,0,0,0,0,0,0-.03,0-.08-.01-.1.02.02.04.05.06.07,0-.02,0-.04,0-.06,0,0,0,0,0,0,0-.02,0-.06,0-.08,0,0-.01-.03,0-.02,0,.01,0,.02.01.03,0-.02.01-.06.01-.1.03.05.07.08.1.12,0-.04.04-.08.02-.11,0,0,0-.02,0-.03,0,0,0,0,0,0,0-.02-.03-.03-.03-.05.01-.03.03-.05.03-.08.02-.02,0-.08.03-.09-.02-.01,0-.03,0-.05.03.05.04.12.03.16.03-.05.08-.1.07-.18.02,0,.05.03.06.06,0,0,0,0,0,0,0,0-.01,0-.02,0,0,.01.01.01.02,0,0,.02,0,.06,0,.09.01,0,.01,0,.02-.02,0,0,0-.01,0-.01,0,0,0,0,0,0,0,0,0,0,0,0,0,0,0,0,0,0,.02.03.05.05.06.07,0-.03,0-.06,0-.09.02.02,0,.04.03.05,0-.01,0-.02-.02-.04.02.04.07.06.09.11.01-.04.01-.07.01-.12.01,0,.02.03.03.04,0-.03.02-.06.02-.07.02.01.02.04.04.06,0-.02.02-.03.03-.05,0,0,0,0,0,0,0,0,0,0,.01,0,0,.03.02.05.02.09.03-.02.04-.07.07-.1.02.03.03.03.03.08.02-.01.02-.06.04-.06,0-.01,0-.03,0-.04,0,.02.04.06.05.1,0,0,0,0,0-.02.02.03.03.06.04.1.03-.02.03-.07.07-.07,0-.02.01-.03.02-.04.03.06.06.13.04.21.01-.01.03-.02.03-.04.01.01.01.04.02.05,0-.01.03-.02.02-.05.02.02.03.05.04.08,0,0,0,0,0-.02,0,.03,0,.08,0,.11-.01.03-.03.05-.03.09.03-.02.02-.06.04-.09.02,0,0,0,.02-.02.02.04.02.1.03.13,0,.01,0,.01,0,.02,0,0,0,.05,0,.06.01,0,0,.04-.01.05,0,.03-.03.05-.04.08-.02,0-.02-.02-.03-.03,0,0,0,0-.01,0h0s0,.01,0,.02c-.05.08-.16.11-.27.11,0,0,0,.03-.01.04.04.04.04.11.03.16.02,0,.04,0,.05,0,0,0,.02,0,.02,0,.05,0,.09-.01.14-.02.06-.01.14,0,.2-.02,0,0,.01,0,.02,0,.03,0,.06,0,.09,0,.05,0,.08-.04.12-.06.1-.07.13-.2.21-.29,0,0,0-.01,0-.02.05-.05.07-.11.11-.15.02-.05.08-.1.1-.16.07-.06.14-.14.23-.19.04-.04.09-.06.14-.09-.03-.03-.08-.04-.11-.07-.02,0-.07,0-.09-.01,0,0-.01.01-.03.01,0,.02.03,0,.03.02,0,0-.01,0-.02,0,0,0,.02,0,.01,0,0,.01-.02,0-.02,0,0,0,0,0,0,0,0,0-.02,0-.03-.01,0-.02,0-.05,0-.06-.04-.03-.1,0-.16,0,0,.01-.03.02-.05,0,0,0,0,0,0,.01-.02-.02-.05.02-.08.03-.06.04-.15.07-.2.12,0,0,.01-.02.01-.04-.04,0-.09.04-.13.04-.03-.02-.06-.04-.08-.08.02-.04-.02-.06,0-.1-.02-.04-.05-.07-.06-.12-.04,0-.09,0-.12,0-.02,0-.04-.02-.06-.02-.04,0-.07.03-.1.03-.03,0-.05-.02-.07-.04.03,0,.05,0,.07-.01,0,.01-.02,0-.03.02.05.02.12-.01.16-.03-.03-.04-.03-.08-.05-.12.01-.02.01-.04,0-.06.02,0,.02.02.03.02.01,0,0-.02.02-.01.02.02.03.05.06.07,0,0,0-.01,0-.02.02-.02.04-.03.05-.06h.02s0,0,0,0c.03,0,.04-.03.07-.04,0,0,0,.01,0,.01.05-.02.07-.06.09-.1,0,.02-.02.04-.02.07-.05.01-.06.06-.1.07,0,.03,0,.06-.03.07,0,.03.02,0,.03,0-.01,0-.01.06-.04.07.02.04.09,0,.12.03.01,0,.01,0,0-.02.01,0,0,.02.03.02,0-.02.03-.06.05-.07,0,0,0-.01-.01,0,.01-.03.03-.04.05-.05,0-.01-.01,0,0-.02.02,0,.05-.03.07-.03.03-.04.07-.06.11-.09,0-.01-.01-.02-.03-.01,0-.03-.03-.04-.06-.06-.04.02-.07.02-.11,0h0s-.03-.02-.04-.03c-.01,0-.01,0-.03,0,0,0,0,0,0-.01-.02,0-.03-.01-.04-.02-.01,0-.02,0-.03,0-.04-.02-.02-.08-.04-.11.02.03.03.08.06.09,0-.02-.03-.04-.03-.05.02,0,.02.03.04.05h0s0-.02,0-.03c-.03-.02-.05-.05-.06-.08,0,0,0,0,0,0-.05-.04-.08-.08-.14-.09,0,0,.03,0,.03-.02.01,0,.02,0,.04,0-.02-.04-.05-.07-.09-.08,0-.01.01,0,.02,0,0,0,0,0,0,0,.05-.01.11.02.16.04,0,.01,0,.01.01.02-.02.04.04.06.06.08,0,0,0,.01,0,.02.02.02.05.04.06.07.03.01,0,.03.01.06,0,0,0,0-.01,0,0,0,0,.01,0,.02.01,0,0,.02,0,.03.01,0,0-.02.01-.02,0,.01,0,.01,0,.02.05.03.11.01.16.02.01.03.06.03.07.06,0,0,.02,0,.03,0,0-.01-.03-.01-.04-.02.02-.01.02.01.04,0,.04,0,.11-.13.1-.16,0-.01-.02-.02-.03-.02,0-.02-.02-.03-.02-.06,0,0-.01-.01-.02-.02,0,0-.01,0-.03,0,0-.01,0-.01,0-.02-.01,0,0,0-.01.02-.01-.02-.06-.02-.07,0-.01,0-.03,0-.04-.01-.02.02-.02.04-.03.06,0,0,0-.02-.02-.03,0,.01-.02,0-.02,0,0,.01.02,0,.01.02-.03,0-.04-.02-.05-.04,0,0-.01,0-.01,0-.01,0,0,0,0,.01-.03-.06-.09-.1-.13-.16-.06,0-.08-.07-.12-.11,0-.02-.01-.02,0-.04.02.01.05.02.08.03,0,0-.01-.02,0-.02,0,0,.02.02.03.03,0,0,0,0,0-.01.01,0,.02.01.04,0,0-.02-.01-.03-.01-.04,0,0,0,0,0-.01,0-.01,0-.03-.02-.04,0-.02,0-.05,0-.09.04.03.06.05.1.08,0-.03-.02-.07-.02-.09,0,0,0,0,.01,0,0,0,0,0-.01-.01.01-.03-.02-.07,0-.08,0,0,0,0,0-.02.04.03.07.06.11.09,0,.01,0,.03.01.04,0-.01.02-.03,0-.06.01,0,0,.02.02.01,0-.02.01-.04,0-.06.03.04.06.07.08.12,0-.06-.02-.08-.03-.15.02,0,.03.03.04.04,0-.07,0-.12,0-.18.02.02.03.05.06.05,0-.01.01-.01,0-.03.03.04.06.09.09.14,0,0,0,0,.01,0,0,0,0-.03.02-.03,0,0,0-.03,0-.05h0s0-.02,0-.02c0,0,.02.02.02,0,0,0,0,0,0,0,0,0,0,0-.01,0h0s.04.01.04-.01c.01,0,.01,0,.02,0,0,0,0,0,0,0,.02-.01.02-.03.03-.04,0,0,0,0,0,0,0,0,0,0,.01,0,0,0,0,0,0,0,0,0,0-.01.01-.01,0,0-.01,0-.02-.01,0-.01.01,0,.02-.01,0,0,0,.02.01.01,0,0,0,0,0,.02.02,0,.02.03.04.03,0,0,0,0,0,0,0-.02,0-.02,0-.04.04.01.02.09.06.08,0,0,0,0-.01,0,0,0,.01,0,0,.02.02-.01.02-.04.04-.05,0,0-.01,0,0-.02.01,0,.01-.02.02-.03,0,0,0,0,0,0,0-.01,0,0,0-.02.01,0,0,.01.02,0,0,0,0,0,0-.02.03,0,.04.04.05.06.02,0,.03.04.05.05-.01,0-.02,0-.02,0,0,0,0,0,0,0,0,0-.02,0-.02,0,0,.01.01,0,.01,0,0,.01,0,0-.01,0,0,.01,0,.02.01.02.01,0,0,0,0-.01.01,0,.01,0,.02,0,0,.01.01.03.02.04,0,0,0,0,.01,0,0,0-.01,0-.02,0,0-.01.01,0,.02-.01,0,0-.01,0-.02,0,0-.01,0-.01.02-.01,0,0,0,0,0-.02,0,0,0,0,0,0,0-.02,0-.02,0-.04-.01,0,0,0-.02,0,.02-.03.03-.05.02-.08.04.03.06.09.08.14,0,0,.01,0,.02,0-.01,0,0-.01,0-.03.01.01.02.03.03.05.01,0,0-.01.01,0,0,.03.02.05.03.09.02-.03,0-.08.03-.1,0-.02,0-.03.02-.04,0,0,0-.01,0-.02.02.03.04.07.06.11-.02.05.02.11,0,.18.03-.02.04-.04.05-.09.02.03.02.07.04.11,0-.02.02-.04.02-.07.02.04.04.1.03.16,0,0,0,0,.01,0,0,.03-.01.05-.02.07-.02-.01.02-.03,0-.04-.02.02-.02.11-.07.09,0,0,0,0,0,0-.02-.01-.03,0-.05,0,0-.02,0-.03-.02-.05-.01,0,0,.01-.02.01,0-.01,0-.02,0-.03-.02,0-.04,0-.07,0,0-.09.02-.17.05-.24,0-.01-.03-.01-.04,0,0,.08,0,.15-.05.21-.02,0-.02.02-.03.03-.01,0-.02,0-.03,0,0,0,0,0,0-.01-.02.02,0,.07-.02.1-.03,0-.03,0-.05,0,0-.03,0-.08,0-.11h0s0,0,0,.02c0,0,0,0-.01,0,.01.05.01.12-.02.17-.02-.02-.03,0-.06,0,0-.02-.01-.02,0-.04t0,0s-.02.04-.03.04c-.03.02-.09,0-.12.03.03.03.03.07.02.11,0,.04.03.07.01.11-.05,0-.02.08-.02.13-.01,0-.01.02-.03.02,0,.05,0,.13.04.16,0,.04.01.06.02.09,0,0,0,0,.01,0,0-.01,0-.03-.02-.04.01,0,.04.06.07.03.01,0,.02,0,.03,0,0,0,.01,0,0-.01,0,.02.04.02.03.04.02.02.08,0,.1.03.07-.01.1-.05.15-.08,0-.02,0-.05,0-.07-.02-.01-.03-.05-.06-.06-.03,0-.05.01-.07,0-.04,0-.06-.05-.09-.06-.03-.06.01-.16.02-.24,0,0,0,.01,0,.02.01,0,.02-.02.02-.03,0,.01,0,.03-.01.05,0,.04-.01.09.02.13.01,0,.02.01.03.02.02,0,.04,0,.04.02.02,0,.04,0,.06,0,.01,0,.02-.03.03-.05,0,0,.01,0,.02,0,.04-.03.06-.09.07-.13.01,0,.01,0,.02,0-.02-.12-.08-.2-.16-.28.07.05.14.11.18.19-.02.04.01.07.01.11,0,.01-.02.08-.03.09,0,.01-.02.01-.02.03-.03.02-.05.04-.07.07,0,0,0,0,0,0,0,0-.01,0-.02,0,.03.06.04.11.03.18h0s0,.03,0,.06c-.08.03-.13.07-.23.08,0-.01-.02-.01-.02-.03,0,0,.02,0,.03,0-.04-.02-.07-.05-.12-.06.03-.01-.02,0-.02,0,0,0,.02,0,.02.02,0,.03-.03.05-.04.08.02.02.05,0,.07,0,.02,0,.02.02.04.03.03.08.12.11.19.16.08,0,.18,0,.25,0,0,0,.02,0,.02,0,.14-.01.25-.14.38-.18.05-.03.12-.05.17-.08.11-.07.27-.16.44-.2.1-.03.22-.05.32-.04.06,0,.13.03.17.07,0,0,.01.02.02.03,0,0,.01,0,.01,0,.01,0,.02.04.06.04,0-.01-.01-.02,0-.04,0-.02-.02-.03-.05-.03,0,0,0,0,0-.02,0,0-.02,0-.03,0-.01-.02-.05-.02-.06-.04-.01,0,0,0,0,0,0,0-.01,0-.01-.02-.06-.04-.1-.09-.18-.11,0-.02-.02-.04-.05-.04-.02-.04,0-.09-.01-.13-.01,0-.01,0-.03,0-.03-.1.02-.18.06-.24-.01-.06,0-.13.03-.17-.08-.1-.21.04-.29.07-.02-.02-.07,0-.08-.01,0,0,0,.02,0,.01-.02,0-.02,0-.05,0,0-.02,0-.02,0-.04-.03,0-.06,0-.07-.01-.03,0-.07,0-.1.02-.07.08-.25.04-.27-.05-.02-.01-.03-.04-.03-.06,0,0,0,0-.01.01-.02,0-.02,0-.03,0,0-.04-.03-.09-.01-.13,0,0,0-.01,0-.02,0-.04,0-.08-.01-.11,0-.01.01,0,.02.01.03.04.07.09.1.14,0,.01,0,.03.01.04,0,0-.02.02,0,.03,0,0-.02,0-.03,0,0,0,0,0,0,.02.05.08.12.18.23.14.04-.02.06-.05.11-.05.04,0,.09-.02.14-.01.04,0,.06.02.1.01.04,0,.06-.01.1-.01.03-.03.08-.04.12-.06,0-.07-.14-.04-.16-.07-.02,0-.04,0-.06,0,0,0-.01.01-.01.02,0,0,0-.01,0-.02,0,0,0,0-.01,0,0,.02-.02.04-.03.04,0-.01,0,0,0-.01-.01,0,0,.01-.02,0,0,0,0-.02-.01-.02,0,0,0-.01,0-.02.02,0,.02-.03.02-.05,0,0,0,0,0,0,0,0,0,0,0-.01,0,0,0-.01-.02-.01,0,0,0-.02-.01-.03,0,.01-.01.02-.03.03,0-.03,0-.03-.01-.05,0-.03.01-.06.02-.08,0-.01,0-.03,0-.04,0-.02,0,0,0,0,0,0,0,.01,0,.02,0,0,.02-.02.02-.03,0-.02.02-.05.03-.06.01.02.03.05.02.08.02-.03.04-.06.06-.1.03,0,.03-.04.06-.04,0,0,0-.01,0-.02-.01,0-.03,0-.05-.01,0,0,0,0,0-.01-.03-.02-.07-.06-.12-.09-.08.02-.14-.02-.2-.02,0,0,0,0,0-.01-.04,0-.06-.05-.08-.08.03,0,.05.05.08.04,0-.01-.02-.02-.03-.03.07.02.17,0,.25,0,0,0,0-.01.01-.01,0,0,0,0,0,0,0-.06.03-.13.08-.16,0-.02,0-.04.01-.05,0,0,.01,0,.03,0,.05-.07.12-.12.16-.19.02,0,0,.03,0,.04,0,.01.02,0,.02,0,0,.04-.02.06-.03.1,0,.01.02.02.03.03,0,.06-.08.05-.1.08-.01,0-.02,0-.03.02,0,0,0,0,0,0-.04.03-.07.08-.08.14,0,0,0,.02-.02.01,0,.01,0,.02-.01.02,0,0,.01,0,.02.02,0,0,0,0,.01,0,.05.07.11.15.24.14,0-.03-.02-.08-.03-.12,0-.02,0-.03-.01-.04-.01.01-.03.02-.05.04h0s-.02-.02-.03,0c-.01,0-.03-.01-.03,0-.01,0-.02-.01-.03-.01,0-.01,0-.02-.01-.02,0,0,0-.02,0-.02h.02s.04-.03.07-.05c0,0,0,0,.01-.02.04-.04.13-.07.13-.15.03.03.03.11,0,.14,0,.01,0,0,0,.02-.01,0-.02,0-.03.02,0,.01,0,0,0,.02-.01.01-.04.01-.04.04,0,0,0,0,0,0,0,0,0,0,0,0,0,0,0,0,.01,0,.03.04.05.09.08.13.05-.02.06-.06.11-.08,0,0,.02.02.01.04.02-.01.01.01.03.01,0-.02,0-.05-.04-.05,0-.03,0-.04,0-.07,0,0,0,0,0,0,0-.01,0,0,.01,0,.01-.03-.01-.07-.02-.11,0,0,0,0,0-.02,0-.02-.03-.05-.02-.07,0,0,.01,0,.02-.01,0,0-.01,0,0,0,.01-.05.05-.08.08-.11.01,0,.02,0,.02,0,.02-.03.08-.03.13-.04,0-.05-.05-.09-.08-.13-.01,0-.01,0-.02,0,0,0-.02-.01-.03-.02-.02,0-.03,0-.03-.02-.04-.02-.08-.03-.12-.05h0s.01.07-.02.08c-.02-.02-.03-.06-.08-.06,0,0,0,.02-.01.03-.05-.01-.07-.04-.13-.04,0,.02.03.02.04.03.02.03.03.04.05.07.02,0,.02-.02.04-.02.01.02.02.05,0,.07-.01,0-.02,0-.03,0-.05,0-.08-.02-.11-.04-.07-.02-.11-.07-.15-.12-.02.02.02.03.01.04-.02,0-.03-.02-.04-.03-.03,0-.07-.03-.09-.05-.02-.02-.05-.09-.04-.11,0,0-.02,0-.02-.02,0-.02,0-.02,0-.03.02.03.05.05.07.08,0-.02,0-.05.02-.06,0-.01-.02,0-.02-.01,0-.01,0-.02,0-.03.01,0,0,0,.02,0,0-.03,0-.09-.01-.12.03.05.04.12.1.15,0,.06.04.1.08.13,0,0,.01,0,.02,0-.03-.04-.08-.08-.09-.14,0-.01-.02-.02-.03-.03.09,0,.13.09.2.13.01-.03,0-.05,0-.08,0,0-.01,0,0,.02-.1-.03-.11-.15-.12-.26.03.05.07.09.09.14,0-.02,0-.08,0-.11,0-.01.01,0,.01,0,.01,0,0-.03.02-.03,0,0,0,0,0,0-.04-.03-.07-.07-.11-.1,0-.02,0-.03,0-.05,0-.01.02,0,.02.01.01.01.04.01.05.03.02,0,.04.02.06.02-.03-.06-.07-.12-.12-.16,0-.01,0-.03,0-.05.07.05.15.08.2.16,0,0,0,.01-.01.02.01.01.01.04.04.03,0,.04-.01.04-.02.07.03.05.06.1.11.13,0-.05-.05-.12-.03-.17,0-.01,0-.02,0-.03,0,0,0,0,0,0,.03.03.06.05.09.08,0-.03,0-.04.02-.08-.07-.05-.11-.15-.23-.13-.01-.01-.02-.03-.04-.04,0-.02,0-.04,0-.06.02.01.05.03.08.03,0,0,0,0,0-.02.05.02.11.06.18.07,0,0,0-.01,0-.02-.01,0-.01.01-.02,0-.03,0-.05-.03-.08-.02-.06-.01-.04-.08-.04-.13.01,0,0,.01.02,0,0-.01-.01-.02-.03-.02,0-.01.02,0,.04,0,.01.03.07.06.11.1.03.03.04.04.08.06.02,0,.04.02.06.03-.01.04,0,.06,0,.1-.04,0-.06-.02-.07-.05-.01-.01-.03-.03-.05-.04,0,0,0,.02-.01.01,0,.03.04.03.05.06h-.01s0,.05.01.08h0s.02.06.04.08c0-.02.02-.02.02-.05,0,.01.02.03.02.05,0,.04,0,.08.01.11,0-.07.02-.14.04-.2.02.05.05.07.05.13.01-.03.02-.08.01-.11.03-.01.03.03.05.04,0-.02,0-.04,0-.07.01.03.03.06.05.1,0-.01,0-.03.01-.05.01.03.02.07.05.09.01-.05.03-.09.03-.15.01.03.04.06.05.09,0,.02,0,.05.01.06,0,.01,0,.03,0,.05,0,0,.02,0,.03.01.01-.02.02-.05.04-.07,0,.02,0,.05.01.08.02,0,.02-.04.02-.06,0,.02.01.04,0,.06.01,0,.02,0,.02,0,0,0,0,0-.01-.01,0,0,.01,0,.02.01h0s.02-.04.03-.06c-.01.02-.02.05-.02.07.01.02.02.04.02.06,0-.01-.02-.03-.03-.04,0,.01,0,.03,0,.04.03.05.05.11.05.17,0,.02-.02.04-.03.06,0,0,0,0,0,.01-.02.02-.03.04-.04.06,0,0,0,0,0-.01-.01.01-.02.03-.04.03-.03.07-.1.1-.15.16,0,0,0,0-.01,0-.02.02-.05.03-.07.05,0,0,.03,0,.03,0,.05.03.13,0,.15.06,0,0,0,.01-.01.01,0,.06-.04.15.02.18.05-.01.08-.04.11-.08.02,0,.03-.01.05-.02,0,0,0,.01,0,.01,0,0,0,.01.02.01,0,0-.01,0-.02.02-.04,0-.06.02-.08.04-.05,0-.08.03-.13.03-.01-.01,0-.05,0-.07,0,0,0-.02-.03-.02.02-.03.01-.1,0-.13-.07,0-.13.05-.18,0,0,0,0,0-.01,0-.11,0-.21.09-.14.2,0,0,0,0,0,0,0,0,0,0,.02.01,0,0,0,0,0,0,.03.03.02.07.03.11,0,0,0,.02-.02.02,0,.01,0,.03,0,.04.04.04.11.05.16.08.05.01.12,0,.15-.04.07-.04.16-.05.24-.09.04-.02.07-.06.13-.04.01-.02.03-.04.03-.07.01-.05-.02-.08-.02-.13,0-.02-.01-.04-.01-.05,0-.02.02-.04.02-.05.04-.03.03-.08.06-.1.04-.02.09,0,.14,0,0,0,.01.02.02.02.04,0,.06.02.09.02,0,0,.02,0,.03,0,.01,0,.02.02.03.03.01,0,.03,0,.05.01.02.01.03.03.06.03.11,0,.19-.08.28-.09-.02-.03-.06,0-.09,0-.07,0-.11-.03-.14-.07,0-.05.03-.07.05-.11-.02-.04-.05-.07-.08-.1-.02,0-.02,0-.03,0,0,0-.02-.02-.01-.03-.03-.01-.05-.03-.07-.05,0-.03-.01-.05-.03-.07,0,0,0,0,0,0,0,.04-.03.04-.06.05-.02-.01,0-.04-.01-.06,0-.02,0-.03,0-.05,0,0-.02,0-.02,0,0,.03,0,.05-.04.06,0-.03-.01-.05-.02-.07-.02,0-.04,0-.06-.01h.04s0-.02,0-.03c-.01,0,0,0-.01-.02,0,0,0,.01-.02,0-.04-.03-.02-.13-.09-.13-.04-.05-.05-.11-.06-.18,0,.01,0,.03-.01.04-.02,0,0-.05-.03-.04,0-.04,0-.07,0-.13-.01.01-.02.05,0,.07-.04.03-.02.14-.08.13-.04,0-.04-.06-.08-.08,0-.03-.02-.04-.04-.05,0,0,0-.01,0-.02.03-.01.01-.04.01-.06-.01,0-.03-.02-.04-.03,0,0,0,0,0,.02,0,.02.02.02.03.04,0,0,0,.01,0,.01.01.02-.03.05-.01.08-.02,0-.02.04-.03.06-.02,0-.02,0-.04,0,0,0-.01-.01-.01-.03-.04-.03-.04-.09-.07-.13,0,0,0,0-.01,0,0,0,0,0-.02,0,0-.03,0-.07,0-.09,0-.02.01-.03,0-.05,0,0,0,0,0,0,0-.01,0-.03,0-.04-.01,0,0,.01-.02,0-.01.06.02.1,0,.15.01.02.02.04.02.06-.02.01,0,.05,0,.06-.02,0,0,.04-.02.06-.02-.02-.02-.06-.06-.06-.01.01-.02.03-.03.05-.02-.03-.06-.06-.06-.11-.03-.01-.02-.06-.05-.05-.01-.03-.03-.06-.07-.06,0,.01,0,.01,0,.03,0,0,0,0-.01,0-.05-.04-.07-.1-.09-.16,0,0,0,0,.01,0-.02-.03-.02-.07-.02-.11.01.03.04.06.06.1,0-.01.02.02.03.02.02-.01.03-.03.03-.05.01,0,.02,0,.02-.02.01,0,.02,0,.03,0,0,0,0,0,0,0,0-.02,0-.04-.02-.06.01,0,0,0,.01,0,0,0,0-.03,0-.04.03.02.05.06.08.09,0-.02,0-.06,0-.08.02,0,.02-.05,0-.05.02,0,.02.04.05.05-.01-.03-.03-.07-.06-.09-.02,0-.02.03-.03.03,0-.01,0-.02,0-.04.04-.03.08,0,.11.03,0,0,0-.02,0-.04.02.04.06.06.07.1,0,0,0,0,.02,0,0-.03.01-.04,0-.07.02.02.03.04.05.06.01-.05-.02-.1-.04-.14,0,0-.02,0-.03,0,0-.03-.02-.05-.03-.07.01-.02.01-.03,0-.05.01.02.05.05.05.09.02.01.04.03.06.04.01,0,0-.02,0-.02.04.06.09.09.15.14,0,0-.01-.02,0-.03,0,0,0,0,0,0-.02-.05-.02-.09-.03-.13.06,0,.11.04.15.07,0,.03-.01.05,0,.07.02-.03.02-.12-.03-.14.02-.04.07,0,.1.01,0,.03,0,.06.04.07,0-.04-.03-.09-.02-.13.01,0,.02.02.03.03.02,0,0-.02,0-.03.02.01.03.03.04.05.01,0-.02-.01,0-.02.03,0,.06.04.09.04.01.02.03.03.05.05.01,0,.01-.01.02-.02,0,0,0,.02.01.02,0-.03.01-.06,0-.09.05.03.16.09.09.17,0,.07-.05.13-.07.19,0,0,.03,0,.04.01.04-.02.05-.08.04-.12,0,0,.01.02.02.02,0-.03.02-.08.02-.1.03-.04.01-.11.02-.14,0,0,.02.01.02.02.03.02.06.04.06.09,0,0,0,0,0,0,.01,0,.01,0,.02,0,.05.02.04.1,0,.13,0,.02,0,.03.01.04.03-.04.06-.07.05-.14,0,0,0,.03.02.02,0-.01,0-.02,0-.04.05.03.06.04.07.1,0,.01,0,.02.01.03,0,.02-.01.05,0,.07,0,0,0-.01.02-.01,0-.01-.02-.01,0-.02.02,0,.04.05.05.07,0-.01.03-.03.04-.04.01,0,.03-.05.03-.04,0-.02-.03,0-.04,0-.01-.05.03-.09.02-.13.02,0,.02.05.04.06,0,.06.05.11.04.16,0,.02-.02.04-.03.06,0,.01-.01.03-.02.05.02.02.04.05.06.07,0,.02,0,.07,0,.09,0,0,0,0-.01,0-.01,0,0,.01,0,.02,0,0-.01,0-.02,0,0,.01,0,.02,0,.04.02,0,.02-.03.04-.03,0,.02-.02.03-.02.06,0,0,0,0,.02,0,.02-.02.02-.05.03-.07.02,0,.03,0,.03,0,.03,0,.03.03.03.05.01,0,.02-.01.02-.03,0,0,0,0,.02,0,0,0,.01,0,.01-.02,0,0,.01,0,.02,0,0-.02.02-.04.03-.05,0,0,.01.01.02.02.01,0,0-.03,0-.04.06.05.07.15.08.24,0-.04,0-.1.02-.14-.01-.01-.02-.02-.04-.04,0-.04-.02-.06-.04-.08,0,0,0-.03,0-.03,0,0,.03-.01.02,0,.02-.01,0-.02.02-.05.02,0,0,.02.01.03.05.02.12.02.13.07-.01-.05.01-.12-.02-.17.03.06.11.09.11.19-.02,0-.04.01-.03.03,0,0-.01.01-.01.02,0,.02,0,.05.01.08,0,.02.03,0,.05.02.02-.03.03-.08.01-.13,0,0,0,0,0,0,0-.05,0-.1.02-.12,0,0,0,0,0,0,.02-.06.04-.11.04-.18.02.01,0,.06.03.07,0,.03,0,.06,0,.09,0,.05-.03.09-.04.14,0,0,0,0-.02,0,0,0-.01.01-.01.02.01.02.01.05.02.07.01,0,.03,0,.04.02,0,0,.02,0,.03,0,0,0,0,0,0-.01-.01,0-.01,0-.02,0,0-.01-.01-.01,0-.02.02,0,.04-.02.05,0,0,0,0,0,0,0,0-.02,0-.03-.01-.04.02,0,.04,0,.05.02.01,0,.02-.02.04-.02,0,.01,0,0-.01,0,0,0,0,0,.01.01,0,0,0,0,.02,0,0-.01,0-.01,0-.02.01,0,.02,0,.04,0,0-.01.01-.03.02-.04.01,0,0,.02.02.01,0-.02,0-.03.02-.04,0,.02,0,.04,0,.07-.01,0-.02.02-.03.02h0c.03.05,0,.11,0,.17.02,0,.03,0,.03-.02,0,0,.01,0,.02,0,.01,0,.02-.05,0-.06,0-.01.03,0,.03,0,.04,0,.03.09.02.13.02.02.05,0,.08,0,0,0,0,.02.01.03.07,0,.1-.05.12-.1.03.04-.03.1-.02.12,0,0-.01,0,0,.02.02.02.04-.02.06-.02h0s.01,0,.02,0c.01,0,.03,0,.03.02,0,.01.01.02,0,.03,0,.03,0,.04-.01.07-.03.04-.08.08-.13.11-.02.02-.03.04-.06.04-.01.02-.04.02-.06.03,0-.01,0-.02,0-.04-.01,0-.02.01-.03.01,0-.02,0-.04,0-.06,0,0-.02.01-.02.02,0,0-.02,0-.03,0,0-.01,0-.01-.01-.02,0,0-.02.02-.03,0,0-.04.03-.05.03-.09-.02.04-.05.08-.07.11-.04,0-.05-.09-.01-.1,0-.02,0-.04.02-.06,0,0,.01,0,.01,0,0-.02.02-.07.03-.1.01-.03.03-.03.01-.06-.04,0-.03.08-.06.09-.02.06-.04.12-.07.17-.02,0-.03,0-.04.02-.04-.02-.03-.08-.04-.11.02-.01.03-.02.03-.05-.03,0-.05.03-.05.06-.02,0-.02.01-.04.02,0,.08-.07.09-.09.16-.02,0-.03.02-.04,0,0,0,0,0,0,.01,0-.03,0-.05,0-.08-.03.05-.04.09-.04.14.07.04.15-.01.19-.05,0,0,0,0,.01,0,0-.03.02-.06.02-.1.02.01,0,.05.04.05-.03.13-.19.19-.33.14-.05.06-.12.1-.23.11-.04,0-.06,0-.09.01-.08.02-.13.07-.21.1-.02,0,0,.02-.02.02-.02,0-.05,0-.06.02-.15.03-.21-.07-.32-.11-.05,0-.13-.04-.18,0,0,.04-.03.06-.04.1.08.03.08.17.06.26,0,0,0,0-.01,0,0,.02.02.01.03.02.03.03.03.09.03.12.01.01.02.03.03.04.01.07.08.08.12.12.01,0,0-.01.02,0,.01.04.04.06.07.08,0,.01,0,.02,0,.02-.03.03.03.04.03.07,0,0,.01-.01,0-.01.02,0,.02.03.04.04,0,0,0,.02,0,.03.01.02.02.04.03.06,0,0-.01.02-.02.01,0,.04-.03.06,0,.1-.03.03-.04.06-.06.09-.02.03-.06.02-.08.05,0,0-.02,0-.01,0-.01,0,0,0-.02,0-.02,0-.04.02-.06.01-.17.07-.39.05-.59.09-.02,0-.04,0-.06,0-.13.01-.23.08-.31.15.02.09.08.14.16.17.03,0,.05,0,.07.02.03,0,.07,0,.09.02.14.03.23.11.31.19,0,0,0,0,0,0,.03,0,.03.04.06.05,0,0,0,0,0,.01,0,0,0,0,.02,0,0,.02.03.03.04.05.04.01.08.03.1.06h.01c.07.08.12.18.16.28.03,0,.04-.01.07,0-.01.03.06,0,.08-.01.04.03.1,0,.14.01,0,.01,0,.02,0,.03.02.01.08.02.1,0,.02,0,.04,0,.05.02.03,0,.06,0,.08.01,0,0,.01.02.02.02.03.02.04.02.06.05,0,.01.02.02.03.03,0,0,0,.01,0,.01.02.03.05.05.08.07.03-.02.02-.05.03-.08,0-.01,0-.02.01-.03.03-.1.07-.17.2-.16.01.02.04.03.06.04.05-.05.19-.18.15-.27-.02-.02-.05,0-.07,0-.03.07-.14.01-.18,0,0,0,0,0,0-.01-.01,0,0-.01-.01,0-.03-.02-.05-.03-.07-.08.04.02.08.04.11.07.02-.01.03.01.05.02,0,0,.05,0,.06,0,.03,0,.04-.03.05-.04.02,0,.03,0,.04,0,0-.04-.06-.05-.07-.1,0-.03,0-.07,0-.11,0,0-.01,0-.02,0-.02.01-.03.03-.03.05-.02.01-.04.01-.04.03-.02,0-.03.02-.06.02,0,.01,0,.01,0,.02-.01,0-.03-.02-.04,0-.06,0-.04-.1-.1-.08-.01,0-.03,0-.03-.03,0,0-.01,0-.03,0,.01.03.05.06.06.09,0,.02-.02.01-.01.03-.01,0-.01-.02-.03-.02,0,0,0,.02,0,.02-.03-.02-.05-.06-.1-.03-.08-.04-.06-.18-.11-.25.06.06.1.13.13.21,0-.03-.02-.08-.02-.12.01,0,.02.02.03.02,0-.06-.03-.11-.03-.17.01.01.03.03.04.05,0-.05-.02-.11,0-.17.03.04.05.12.12.13,0-.02-.02-.03-.02-.05-.03-.02-.06-.02-.06-.06,0-.02,0-.05,0-.07.03.03.1.06.08.12,0,.02.03.04.03.07.02-.03,0-.1,0-.14,0-.01,0-.02,0-.04-.07.01-.06-.06-.09-.1-.02,0-.03,0-.04,0,0-.01.02,0,.02-.01.04.02.08.02.1.07,0,0,.01,0,.01,0,.02.02.04.05.06.08,0-.01,0-.02-.01-.03,0-.02,0-.04,0-.05.02.02.05.06.08.08,0-.03-.02-.04-.02-.08-.06-.03-.03-.16-.07-.2.02,0,.03.01.04.03.04,0,.05.04.09.06,0,.02,0,.03.01.04,0,0,0,0,0,0,0,0,.05.08.06.1.02.05.03.09.05.12.02,0,.01-.03.04-.02,0,0,0-.04.01-.05,0,0-.02,0-.02-.02,0,0-.01,0-.03,0,0-.02-.02-.03-.02-.04-.01,0-.02.01-.03.02-.01,0,0-.03-.02-.03,0-.04-.02-.1,0-.13h0s0-.05,0-.07c.02.03.04.07.07.09.02-.04.03-.07.05-.12.03.06.06.11.07.2.02,0,.01-.01.03,0-.02-.02,0-.05-.02-.08,0,.01.02.02.03.03.02-.03.04-.06.05-.09,0-.01-.02-.02-.01-.03.02,0,.03.03.05.03,0,.05,0,.1.02.15.02-.04.05-.08.07-.13,0-.01-.01-.01-.02-.02.04-.02.05,0,.08.01,0,.02-.01.05-.01.07.03,0,.04-.03.06-.05.03-.01.05,0,.07.01,0,.05-.02.09-.01.13.01.01.03.01.05.02.01-.03.03-.06.04-.1,0,0,0-.01-.01,0,0-.03.04-.02.06,0,0,0,0,.01,0,.02,0,0,0,0,0,0,0,0,0,0,0,0-.01.07.09.14.02.2,0,0,0-.01-.01-.01-.01,0-.02,0-.03.01,0,.01.02.03.02.04,0,.01,0,.02,0,.03,0,0,0,0,.02,0,.02-.04.03-.09.04-.14,0,.03,0,.05,0,.07,0,0,0,0,0-.01,0-.07.02-.13.03-.18h.02s.03.06.04.11c.02-.05.03-.11.04-.17.04.05.07.17.01.23,0,0,0,.01,0,.02-.01,0-.02,0-.03,0h0s.03.05.05.07c0,0,0,0,0,0,.03.02.03.06.05.08,0,0,0,0,0,.01,0,0-.01,0-.02,0h0s.04.08.06.11c.01,0,0-.02,0-.03,0,0,0,.01,0,.01,0,0,0-.02,0-.03,0,.03,0,.05.01.07.01,0,.02,0,.02,0,0-.03.02-.06.02-.09,0,0,0-.01,0-.01-.01,0-.01.01-.02.02-.02,0-.03-.03-.05-.01,0-.02-.01,0-.03,0-.02-.03.05-.05.05-.1.01,0,.02-.01.03-.02-.02-.01.02-.03.02-.04,0,0,.01.02.02.03.01.02.02.03.03.06.01-.02.02-.03.03-.05,0,0,0,0,0,0,0-.02,0-.04,0-.06,0,0,0,.01.01.02.01,0,0-.01,0-.02.07.07.06.21.03.31.02.02.04.04.06.06,0,0,0-.01,0-.02,0,.01.01.03,0,.05,0,.02,0,.03,0,.06.02,0,.04-.03.05-.06,0-.02-.02-.02-.02-.04-.05-.01,0-.07-.03-.09.04-.05.05-.14.05-.21.02.02.05.06.06.11.03-.04.04-.08.05-.13.05.03.04.1.06.16-.03.11-.08.21-.16.28-.05,0-.06.03-.1.05,0,0-.02,0-.03,0-.01,0-.01-.03-.03-.03,0,.03,0,.06,0,.09,0,.03-.03.05-.03.07-.02-.01-.03,0-.06,0,0,.04,0,.09-.02.12,0,0,0,.01,0,.02,0,0,0,.02-.01.03,0,.04,0,.07-.02.09,0,0,.01,0,.02,0,0,0,0-.01.01-.02,0,0,0,0,0-.01.03-.05.05-.1.1-.14,0-.02.01-.05,0-.02,0,.02,0,.04,0,.06.02,0,.02-.03.04-.04,0,.01,0,.04-.01.07,0,0,0,0,0,0,0,.02-.01.04-.01.06,0,0,0,.01,0,.01,0,.02,0,.03-.02.04.01,0,.02,0,.03,0,.04-.04.08-.08.12-.12,0-.01,0-.03,0-.04,0,0,0,.02.01.03,0,0,.01-.02.02-.02.01-.02,0,.02,0,.04,0,.06,0,.14-.03.18-.01.02-.04.02-.04.04.02,0,.02-.03.05-.02,0-.01-.01,0,0-.01.01,0,.02,0,.03.01,0,.03.03.07,0,.09,0,0,.01,0,0,.01.01,0,.01.01.03.01,0,.02,0,.03,0,.05,0,0,0,0-.01,0,.01,0,0,.02,0,.03,0,.03,0,.04,0,.07-.01,0-.02.01-.02,0,0,.02,0,.01,0,.02-.02,0-.02,0-.04,0,0,0,0,0,0,0-.01-.01-.03,0-.05,0,0,.01-.01.02-.03.02,0-.02.01-.01,0-.02,0,0-.01,0-.02-.01,0,.02-.01.03-.03.03,0,.02.02.01.03.02.04.02.08.05.13.02,0,0,0,.01,0,.01-.05.05-.12-.01-.18-.04-.02-.01-.1.02-.14.02-.03,0-.06,0-.1-.02,0,.02-.03.02-.03.04-.03,0-.03.04-.06.05-.01.02-.04.04-.06.05-.05.04-.13.04-.17.1-.02,0-.02.01-.03.02-.01,0,0,0-.02,0,0,0,0,0,0,.01-.03,0-.05,0-.07,0-.05,0-.12.02-.16.02-.07,0-.12-.04-.19-.07-.03,0-.07-.01-.09-.02-.1.05-.18-.03-.27-.05-.02,0-.05,0-.07-.02-.03,0-.04-.02-.06-.03-.04,0-.05-.04-.08-.06-.04-.05-.11-.09-.13-.14-.05-.04-.09-.09-.12-.13-.06-.04-.1-.11-.18-.13-.01,0,0,.01,0,.01-.07,0-.14-.02-.19.02,0,.03-.01.04-.01.06-.02.02-.05.04-.06.07,0,.01,0,.03,0,.05,0,.05-.01.13-.04.17,0,.04,0,.08,0,.12,0,0,0,0,.01-.01,0-.02,0-.06.01-.08v.06s.04-.03.05-.06c0,.03,0,.08.01.13.02,0,.03-.02.04-.03-.02.04-.05.1-.08.14,0,.01,0,.01,0,.02,0,0-.02.01-.03.02,0,.03,0,.07.02.1,0,.02.02.02.02.04,0,0,.02,0,.01,0,.01.02.01.04.02.07,0,0,0,0,0,0,0,0,.01,0,.01-.01.03.02.02.04.03.06,0,.01.03.01.03.03.04.01.03.07.07.08-.01.02.02.06,0,.06.01.05.03.11.04.15-.02.06-.07.11-.1.17-.02,0-.02.02-.04.03,0,.02-.02.02-.02.03h-.02s-.01.04-.03.05c0,0,0,.02,0,.03-.03.03-.03.07-.06.09,0,0,0,0,0,.02-.02.01-.03.03-.06.04,0,0,0,.01,0,.02-.03.03-.07.05-.13.05-.04.02-.1.04-.14.06h0s-.06.03-.08.05c0,0,0,0,0,0-.03.02-.05.03-.09.03,0,0,0,0,0,.01-.01,0-.01,0-.02,0,0,0,0,.01,0,0-.02,0-.03.02-.05.01,0,0,0,0,0,.02,0,0-.02.01-.02,0-.01.03-.06.03-.1.04-.03,0-.06.02-.08.02-.01,0-.02-.01-.03,0-.02-.01-.03-.05-.06-.04-.02-.01-.03-.04-.05-.05,0-.05-.07-.05-.1-.08-.05-.02-.07-.06-.11-.08,0,0,0,0,0-.02-.06-.02-.12-.06-.17-.04,0,.01,0,.01,0,.02-.06.01-.11,0-.18,0,0,0,0-.01-.02-.01-.03.02-.05.03-.06.06,0,.01,0,.04-.01.05,0,.01-.03.03-.04.04-.08.07-.17.08-.19.21,0,0,0,0-.01,0,0,0,0,0,0,.02-.03.05-.03.12,0,.17-.02.05,0,.1,0,.16,0,.07-.02.14.02.2.06.08.09.19.16.25,0,.03.02.05.03.07.03,0,.04.03.07.04,0-.03.04-.02.05-.05,0,0,.01.01.01.03.03-.01.03,0,.07,0,0,0,.01.02,0,.03.02.03.06-.02.07.02.01,0,.02,0,.03,0,0,0,0,.01,0,.03.04,0,.05.02.1,0,0,0,0,0,0,.01.09.02.19.02.3.03.06,0,.13.03.18,0,.02.02.04.01.08.02,0,0-.01,0-.02,0,.02.02.05,0,.07,0,.02-.01.04,0,.07,0,.03,0,.06,0,.07,0,0,0,.01,0,.02,0,0,.01.03.02.05,0,.01,0,.02.01.03.01,0,0,0,.02,0,.02.01,0,.02,0,.02,0,.31-.09.63-.2.95-.32.53-.2,1-.45,1.43-.73.42-.29.77-.63,1.05-1.02.28-.39.42-.85.42-1.37ZM293.17,62.08s-.04.03-.05.05c-.02,0-.03.01-.04.03-.11,0-.12.11-.21.14,0,0,0,0,0,.02-.1.02-.13-.06-.16-.11-.02.06-.08.12-.07.19-.01,0,0-.01-.02-.01,0,0,0,0,0,0,.02.02.03.05.06.06.02-.02.06-.02.08,0,.01,0,.02,0,.03,0,0,.01,0,.02,0,.02,0,.01.02.02.02.04.04,0,.03.03.05.05.01.03.04.03.07.04.03.04.06.08.1.11,0,0,0,0,0,.02.05.05-.01.11-.02.17.12-.03.21-.08.31-.13.05-.04.1-.06.1-.13,0-.07,0-.17-.02-.26,0-.06-.02-.1-.02-.15,0-.03,0-.07.01-.11-.01,0-.03,0-.04,0,0,0,0-.02-.01-.02.01-.03.04-.05.06-.08,0-.02,0-.04,0-.06-.03.01-.05,0-.09,0-.01-.01-.01-.02-.03-.03.01-.04.04-.07.06-.1,0-.02-.02-.04-.02-.07,0-.01,0-.03,0-.04,0-.04-.03-.07-.02-.09,0,0,0,0-.01,0,0-.03-.02-.04-.02-.06-.03-.02-.01-.06-.02-.09,0-.01-.01-.02-.01-.03,0,0,0-.01,0-.02.02-.12-.08-.14-.15-.21.03.01.08.02.1.06,0-.03-.04-.03-.05-.06-.05,0-.04-.04-.08-.05,0,0,0,0,0-.01-.04,0-.08-.02-.12-.03-.06,0-.1.05-.17.04-.03,0-.05-.03-.07-.05,0,0-.02,0-.03,0-.03-.02-.04-.03-.08-.04-.08,0-.15-.03-.24-.01-.03,0-.06-.02-.08,0-.01.01-.04-.01-.04-.01-.02,0-.06.04-.08.05-.03.02-.07.05-.12.07-.04.02-.08.06-.12.06-.16.1-.28.23-.46.3-.03.02-.07.04-.11.05-.02.02-.07.01-.1.01,0,0-.01,0,0-.02-.04.02-.07,0-.11,0-.06-.04-.15,0-.19.02,0,0-.01.01-.02.02-.04.01-.07.05-.11.06-.02.02-.05.03-.07.05.01.02.03.03.05.05,0-.03.02-.06,0-.07,0,0,0,0,.01,0,0,.01.02.02.03.04.05.01.09.07.09.14h0s0-.04,0-.06c0-.05,0-.11,0-.17.03.03.06.07.08.11.01-.04-.02-.11,0-.14,0-.02-.01-.03-.01-.05,0,.01.02.02.03.03.01,0,.01,0,.02,0,.01.05.04.07.05.12.01-.03.02-.07.01-.11.03.05.06.11.07.18-.03.05,0,.1.02.13.02-.03.02-.05.02-.08,0,0-.02,0-.03,0,.03-.07.02-.13.04-.2,0,0,.02,0,.02.02.01.01.04.03.04.05.02,0,.03.02.04.03.02-.04.04-.06.05-.09.02.03.04.08.07.11,0,.03-.01.05,0,.07.02-.02.01-.05.01-.07,0,.03.01.06.02.09.03-.05.05-.11.07-.16.01.04,0,.1,0,.15.02,0,.02-.03.03-.05,0,.02.02.04.02.06.02,0,.02-.05.04-.06,0,.07.03.12.04.2.03-.02.03-.06.05-.09.02.01,0,.07,0,.1,0,0-.01,0-.01,0,0,0,0,.02,0,.03-.02.04-.06.06-.07.09-.02,0-.02,0-.03,0,0-.02.02-.02.02-.04-.01,0-.02,0-.03,0,0,0-.01,0-.02,0,0,0-.01,0-.02,0,0,0,0,.01-.01.02.01,0,.02,0,.03,0-.01,0-.02.02-.04.02-.01.02-.01.04-.03.06-.03,0-.04.03-.06.04-.02,0-.03,0-.05.01,0,0,0,0,.01-.01-.03.02-.06.04-.08.07,0,.09.08.11.13.15.05,0,.1,0,.14-.02,0,0,0-.01.02-.01.04-.02.09,0,.14-.02,0,0,.02,0,.02-.02.04,0,.05-.02.08-.03.06-.04.11-.09.18-.1.03,0,.07,0,.1,0,.01,0,.02,0,.04,0,.09,0,.17.05.25.05.03,0,.05,0,.08,0,0,0,0,.01,0,.02.01.01.04,0,.05.02.04-.04.09-.11.04-.16.01,0,.02.03.03.04,0-.02-.02-.04-.03-.05,0,0,0,0,0,0,0,0,0-.01-.02-.01-.02,0-.02.02-.02.04-.01-.01-.02-.03-.03-.05-.04,0-.05-.04-.1-.04.03-.02.08-.02.1-.04-.01,0-.02,0-.04,0-.02-.01-.04-.02-.06-.03,0-.04.01-.07.03-.09,0-.02-.02-.02-.02-.05,0,0,.02,0,.03-.02,0-.02-.01-.04-.02-.06,0,0,0,0,0,0,0,0,0,0,0,.01,0,0-.01.01-.02.01-.01,0-.02-.02-.02-.04-.02,0-.02,0-.04,0,0,0,0,0,0-.01,0,0-.01-.01-.02-.02-.01-.06.01-.09.04-.14.02-.04.03-.08.07-.09,0-.02.02-.02.01-.04.01.02.02.04.03.07.02,0,.04,0,.05,0,.02-.02.04-.03.07-.03,0,0,0,0,0,.01,0,0,0,0,.01,0,0-.01,0-.02,0-.04-.01-.02,0-.07-.02-.09,0,0,.01.01.02.02.01.02.03.04.04.07,0,0,0,0,0,0,.01-.01.03-.02.04-.03,0-.02,0-.05,0-.07,0-.03.02-.05.03-.08,0,0,0-.02,0-.04.02.05.06.07.08.13.03-.05.07-.1.09-.16,0,0,0,0,0,0,0,.06.02.13,0,.19,0,.05-.04.08-.05.12-.02.01-.05.03-.08.01,0,0-.01,0-.02,0,0,.02-.02.04-.04.05,0,0,0-.01,0,0,0,.04,0,.08-.01.12,0-.01,0,.01-.01,0,0,0,.01,0,0,.02-.02.02-.04.05-.07.07,0,0-.02,0-.02,0-.02.03-.05.05-.07.07-.03,0-.04.03-.07.02,0,.02-.01.05,0,.07.02,0,.03,0,.04,0,.04.04.09.07.16.08,0,0,0,0-.01,0,0,0,.02.01.03.02.11-.04.09.11.17.12.06,0,.11-.06.14-.1,0-.02,0-.03,0-.04,0-.01.01-.02.03-.02h0s0,0-.02,0c0-.03-.03-.05-.04-.08,0,0,0,.01,0,.01-.01-.04-.04-.04-.07-.06-.01,0,0,.01,0,.01,0,0,0,0-.01,0-.01-.03-.03-.06-.04-.08-.02.03,0,.06,0,.08-.02,0,0,0-.01.02-.03,0-.05-.02-.06-.04,0-.04-.06-.08-.06-.13,0,0,.02.02.02,0,.03.03.06.05.11.06.01-.03-.02-.06-.02-.1,0,0,.01,0,.03,0,0,0,0,.02.02.02,0,0-.01-.05,0-.06,0-.01,0-.03,0-.04.03.02.05.07.1.08,0-.02,0-.07,0-.11,0,0,.02.03.02.04.02-.02.03-.04.04-.07.01.03.04.05.05.09.03,0,.02-.02.03-.03.01,0,.02.05.02.05,0,0,0-.02.01-.03.01-.02.04-.06.03-.1.02.02.03.04.04.07.01-.02.02-.04.03-.07.01.02.02.08.03.08.02.03.02.07.02.12,0,.04-.03.06-.03.09,0,.07.08.1.06.18-.02,0-.02,0-.04,0,0,0,0,.02-.02.02-.02,0-.02-.03-.03-.04,0,0,0,0-.01,0,0,0,0,0,0-.01-.04-.05.03-.1.03-.15-.01,0-.04.02-.04.04-.02,0-.03,0-.04,0,.01.03-.03.03-.04.05-.01,0-.01,0-.02,0-.01.02-.02.03-.04.03-.01,0,0-.02,0-.02-.02,0-.03,0-.04,0,0,0,.01.02.02.02.03,0,.04.03.06.04,0,0,0,0,0,.02.04.02.05-.03.09-.02ZM292.54,61.79s.01-.01.02-.02c-.03-.02-.04-.05-.06-.08-.01.04-.03.09-.05.13,0,.02,0,.06.01.07.03.03.08,0,.1-.03-.01-.01-.02-.02-.03-.02,0-.02,0-.03,0-.04ZM291.34,62.21s-.03-.06-.05-.09c-.01,0-.02.02-.03.03-.02,0-.05,0-.06,0,0,0-.02,0-.03,0-.05.04-.06.11-.12.14-.04-.01-.07,0-.11-.01,0-.03-.03-.05-.04-.09.02,0,0-.01.02-.02-.01,0-.02,0-.03,0,0,0,0,0-.01-.01-.01,0-.02.01-.02.03-.02,0-.04.01-.06.02,0-.01-.02-.02-.02-.03-.02,0-.04,0-.06,0,.02.02.04.03.05.05-.02-.01-.03.01-.03.04-.03,0-.08,0-.12-.03,0,.01,0,.03,0,.04h0s0,0,0,0c0,0,0,0,0,.01,0,0,.01.02.01.03.06,0,.1.04.15.03.01,0,0,.01.02,0,0,0,.04-.01.06,0,.01,0,.02.03.04.02,0,0,0,0,.02,0,0,0,.01.01.02.02-.02,0-.03-.03-.04,0,.01,0,.03.02.04.02,0,0-.02-.01-.01-.02.01,0,.02.02.03,0,.02.02.06.03.07.06,0,0,.02.01.03.03.09.01.13,0,.21,0,0-.01-.03-.05-.01-.07-.02-.05-.05-.11-.09-.15,0,0,.04,0,.05.02.04-.04.09-.05.15-.08ZM291.26,62.52s-.08.02-.12,0c0,0,0,.01,0,.01,0,0,0,0,0,0-.01.03-.05,0-.07.02,0,0,0,0,0,0,.06-.01.14,0,.19-.02ZM291.22,62.54s0,0,0,.01c0,0,.03,0,.02-.01,0,0-.02-.01-.03,0ZM291.19,62.54s0,0,0,.01c0,0,.02,0,.02,0,0,0-.02-.02-.02,0ZM291.19,62.54s0,0,0,0c-.01.01-.02,0-.04,0,0,0,0,0,0,0,0,0,.03,0,.04,0,0,0,0,0,0,0ZM291.03,62.53s0,0,0,.02c.01,0,0,0,0,0,.01,0,.02,0,.02,0,0,0-.01-.01-.02-.02ZM290.39,62.35s-.03,0-.04,0c.05.07.15.1.21.03,0-.03-.02-.05-.03-.09-.03-.01-.06-.05-.1-.05.02.03.05.04.05.07,0,0-.01.02-.01.04-.04,0-.06-.03-.08-.05-.03,0-.06,0-.07-.01,0,0,0,.01,0,.02.02.02.04.03.06.05ZM290.36,62.2s.02.01.03.02c-.02-.03-.04-.06-.05-.1-.02.02-.05.05-.07.07.02.01.03.03.05.04,0,0,0-.01.02-.02,0,0,.01,0,.01,0,0,0,.01-.01.02-.01ZM290.33,62.24s0,0,.01,0c0,0,0,0,0-.01,0,0-.02,0-.02,0ZM290.52,61.95s0-.01,0-.02c0,0,0,0-.01.01,0,0,0,0,.01,0ZM290.52,62.07s.03.04.04.04c0-.03-.03-.09-.04-.04ZM290.48,62.14s.02.03.04.03c0-.01,0-.02,0-.03,0,0-.03,0-.03,0ZM290.49,62.08s-.02-.06-.03-.09c-.02.02-.04.04-.06.06.02.02.04.04.06.06,0-.03-.02-.05-.02-.08.02.02.03.04.05.05ZM290.57,61.92s.05.07.07.11c0-.02,0-.05,0-.07,0-.02-.03-.03-.05-.05,0-.01-.01-.03-.02-.05-.01.02-.03.03-.04.05.01,0,.02.01.03.02.01,0,0-.02,0-.01ZM290.72,61.94s-.01-.01-.02-.01c0,0,.01,0,.01,0,0,0,0,0-.01,0,0,.02,0,.04,0,.06,0,0,0,.01,0,.02,0,.02.01.03.02.05,0-.04,0-.05-.01-.09,0,0,0,0,.02.01v-.03ZM290.72,62.11s0,.02,0,.02c0,0,.01,0,.02,0,0-.02,0-.03,0-.03ZM290.72,61.86s-.03-.08-.02-.12c-.01.01-.03.02-.04.04.02.03.05.05.07.08ZM290.65,61.77s0,0-.01.01c-.01.01-.02.03-.04.04,0,0,0,0,.01,0,.01.01.05.04.06.06,0,0,0-.01,0-.02,0-.03-.01-.07-.02-.1ZM290.79,61.95s0-.07-.02-.07c0,0,0,0,0,0,.01.02.02.05.03.07ZM291.06,62.2s.02-.01.03-.02c0,0-.02,0-.02-.01-.02.03-.06.03-.08.04-.02-.01-.04-.02-.07-.03.01.04.04.08.09.08.03,0,.04-.02.06-.04,0,0,0,0,0-.02ZM291.31,62.11h0s0,0,0,0h0ZM291.36,62.15s0-.01,0-.02c0,0-.01,0-.02,0,.02.02.03.03.03.06.03,0,.05-.02.06-.05-.02.01-.05.01-.08,0ZM292.86,62.9s0,.02,0,.03h.02s0-.03-.01-.03ZM294.54,61.56s0,.06-.03.09c.02.03.05.05.08.07-.01,0,0,.02-.02.03.03.03.09.03.12.07.03,0,.06.02.06.05.05.03.11.05.17.04,0,0,.01,0,.02,0,.03,0,.05.02.07.02.13.02.27-.02.38-.05.07,0,.11-.02.17-.04,0,0,0,0,0-.01,0,0,.03,0,.04,0-.02-.05-.1-.05-.11-.1,0-.03.03-.07,0-.08-.01,0-.02,0-.02,0-.05,0-.08.06-.12.07-.05.01-.1-.02-.14-.04-.04-.04-.09-.07-.12-.12,0,0-.01,0-.02-.01,0,0,0-.01-.01-.02,0,0-.01,0-.02.01-.02-.01-.04-.02-.06-.03,0-.05-.03-.08-.02-.15.03.03.04.08.07.11,0,0,0-.02,0-.03-.03-.04-.06-.08-.07-.14,0,0,0,0,0,.01.03.03.07.05.1.08.01,0,.02-.02.04-.03,0-.01,0-.03,0-.04,0,.01.01.02.02.03,0,0,.01,0,.02-.01h0s0-.06,0-.1c.02.02.04.05.06.07,0,0-.01-.02-.02-.03.02-.03.05,0,.07.03,0-.05,0-.1.01-.15.03.08.1.15.09.25,0,0-.02,0-.03,0,0,.02.01.04.01.06,0,0,0,0,0,0,.06-.02.06-.1.08-.15,0,0-.02,0-.03,0,0-.01,0-.02-.02-.02-.01-.09,0-.2.02-.25.03.02.02.08.05.1,0,.03,0,.05.01.07,0,.01,0,.01,0,.03.02-.03.02-.05.03-.09,0,0,0,0,0,.01,0-.02,0-.04,0-.06-.01-.05-.06-.06-.11-.08,0,0-.01,0-.02,0,0,0,0-.01-.02-.02h0s-.02,0-.02,0c0,0,0,0,0,0,0,0-.01,0-.02-.01h0s-.06-.11-.08-.16c0-.01-.03-.01-.03-.03.03.02.06.04.1.06,0,0,0-.02-.02-.02.03,0,.08.03.11.04-.02-.03-.07-.04-.09-.08,0,0,0,0,0,0-.03-.01-.02-.03-.02-.06h0s0-.01-.01-.02c0,0-.02.01-.03.01,0,0,0-.02,0-.03-.02,0-.03,0-.04.02,0-.02-.02-.04-.03-.06,0,0-.02.01-.03.01,0,.02,0,.04-.02.05-.01,0,0-.02-.02-.02-.02.01-.05.03-.07.02,0,0-.02,0-.03,0,0,0,0,.01-.01.02,0,0,0,0,0,.01-.04.03-.07.07-.12.09,0,.01,0,.02,0,.03.01,0,0,0,.02,0,.01.04,0,.09,0,.14,0,0,0,.02,0,.02,0,0-.01.01-.02.02,0,0,0,0,0,.01,0,0,0,0,0,0-.02.02,0,.07-.03.09,0,0,0,0,0,0-.02.03-.05.07-.06.11,0,.01.01.02.03.02,0,.01,0,.02-.01.04-.11,0-.19.04-.24.12.02.04,0,.06.02.1ZM294.79,60.8s0,.01,0,.01c.03-.01.07-.02.09-.04,0,0,0,0,0,0,0,0-.02,0-.02,0-.01,0-.02,0-.02.02,0,0,0-.01-.02-.01-.01,0-.03,0-.04,0,0,0,0,.02,0,.03,0,0,.02.01.02,0ZM294.78,60.87s0,0,0,0c0,.01,0,.03.01.03,0,0,0-.03,0-.03ZM294.78,60.54s0,.03-.02.05c0,0,0,.02,0,.03,0-.05.04-.12,0-.16-.01.03-.01.07-.01.1,0-.01.01-.02.02-.03ZM295,60.69s.02-.05.02-.07c0,0-.01.01-.02.02,0,.02,0,.03-.01.05,0,0,0,0,0,0ZM295.13,60.66s0-.02,0-.04c0,0-.01.03-.02.05,0,0,.01,0,.02,0ZM295.17,60.26s-.03.04-.01.04c0,0,.01-.02.01-.04ZM295.17,60.5s0,.02,0,.03c0,0,.01-.01.01-.03h-.01ZM295.28,60.7s.03-.05.02-.08c-.02.02-.03.04-.03.06,0,0,0,.01.01.02ZM295.34,60.75s.02.02.03.02c0-.02.01-.03.02-.04,0,0-.01-.01-.02-.02.01,0,.02,0,.03,0,0,0,0,0,0,0,.01-.02.02-.04.04-.06,0-.02,0-.02-.02-.03-.02,0-.03.01-.05,0-.01,0,0,0,0,.02,0,.03-.01.06-.03.09ZM295.45,60.93s0-.01-.02,0c.02.02.04.06.06.08-.02,0-.06.02-.08,0,0,0,0,0,0,0,.06.01.1.03.11.08,0,.03-.04.1,0,.11,0,0,.01,0,.01-.02,0,0,.01.01.02.01,0-.01.01-.02.02-.04-.02-.02-.02-.05-.01-.08,0,0-.01,0-.02,0,0-.01,0,0,0-.02.01-.04-.02-.08-.02-.12-.02,0-.02-.02-.04-.02,0,0,0,.01,0,.01ZM295.66,60.77v-.02s0,0-.01,0c0,.01,0,.02,0,.03,0,.01-.01,0-.02.01,0,0,.01.01.02.02.01,0,0-.02.02-.01,0-.01,0-.02-.01-.03ZM295.87,61.55s0,.02-.01.02c-.03,0-.06,0-.07-.01-.02,0-.02.02-.05.01,0-.02,0-.03-.02-.03,0,.03-.04.06-.06.06,0-.02,0-.03-.03-.03,0,0,0-.01,0-.02,0,0-.01-.01-.02-.02-.01,0-.01.02-.03.02h0s-.05.03-.05.06c-.03,0-.01.06-.02.07,0,0,.02,0,.02,0,.02.04.06.05.1.03.01,0,0,.02.01.03.07,0,.15.03.22,0,0,0,.01,0,.01,0,.01-.01.03-.02.04-.04,0,0-.02-.02-.03-.03-.02-.02-.02-.02-.02-.04,0-.01-.02,0,0-.02.02,0,.02-.04.04-.03,0-.01.01-.03.02-.05-.02,0-.04,0-.06,0ZM295.94,61.46s-.01,0-.01-.02c0,0,0,0,0,0,0,0-.01,0-.02,0,0,.01,0,.02,0,.03.02.02.03-.01.04-.02ZM295.35,61.6s0,.04-.01.06c.03.03.08-.01.11-.02,0-.03.03-.03.05-.05.02-.01.02-.01.03-.01,0,0,.03-.02.04-.03-.01,0-.03,0-.04.01,0,0-.02-.01-.01-.03-.06-.03,0-.11.02-.14h0s0,.01-.02.01c-.01,0-.01-.01-.02-.02-.04.04,0,.13-.09.14-.03-.01-.05-.02-.08-.02,0,.02.02.04.03.06-.01,0,0-.01-.02-.01,0,0-.01.02,0,.02,0,0,0,0,0,0,0,.01,0,.02.01.03ZM295.49,61.29s.02-.04.02-.05c-.02,0-.03-.01-.04-.03h0s.01.05.02.08ZM295.61,61.18s0-.02,0-.03c0,0-.01,0-.02,0,0,.01,0,.02,0,.04,0,0,.01,0,.02,0ZM295.66,61.16h0s0-.04,0-.05c0,.01-.01.02-.01.03,0,0,0,.01,0,.02ZM295.73,61.21s0,0,0,0c0,0,0,0,0,0h0ZM295.73,61.44s0,.03,0,.04c0-.01.02-.03.02-.04,0,0-.01,0-.02,0ZM295.76,61.18s.03-.03.03-.05c0,0,0,0,0,0,0-.05,0-.1,0-.14-.03,0-.07.04-.09.06,0,.03.01.05.02.06,0,.02,0,.03,0,.05,0,0,.02,0,.02,0ZM295.8,60.96s0-.04,0-.06c0,0-.01,0-.02,0,0,0,0,.02,0,.02,0,0-.01-.01-.02-.02-.01,0-.01,0-.02,0,0,.03-.01.04-.01.07,0,0-.01,0-.02-.01-.01,0,0,.02-.02.02-.03,0-.02-.03-.03-.06,0-.01-.02-.01-.03-.01,0,0,0-.01,0-.02-.01,0-.02,0-.03,0,.01.05.02.11,0,.15,0,.02.02.04.02.07.01-.05.04-.09.08-.11,0,0,0,0,0,0,0,0,0,0,0,0h0s.06-.03.1-.04ZM295.66,60.7s0-.04,0-.06c-.01,0-.02.01-.03.02,0,.01.01.03.01.04,0,0,.02,0,.02,0ZM295.62,60.8s-.04-.04-.05-.06c0,0-.02,0-.02,0,.03.02.06.06.08.1.02,0,.02,0,.03-.02,0-.01-.01-.01-.02-.02,0,0,0,0-.01,0ZM295.54,60.43s0,0,0,0c-.01.01-.03.01-.04.01-.01,0,0,.02-.01.02,0,0,0,0,0-.01,0,0,0,0,0,0,0,.01.01.03.02.05.02-.02.03-.04.04-.07ZM295.48,60.76s.04.03.06.05c0-.02,0-.05-.01-.06,0,0,0,0-.01,0-.01,0-.02.01-.03.02ZM295.48,60.76s0,0-.02.01c0,0,.01.01.02.02,0-.01,0-.02,0-.03ZM295.06,61.46s0,.02,0,.03c.05.07.12.13.2.16,0,0,.03.01.04,0,0,0-.02,0-.02,0,.01-.01,0-.04.02-.03,0-.02,0-.03-.01-.04,0-.02,0-.03,0-.05-.01-.03-.02-.07-.04-.1,0,0,0-.02-.02-.02,0,0,0,.01,0,.01-.01,0-.02-.03-.04-.01-.02-.02-.03-.04-.04-.06,0,0-.01,0-.01,0,.04.06.08.1.12.17,0,0-.01,0-.01.03-.01,0-.03-.02-.05,0,0-.02-.03-.02-.03-.04-.03,0-.03-.02-.05-.02,0,0-.02-.02-.03-.02ZM295.12,61.44s0-.04,0-.06c0,0-.02.02-.02.03,0,0,.02.02.03.03ZM294.56,60.6s-.03,0-.06,0c.02.06.03.12.06.16.04-.05.02-.1,0-.17ZM292.54,60.13c.06-.06.16-.11.28-.1.08-.02.14,0,.23.01.09.03.23.05.33.02.04,0,.08-.02.12-.03,0,0,0,0,0,0,0,0,0,0,0,0,.05-.07.15-.15.15-.25-.03-.03-.03-.07-.04-.1,0-.02-.03-.04-.04-.06-.01-.02-.02-.05-.03-.07-.03-.05-.06-.1-.09-.15,0,0-.01,0-.02-.01,0-.01,0-.02,0-.03-.02,0-.04,0-.06,0-.01,0-.01.02-.02.03-.03,0-.05.02-.07.04-.04.01-.08.04-.12.05-.01,0,0,0-.02-.01-.03,0-.04.03-.08.03,0,0,0-.02,0-.01-.03.03-.09.02-.13.04,0,0,0-.01,0-.01-.04.01-.08-.03-.11-.02-.03-.05-.11-.05-.14-.1,0,0,0,.02-.01.02-.04-.06-.1.02-.13.05,0,.03.03.06.05.09.01.01,0,.04,0,.06,0,.02.02.04.02.06,0,.02-.02.02-.02.04.03.03.09,0,.12,0-.02.02-.04.05-.08.05-.02,0-.05-.03-.07-.03,0,0-.02,0-.04.01-.01,0-.03,0-.04,0-.01.01-.03.03-.04.03-.01.02-.03.03-.06.02h0s0,.01-.01.03c0,.01.03,0,.02,0,.01,0,0-.01.02,0,.07,0,.08.03.15.03,0,.01.02.02.03.03,0,.01-.02.02-.02.03.03.07,0,.12,0,.21ZM292.23,59.71s-.02.01-.01.02c0,0,0,0,0,0,0,0,0,0,0,0,.02-.02.04-.03.05-.05,0,0,0,0,0-.01h-.01s-.02.01,0,.03c0,0-.02,0-.02,0,0,0,0,0,0,0ZM292.24,59.82s0,0,0,0c0,0,0,0,0,0,0,0,0,0,0,0ZM292.26,59.83s.01,0,.02,0c0-.02,0-.03,0-.05,0-.02,0-.04,0-.05-.02.01-.02.03-.03.04.01.01.02.04.01.06ZM292.36,59.54s0-.02,0-.02c-.03,0-.05-.03-.09-.04,0,0,0,0,0,0,0,.02.02.04.03.06-.01.06-.02.08-.03.12.04-.03.05-.09.09-.12ZM292.39,59.6c0,.05-.05.07-.03.11.01,0,.03,0,.04,0h0s.06-.07.08-.1c0,.01,0,.03-.01.04,0,0,.01,0,.02.01,0,.02,0,.04,0,.06,0,0,.02,0,.02,0,0,0-.01-.01,0-.03,0,0,.01.01.03,0,.01-.01,0-.03,0-.06,0,0,0-.02,0-.03,0-.02-.03-.07-.03-.09-.03-.05-.05-.01-.1,0,0,0-.01,0-.02,0,0,.03.01.05.02.07,0,0,0,.01-.01.01,0,0,0,0,.01,0ZM293.97,58.68c-.02.08-.04.14.05.15.04,0,.07-.02.11,0,0,0,0,0,.02,0,.01.01.04.02.05.03.11-.02.2-.08.19-.19.05.07-.02.14-.08.17.05,0,.09-.04.12-.06,0,0,.03-.02.03-.04,0-.04-.03-.09-.06-.11-.02-.01-.04-.02-.06-.03,0,.01,0,.02,0,.04-.03,0,0,.06-.03.09-.03-.01-.01-.06-.05-.06,0-.04-.02-.08-.04-.1,0,0,0,0-.02,0,0,.05-.02.08-.03.12-.02-.01-.02-.07-.06-.05-.03,0-.03-.04-.06-.04,0,0,0-.02-.01-.03-.02.02-.04.04-.07.05,0,0,0,.01,0,.01-.03,0-.04,0-.08,0,.03.03.06.06.08.09ZM293.84,58.54s0,0,0,.01c.01.03.05.02.08.02.01-.03.05-.05.08-.06,0,0,0-.01.01-.02,0,0-.01-.01-.02-.02,0,0,0,0,0,0-.02-.01-.02.02-.04.02,0-.04-.02-.06-.02-.09-.01,0-.01,0-.03,0,0-.01-.01-.02,0-.04-.02,0-.02.05-.03.06,0,0-.02,0-.03.02-.01-.02,0-.06-.02-.08-.04,0-.04.05-.06.07.03.02.05.05.06.08.02,0,.02.02.04.02ZM293.78,57.94s0-.01.01-.02c0,.03,0,.07,0,.1.02-.03.03-.07.03-.11,0,0,0,0,0,0-.01-.01-.05,0-.05-.03,0,0-.01.01-.02,0,0,.02.01.03.02.05ZM293.96,57.82s0-.03,0-.05c0,0,0-.01-.01-.02-.04.03-.05.08-.08.12.03-.02.06-.03.09-.06ZM293.91,57.94s0,.01,0,.01c0,0,0-.01,0-.02,0,0,0,0-.01,0ZM293.86,57.9s0,0-.01,0c.02.05.03.09.03.15.03-.02.03-.07.03-.11,0,0-.02,0-.03,0-.02,0-.01-.04-.02-.05ZM293.97,58.04s.02-.02.02-.04c.03-.02.05-.06.06-.09-.01,0-.02,0-.04,0-.01.05-.02.11-.04.14ZM293.98,57.8s.02-.03.02-.06c-.02,0-.02.01-.03.03,0,0,0,.02,0,.03ZM294.14,57.9s0-.01,0-.02c-.02,0-.04,0-.05.02-.01.07-.04.12-.06.17.06-.03.1-.06.1-.15.02.01.02-.02,0-.03,0,0,0,0,.01,0ZM294.13,58.19s0,0,.01,0c0-.03.03-.04.06-.05-.01,0,.01-.02,0-.03-.03.01-.06.05-.07.07ZM294.03,58.41s0,.01,0,.02c0,0,0,0,.01,0,0,0,0-.01,0-.02ZM294.32,58.55s.05.02.07,0c-.02-.02-.03-.04-.05-.06,0,0,0,.01,0,.02-.02,0-.04-.02-.05-.04,0,.03.03.05.04.08ZM294.47,58.6s.04-.04.06-.07c0,0,.01,0,.02,0,0,0,0-.01,0-.01,0,0,0,0,0-.01-.02-.03-.03-.06-.05-.09-.03.01-.04.05-.06.08,0,0,0-.01,0-.01-.01.03,0,.06-.02.09.01,0,.02.02.03.03ZM294.64,58.54s0,0,0,0c0,0,0,0,0,0,0,0,0,0,0,0ZM294.91,58.21s.03-.05.04-.08c-.01,0-.02,0-.03.01,0,.01,0,.02,0,.03.02,0,0,.03,0,.04ZM293.66,58.37s-.01.01-.01.02c0,0,.01,0,.02,0,0-.02.01-.03.03-.04,0-.05.06-.08.03-.14,0,0,0,0,0,.01,0,0,0-.02,0-.02-.01,0-.03.01-.02.03-.02,0-.01.01-.02.02-.03,0-.05.07,0,.07,0,0,0,.02-.02.03,0,.01,0,.01,0,.02ZM293.42,57.88c.05-.03.04-.09.06-.14,0,0,0,0,0,0-.01.01-.02.03-.04.04-.01,0-.02-.01-.03,0,0,.02-.01.02-.01.04.02.02.03.04.03.07ZM293.41,58s0,0,0,0c0,0,0,0,.01,0,0-.01,0-.01,0-.02ZM293.39,57.52s0-.02,0-.02h-.01s0,.02,0,.03c.01,0,0,0,.02,0ZM293.41,57.99s.08.09.11.14c.01,0,0-.02.01-.01,0,.04.04.06.05.1,0-.03,0-.07-.02-.08,0-.05-.01-.1-.02-.15,0,0,0,0,0,0h0s-.02-.04-.02-.06c-.03,0-.04.03-.05.05-.01-.01-.03,0-.04-.02,0,0,0,.02-.01.02ZM293.57,58s0-.03,0-.05c0,0,0,.02,0,.02,0,0,.01.02.02.03ZM293.61,57.99s.01-.03.01-.06h0s-.03-.02-.02-.03c-.02,0-.02.02-.03.03.01.02.03.04.04.06ZM293.67,57.99s0,.01,0,.02c0-.02,0-.04,0-.06,0,0-.01,0-.02.01-.01,0-.02,0-.03-.01,0,0,0,.01,0,.02,0,.03.03.05.04.08,0-.02,0-.05,0-.07ZM293.72,57.98h0s0,0,0,0h0ZM293.26,57.69s0,.07-.02.1c0,0,0,.02.02.02,0-.04.01-.07,0-.11h0ZM293.11,57.62c-.02.06,0,.13.06.13,0-.03,0-.06,0-.1-.02,0-.04-.02-.06-.03ZM292.98,57.83s.03.03.06.03c0-.02-.01-.04-.01-.07-.03,0-.02.04-.05.04ZM292.85,58.5s.03.02.04.02c-.01-.03-.03-.05-.05-.08-.01,0-.02.02-.02.04,0,0,.01.02.02.02,0,0,0,0,0,.01,0,0,0-.02,0-.02ZM292.84,58.55s0,.03,0,.05c0,0,0,0,0-.01,0-.01,0-.02,0-.03ZM292.83,58.72s-.01,0-.02-.02c0,.03.03.03.02.06.02.04.01.09.05.12,0,0,0,0,0,0,.01,0,.02-.01.04-.02.05-.05.12-.09.15-.16,0,0,0,.02,0,.01.01,0,0-.04-.01-.05,0-.05-.02-.08-.04-.12,0,.01,0,.03,0,.04-.05.01-.05-.04-.07-.08-.01.03-.02.05-.01.08,0,.01-.02.02-.03.03-.03,0-.05-.02-.05-.05,0,.02-.01.03-.02.05,0,.02,0,.04,0,.06-.02,0-.03.02-.02.04ZM292.94,58.48s-.01-.02-.02-.02c-.01.02,0,.04-.02.05.02,0,.04-.01.04-.03ZM293.06,58.34s0-.01.01-.02c0,0,0,0-.01-.01,0,.01,0,.02,0,.03ZM293.17,58.44s.01-.03.02-.04c0,0,0,0,0,0-.01.04-.06.08-.07.14.02.02.02.06.04.09h0c-.03-.05,0-.13.01-.18ZM292.73,58.57s0,0-.02,0c-.03-.03-.02-.07-.02-.12-.02.03-.02.09-.01.12.03.02.04.05.03.08,0,0,0,0,0,0,.02,0,.03.03.05.03,0,0,.01,0,.02,0-.03-.03-.04-.07-.07-.11ZM292.56,58.63h0s.01.01.02.02c.01,0,0-.01.01-.01h0s-.02-.08-.05-.1c-.01,0-.01,0-.03,0-.01.03.02.07.04.1ZM292.38,58.44s.02.04.03.06c0-.01,0-.04,0-.05-.01,0-.02-.02-.03,0ZM292.33,58.21s.02.01.03.02c0,.01,0,0,0-.02-.02,0-.03,0-.04,0ZM292.3,58.43s0,0,.01.01c0,0,0,0,0-.02,0,0,0,0-.01,0ZM292.27,58.6s-.01,0-.02,0c0,0,.02.01.03.02,0,0,0-.01,0-.02ZM292.14,59.68s-.02.05-.03.06c0,0,0,.01,0,.02,0,0,0,.02.01.02,0-.03,0-.07.02-.09,0,0,0-.01,0,0ZM290.88,60.56s0,.02,0,.04c.04.01.03-.03,0-.04ZM290.01,60.98s0,0,0,0c0,.04,0,.08-.02.1,0,.02,0,.02,0,.04-.02,0-.03,0-.03.02,0,.05.1.05.13.03.06-.03.13-.07.16-.12.04,0,.07-.05.12-.06.05-.02.1-.02.16-.02.02.03.07.03.12.02.02-.03.03-.07.02-.1h.01s0-.03,0-.05c-.04-.02-.02-.1-.06-.13,0,0,0-.01,0-.02-.01,0-.01,0-.03,0,0,.01.05.03.02.05-.02,0-.04,0-.05-.02.01,0,.01-.02,0-.03-.06,0-.13.02-.17-.02,0-.02.02-.02.01-.04.01,0,.02,0,.03,0-.01.01,0,.04,0,.05.01,0,.05-.03.04,0,.06,0,.1-.03.14-.07,0,0,0,0-.01,0,0,0,.01,0,.01,0,0-.05,0-.07,0-.1-.02,0-.01,0-.03,0,0,0,0-.01,0-.02-.04-.02-.08-.02-.11-.05-.01,0-.02.02-.03.02,0,0-.02-.02-.02-.03-.04.05-.04.13-.09.16,0,.02.01.02.01.03-.02,0-.02-.03-.04-.02,0,.02.02.02.02.03-.02,0-.03.01-.05,0-.02.02-.03.04-.07.05-.08.05-.17.11-.19.22-.01,0-.02.02-.02.04.01.02,0,.04.02.05ZM290.41,60.26s0,0,0,0c0,.04,0,.07.01.11,0,.01.02.01.03.03.01,0,.01,0,.02,0,0,0,0,0,0,.02.02,0,.02,0,.03.01,0,0,0,0-.01,0,.03.02.08,0,.11.02,0,0,0-.01,0,0,0-.01.02-.02.02-.03-.01-.02-.01-.03-.02-.05.04-.02.04-.09.04-.13,0-.02,0-.04,0-.06-.01,0-.03,0-.04-.01,0,.02-.01.01-.03.02,0,.05,0,.07,0,.11,0,0-.01,0-.01,0-.01,0-.01.02-.02.03,0,0-.03-.02-.03,0-.02,0-.03-.02-.05-.02,0,0,0-.01,0-.02,0-.01-.02,0-.03,0,0,0,0,0,0,.02ZM290.64,61.07s0,.01,0,.02c0,0,.01,0,.02,0,0-.02-.01-.03-.03-.03ZM290.68,60.17s0-.01,0-.02c0,0-.04,0-.04.02h0s0,.02,0,.03c0,0,0,0,0,0,.02-.01.06-.01.09-.02,0-.02,0-.03-.02-.03,0,0,0,0,0-.01-.01-.01-.01.02-.03.02,0,0,0,0,0,0,0,0-.01,0-.01,0,0,0,0,0,.01,0,0,.01,0,.02-.02.02ZM290.97,59.79h-.01s0,.03,0,.05c.02,0,0-.04.01-.05ZM290.37,60.25h0s0,0,0,.01h0s0,0,.01,0c0,0,0,0,0,0ZM290.07,60.01s-.03,0-.03,0c.02.02.02.06.05.07-.02-.01-.02-.04-.02-.06ZM289.36,62.24s0,.02.01.02c.02,0,.02-.01.04-.02,0-.01-.01-.01-.02-.01,0-.02-.01-.03-.02-.04,0,0,0-.01.02,0,0-.05,0-.07-.02-.1,0,0,0,0-.02,0,0-.02.01-.02.01-.03,0,0,0-.02,0-.03,0,0,0,0,0-.01-.03-.07.03-.1.07-.12.02-.04.06-.07.09-.09,0,0,0-.01,0-.02,0,0-.01-.01-.02-.02,0,.02,0,.05,0,.06,0,0-.02,0-.03,0,0-.02,0-.06,0-.08,0-.01-.04,0-.05,0,0,.03,0,.08-.03.08,0-.02-.01-.02-.03-.03,0,0,0,.02,0,.03,0,0-.01,0-.01.02-.04,0-.04.05-.07.07,0-.03-.05-.02-.07-.04-.02,0-.02.02-.03.03-.01,0-.01,0-.02,0,0,.02-.01.05,0,.07,0,.03.02.04.03.06.04.02.06.06.1.09-.01.05.02.06.05.08,0,0-.01,0-.01.01,0,0,0,.01.02,0,0,0,0,.02-.02.01-.03-.02-.06-.04-.07-.08-.01,0,0,0-.02,0,0-.03-.04-.03-.05-.05,0,0,0,.01.02,0,0-.02,0-.04-.02-.05-.02,0,0,.03,0,.02,0,0-.02-.01-.03-.02-.04.02-.06.06-.09.09,0,.01.01,0,0,.01,0,0,0,0-.01,0-.02.05-.1.03-.17.03-.05-.03-.09-.07-.1-.12.01.01.02.02.03.03.01-.02,0-.04-.01-.06.03.02.04.07.07.07.04,0,.07-.02.11-.02.03,0,.05,0,.07,0,.03-.02.05-.06.08-.08,0-.02-.03-.03-.03-.06,0-.03,0-.07.03-.09,0,0-.02,0-.02,0,0-.01,0-.01.01-.02,0,0-.02,0-.01-.02-.02.04-.06.07-.1.03,0,0,0,0,0,.01,0,0-.02-.01-.02-.02-.01,0-.03.01-.05,0,0,0,0-.01,0-.02-.03,0-.03-.03-.05-.03-.02.03-.05.05-.06.09,0,0-.02,0-.02,0,0,0,0,0-.02,0,0,.06-.01.1-.03.14,0,0,0-.01,0-.01,0,0-.02,0-.03.02-.01-.01-.02-.02-.03-.02h0s0,0,0,0c0,.02-.01.03-.02.03-.01.04-.03.08-.05.1,0,0,0,.01,0,.02-.04.05-.13.03-.19.06,0,.01,0,.01,0,.03-.03.02-.07.04-.1.07.03.03.02.07-.01.09,0,0,0,.02,0,.03,0,0,0,.02,0,.03,0,.04.04.07.07.09,0,0,0,0,0,0,.02,0,.07.02.1.02.03-.02.06-.03.09-.04,0,0,.01,0,0,.01.01,0,0-.01,0-.01.08,0,.17.01.19.09-.01,0,.01.03,0,.04.01.02.05,0,.07,0,0,0,.01.01.02.01.04,0,.06-.02.09-.02.05-.05.11-.09.16-.13.01-.04.06-.07.09-.1,0,0,.01,0,.01-.01.03-.04.07-.09.11-.12.03-.03.06-.05.09-.06,0-.01,0-.01,0-.02ZM288.28,62.25s-.03,0-.06,0c-.01-.04-.03-.06-.03-.1,0,.01-.02.02-.02.04-.01,0-.01,0-.02,0,0,0,0,.01,0,.02.03.03.07.05.1.08.02-.01.04-.03.06-.06,0,0,0-.01,0-.02,0,0,0,0-.01,0,0,.01,0,.01,0,.03ZM288.28,62.06h0s0,0,0,0c0,0,0,0,0,0ZM288.5,62.07s0-.01,0-.02c-.02,0-.04.02-.06.02,0,0,0,0,0-.02-.03,0-.03,0-.06,0-.01,0,0,.02-.01.03-.02-.02-.03-.04-.05-.06-.02,0-.01.02-.01.04,0,0,0,0,0,0,0,0,.01,0,0,.02.02,0,.03.03.06.03,0,.06.06.06.13.07,0,0,.01,0,.02,0,.04,0,.08-.05.1-.11-.01,0-.03.01-.04,0,0,0-.01,0-.02.01-.02-.02-.03,0-.05-.02ZM288.61,62.06h0s0,0,0,0c0,0,0,0,0,0h0ZM288.79,61.4s-.04-.01-.05-.02c-.01,0-.01.02-.02.03,0,0,.01-.02.01-.02,0,0,0,.02.02.01,0,.01.01.02.02.03,0-.01.01-.02.02-.03ZM288.79,61.44s.01,0,.02,0c0-.01,0-.02,0-.03,0,0-.02.02-.03.03ZM288.88,61.36s0-.02,0-.04c0,.02-.02.03-.03.05.01.02.03.03.04.05,0,0,0-.02,0-.02-.02,0,.01-.04-.02-.05ZM288.84,61.65s0,0,0,.01c0,0,0,0,.01,0,0,0,0-.02-.01-.02ZM288.94,61.63s-.02,0-.02,0c.03.02.04.06.06.09,0-.02,0-.05,0-.07-.01-.01-.01,0-.03-.01-.01-.02,0-.07-.03-.07,0,.01,0,.03,0,.05ZM288.99,61.44s-.02,0-.02-.02c-.01,0-.02,0-.03,0,0-.01,0-.02,0-.03h-.01s0,.02,0,.03c0,0-.01,0-.01,0,.01.01.02.03.04.03,0,0,0-.02,0-.02.01.03.02.04.04.05,0-.01,0-.04,0-.05ZM289.04,61.58s.02-.01.01-.03c0-.04-.06,0-.01.03ZM289.3,61.64s.02-.08.03-.11c-.01,0-.02,0-.01-.02-.01,0,0,0-.02,0,0,.04-.03.11,0,.14ZM289.35,61.76s.02-.03.03-.05c0,0-.01,0-.02,0,0,0,0,.02,0,.04,0,0,0,0,0,0,0,0,0,0,0,0ZM289.55,61.79s.04-.03.04-.05c0-.02-.02-.02-.02-.04-.03,0-.04.03-.07.01,0,.01,0,.02,0,.04,0,0,.02.03.03.02.02.02,0,.05.03.06,0,.02-.01.02,0,.03-.02.04-.06.06-.08.1,0,0,0-.01.01-.01.09,0,.12-.03.17-.07.02-.04.04-.1.02-.15,0,0,0,.02.02.03,0-.01,0-.03,0-.04,0,0-.02,0-.02,0-.02.01-.02.05-.06.05-.02,0-.05,0-.08.01ZM289.43,62.19s0-.02,0-.02c-.01-.01-.03-.03-.02-.05h-.01s0,.03,0,.04c0,0,0,.01,0,.02,0,0,.02.02.04.02ZM288.03,61.98s0,.02,0,.04c0,.01.02.03.02.04,0,0,0,0,0,0,0-.03,0-.06-.02-.08ZM287.69,62.06s0,.02,0,.03c0,0,.01.01.03.02,0-.01,0-.04-.03-.04ZM290.87,62.35s.01.02.02.02c0,0,0,0,.01,0,0,0-.02-.01-.03-.02Z" fill="#ee3a39"/>
  <path d="M275.2,58.29c1.57-.86,3.91-1.88,4.82-3.51,1.22-2.18-.83-2.92-2.68-3.05-3.6-.26-7.67.28-11.12,1.28,0,.41-.79,3.6.17,3.26-.01,1.78-.08,3.56,0,5.34.08,1.79.23,3.57.32,5.35.05,1.06-.13,1.32.75,1.56.67.18,2.52-.71,3.1-.88,1.95-.57,3.91-1.13,5.88-1.61,2.9-.71,10.68-2.51,6.79-6.04-1.98-1.8-5.55-1.59-8.02-1.71ZM278.37,53.39c.19.05.18.05.13.13-2.1,3.17-6.78,4.56-10.16,5.78.01-1.53-.14-3.07-.24-4.6,3.04-.8,7.12-2.1,10.27-1.3ZM281.88,61.57c0,.12-.05.23-.13.31-2.89,2.63-9.41,3.23-13.1,3.87-.16-1.31-.22-2.63-.34-3.94,3.22-1.49,10.34-3.32,13.44-.6.09.08.14.2.14.31v.04ZM311.8,63.09c.24,1.05.65,2.69-.27,3.5-.97.85-2.12.02-3.02-.53-1.55-.96-3.28-2.34-4.91-3.85-.94-.88-1.69-1.7-2.51-2.37.24,1.57,1.32,5.57,1.29,5.74-.03.17-1.21.9-1.82.74-.43-.12-.6-.92-.62-1.13-.05-.57-.14-1.13-.22-1.7-.19-1.41-.4-2.83-.59-4.24-.1-.72-.55-1.99-.15-2.66.69-1.16,1.58-.42,2.2.29.78.9,1.49,1.86,2.31,2.71,1.84,1.9,4.27,3.06,6.36,4.64.53-.25-.27-2.26-.36-2.6-.36-1.34-.75-2.68-.98-4.04-.21-1.22-.35-2.47-.44-3.7-.08-.98.02-1.67.81-2.24.14-.1.34-.11.49-.02.47.31.69.7.7,1.3.02.92.02,1.85.07,2.77.15,2.58,1.07,4.9,1.65,7.39ZM327.29,62.18c1.57,3.39-7.09,5.12-10.47,4.23-.56-.15-.95-.67-.95-1.25,0-.18.06-.36.19-.49.84-.87,2.16-.05,3.24-.02,1.82.06,4.77-.39,6.02-1.4.04-.03.03-.09-.02-.1-3.45-1.28-15.07,2.18-13.28-3.28,1.5-4.56,8.73-4.73,12.73-4.73.21,0,.42.08.57.24.15.15.24.36.24.57v.05c0,.3-.21.67-.46.83-.82.53-1.53.74-2.46,1.06-1.07.37-2.18.94-3.24,1.24-.14.04-.22-.14-.1-.22.89-.59,1.79-1.18,2.7-1.75-1.93.05-6.73.58-7.66,2.68-.84,1.92.62,1.67,2,1.66,2.33-.01,9.13-1.37,10.95.68ZM341.71,54.63c-1.56,0-6.06.46-6.93.56-.63.08-1.23.23-1.66.55-.25.19-.27.56-.05.78h0c.28.3.69.44,1.09.38,2.63-.36,5.72-.97,8.27-.61,2.86.41,1.71,4.13,1.61,6.21-.03.01-.03.01-.05.02-2.68-2.47-7.97-3.13-11.45-2.55-1.43.24-3.86.73-4.45,2.33-.66,1.79,1.18,2.77,2.57,3.23,4.71,1.53,9.42.48,14.18.02.14-.01,1.2,0,1.39-.17.13-.13.99-8-.6-9.52-1-.96-2.43-1.23-3.92-1.23ZM336.65,64.4c-1.31.06-5.26.35-6.2-.85-1.23-1.57,2.43-2.25,3.68-2.33,2.4-.17,5.08.77,7.22,1.78.46.22.92.46,1.36.74-2.01.38-4.01.58-6.05.67ZM351.56,66.45c-.79.08-1.35-.14-1.9-.38-.46-.2-.04-1.94.02-2.01.09-2.09-.04-4.13-.59-6.15-.37-1.35-1.21-3.32,1.04-3.36.38,1.45.87,2.86,1.27,4.3.64,2.33.17,5.2.17,7.6ZM178.05,53.15h-2.85v6.97h1.53v-2.09h1.17c1.56,0,2.82-.84,2.82-2.45v-.02c0-1.42-1.01-2.41-2.67-2.41ZM179.16,55.61c0,.6-.45,1.06-1.21,1.06h-1.21v-2.13h1.18c.77,0,1.24.37,1.24,1.06v.02ZM186.75,53.03c-2.15,0-3.71,1.62-3.71,3.6v.02c0,1.98,1.54,3.58,3.69,3.58s3.71-1.62,3.71-3.6v-.02c0-1.98-1.54-3.58-3.69-3.58ZM188.84,56.66c0,1.19-.86,2.17-2.09,2.17s-2.11-1-2.11-2.19v-.02c0-1.19.86-2.17,2.09-2.17s2.11,1,2.11,2.19v.02ZM201.34,53.15h1.6l-2.38,7.02h-1.33l-1.57-4.56-1.57,4.56h-1.33l-2.38-7.02h1.64l1.44,4.72,1.56-4.74h1.31l1.56,4.74,1.44-4.72ZM207.1,58.76h3.78v1.36h-5.31v-6.97h5.26v1.36h-3.73v1.41h3.29v1.36h-3.29v1.46ZM219.56,55.47v-.02c0-.66-.21-1.2-.6-1.59-.46-.46-1.15-.71-2.03-.71h-3.19v6.97h1.53v-2.23h1.2l1.49,2.23h1.79l-1.7-2.49c.89-.33,1.49-1.04,1.49-2.16ZM218,55.55c0,.59-.43.99-1.18.99h-1.55v-2h1.52c.75,0,1.2.34,1.2,1v.02ZM223.96,58.76h3.78v1.36h-5.31v-6.97h5.26v1.36h-3.73v1.41h3.29v1.36h-3.29v1.46ZM233.32,53.15h-2.72v6.97h2.72c2.19,0,3.7-1.52,3.7-3.49v-.02c0-1.96-1.51-3.47-3.7-3.47ZM235.42,56.66c0,1.23-.85,2.08-2.1,2.08h-1.18v-4.2h1.18c1.25,0,2.1.87,2.1,2.1v.02ZM248.99,56.48c.5-.28.92-.72.92-1.5v-.02c0-.48-.16-.87-.48-1.18-.4-.4-1.03-.62-1.82-.62h-3.24v6.97h3.32c1.57,0,2.61-.64,2.61-1.91v-.02c0-.94-.5-1.4-1.3-1.71ZM245.86,54.5h1.51c.65,0,1.01.26,1.01.72v.02c0,.52-.43.74-1.11.74h-1.41v-1.47ZM248.77,58.02c0,.52-.41.76-1.09.76h-1.82v-1.53h1.77c.79,0,1.14.29,1.14.76v.02ZM257.18,53.15h1.74l-2.68,4.19v2.78h-1.53v-2.75l-2.68-4.22h1.79l1.66,2.8,1.69-2.8ZM24.96,50.85c.58.28,1.17.57,1.74.89v3.85c-.19.04-.11-.06-.16-.11-2.81-1.5-5.76-2.73-8.64-4.1-5.36-2.57-9.45-5.16-10.92-11.33-.28-1.17-.37-2.25-.5-3.44,0-.05,0-.18-.1-.16V13.65c.36-.12.68-.35,1.01-.52,3.6-1.89,7.62-3.41,11.62-4.2.1-.02.5-.11.54-.05.08.11.01.26.02.36,0,.88,0,1.75,0,2.63,0,.16.09.33-.05.46-2.7.58-5.34,1.42-7.87,2.53-.61.27-1.21.56-1.79.87l-.04.09-.02,18.91c.12,5.25,1.29,8.75,5.86,11.58,2.87,1.78,6.24,3.06,9.29,4.53ZM48.8,13.82c.06.03.12.05.19.04v22.8c-.09-.03-.09.15-.1.19-.17,1.57-.32,2.98-.79,4.5-1.77,5.71-6,8.06-11.06,10.47-2.58,1.23-5.23,2.34-7.76,3.67l-.04.11h-.12s0-41.37,0-41.37c0-.03.02-.04.05-.05.1-.03.51.05.65.06,4.04.3,8.58,1.47,12.24,3.21.19.09,1.29.63,1.34.73l.02,6.13-.05.09h-3.44s-.1-.19-.1-.19c0-1.14,0-2.28,0-3.42,0-.13.07-.3-.04-.42-.03-.03-.63-.28-.73-.32-1.56-.65-3.4-1.24-5.05-1.58-.28-.06-.72-.16-1-.18-.07,0-.32-.02-.32.08v8.26s.05.09.07.1l10.45.02c.11,0,.23.03.22.16l-.02,3.41-.08.06h-10.56s-.08.08-.08.08l.02,13.46h.18c1.35-.72,2.82-1.35,4.11-2.17,2.38-1.51,2.63-4.2,2.79-6.78.01-.24.06-.52.07-.76.02-.41-.04-.93,0-1.31,0-.08.03-.16.08-.23h3.41c.09.04.1.09.11.19.07.74,0,1.73-.04,2.49-.18,4.69-1.46,7.59-5.55,10-1.65.97-3.41,1.76-5.12,2.62l-.07.17.02,1.82.2.02c3.97-1.98,8.97-3.59,11.17-7.76,1.15-2.19,1.43-4.8,1.5-7.24v-18.86c-.05-.18-.37-.29-.53-.38-4.12-2.12-9.55-3.52-14.17-3.9-.52-.04-1.12,0-1.62-.07-.05,0-.23-.07-.23-.12v-3.25c0-.15.38-.05.46-.05,6.14.14,12.61,2,18.04,4.79.42.21.86.5,1.28.69ZM12.25,17.62l-.05.26c.12,5.26-.16,10.54,0,15.79.14,4.77,1.26,7.98,5.45,10.51,1.73,1.04,3.64,1.87,5.46,2.73,1.04.49,2.11.92,3.12,1.48h.12s.06-.04.06-.04V8.05c-.09,0-.19.01-.29.01-1.44.06-3.32.33-3.32.33l-.05,5.72c-.1.09-1.32.25-1.56.3-2.28.47-4.5,1.19-6.62,2.12-.78.34-1.55.69-2.3,1.09ZM15.75,20.09l.02-.18c.05-.13,1.32-.57,1.53-.65,1.33-.5,2.7-.95,4.1-1.25.27-.06.97-.22,1.2-.22.05,0,.15.05.15.09v24.81l-.06.05c-.06.02-.32-.11-.4-.14-1.64-.72-3.98-1.93-5.08-3.35-1.12-1.44-1.41-3.59-1.47-5.37-.17-4.56.13-9.22,0-13.79ZM87.69,23.77c-1.37-1.37-3.32-1.84-7.51-1.84h-17.1v19.8h17.9c2.11,0,3-.06,4.13-.3,2.17-.42,3.83-2.26,4.16-4.63.18-1.13.3-3.18.3-4.96,0-.95-.06-2.32-.12-3.24-.21-2.52-.65-3.77-1.75-4.84ZM81.66,36.77c-.71.24-.83.24-2.46.24h-10.09v-10.15h10.21c3.47,0,4.19.86,4.19,5.02,0,3.41-.39,4.45-1.84,4.9ZM100.24,37.24h16.21v4.48h-22.15v-19.8h21.94v4.48h-16v3.41h15.08v3.92h-15.08v3.5ZM130.73,21.92l-11.13,19.8h6.83l1.9-3.53h12.77l1.96,3.53h6.59l-10.84-19.8h-8.07ZM130.5,34.07l4.22-7.9,4.27,7.9h-8.49ZM158.43,36.83h13.63v4.9h-19.65v-19.8h6.03v14.9ZM197.38,41.73h-22.15v-19.8h21.94v4.48h-16v3.41h15.08v3.92h-15.08v3.5h16.21v4.48ZM226.5,41.73v-3.12c.06-3-.68-4.04-3.15-4.45,2.52-.56,3.41-2.02,3.41-5.7,0-2.67-.53-4.36-1.69-5.28-1.13-.95-2.67-1.25-6.17-1.25h-17.07v19.8h6v-4.99h9.23c2.7-.06,3.3.39,3.32,2.52v2.46h6.12ZM217.24,31.9h-9.41v-5.11h9.62c1.81,0,2.32.09,2.76.56.39.42.5.95.5,2.23,0,1.96-.56,2.32-3.47,2.32ZM247.49,37.24h16.21v4.48h-22.15v-19.8h21.94v4.48h-16v3.41h15.08v3.92h-15.08v3.5ZM292.76,23.77c-1.37-1.37-3.32-1.84-7.51-1.84h-17.1v19.8h17.9c2.11,0,3-.06,4.13-.3,2.17-.42,3.83-2.26,4.16-4.63.18-1.13.3-3.18.3-4.96,0-.95-.06-2.32-.12-3.24-.21-2.52-.65-3.77-1.75-4.84ZM286.73,36.77c-.71.24-.83.24-2.46.24h-10.09v-10.15h10.21c3.47,0,4.19.86,4.19,5.02,0,3.41-.39,4.45-1.84,4.9ZM299.74,38.49c-.59-1.34-.74-2.73-.74-6.41,0-4.25.24-5.94,1.01-7.33.89-1.54,2.29-2.35,4.84-2.7,1.37-.18,3.77-.27,7.54-.27,5.4,0,7.12.09,8.37.39,3.06.77,4.04,2.32,4.01,6.47h-5.91c0-1.54-.68-2.14-2.49-2.2h-1.51l-2.14-.03-2.2.03q-2.88,0-3.59.18c-1.1.27-1.57.83-1.72,2.08-.09.53-.15,2.35-.15,3.62,0,2.67.27,3.74,1.1,4.3.68.45,1.51.62,3.09.65q.65.03,4.36.03c3.95.03,4.69-.18,5.19-1.48.06-.24.09-.5.09-1.1v-.47h-7.63v-3.68h13.51v2.73c0,3.27-.12,4.42-.5,5.49-.68,1.84-2.08,2.73-4.57,3-.62.06-2.43.09-8.28.09-4.54,0-6.29-.09-7.54-.36-2.17-.47-3.44-1.4-4.13-3.03ZM351.69,41.73h-22.15v-19.8h21.94v4.48h-16v3.41h15.08v3.92h-15.08v3.5h16.21v4.48Z" fill="#fff"/>
</svg>