<?xml version="1.0" encoding="UTF-8"?>
<svg id="Layer_1" xmlns="http://www.w3.org/2000/svg" version="1.1" viewBox="0 0 360 360">
  <!-- Generator: Adobe Illustrator 29.1.0, SVG Export Plug-In . SVG Version: 2.1.0 Build 142)  -->
  <path d="M139.37,124.54c2.23-6.57,6.19-12.49,11.35-17.11.68-.61,3.44-2.92,4.11-3.14.3-.1,2.31-.25,2.75-.26,21.05-.14,44.07,13.14,51.86,33.12l1.97,6.14c-.23-13.98-6.98-26.68-18.3-34.74-7.81-5.57-17.1-8.56-26.62-9.56l2.02-.58c26.65-5.54,50.41,15.89,47.8,42.91-1.42,14.65-11.77,27.77-25.5,32.83-19.95,7.34-41.92-2.15-50.31-21.52-.07-.49,1.08-1.12,1.5-1.43,6.79-4.89,15.55-8.83,23.83-10.23,16.04-2.7,32.24,1.7,44.64,12.09-6.27-15.37-20.18-27.21-36.29-31.26-11.65-2.93-23.77-1.92-34.81,2.73ZM165.93,190.28l-11.46,18.81-.44.42-5.7-19.21-8.17.06-24.59,39.17h13.16l12.3-18.92,6.56,18.9,9.22-.13,23.56-39.11h-14.42ZM253.66,190.28l-18.76,31.21h-12.77l18.76-31.21h-13.72l-23.49,39.25h40.28l23.1-39.25h-13.4ZM115.57,221.5h-26.17l4.83-8.01,23.43-.06,4.84-7.22h-23.33l5.31-8.83h26.26s4.68-7.09,4.68-7.09h-40.75l-25.93,39.25h41.7c1.38-2.12,2.91-4.17,4.24-6.32.32-.52.81-1.13.88-1.72ZM89.4,190.28h-15.76l-14.98,23.17-8.51-23.17h-29.32l17.25,7.26,13.01,31.92h11.98s26.33-39.18,26.33-39.18ZM318.29,221.64l-11.19,7.89h28.38l-17.73-39.26h-9.47s-.55.24-.55.24l-23.32,39.03h13.95l13.95-23.33,5.98,15.44ZM284.15,211.07c12.59-2.21,18.57-19.78,1.6-20.8-4.63-.28-9.54.23-14.2,0l-.25.11-3.93,6.99h11.43c.06,0,1.07.3,1.21.36.96.38,1.75,1.17,1.86,2.24.36,3.47-3.6,6.01-6.7,6.23l-13.05.03-4.36,6.99c.25.39.33.08.39.08h6.94c1.09,0,3.83.91,4.73,1.58,3.81,2.83-.61,8.81-2.7,11.49-.72.93-1.66,1.79-2.35,2.7-.12.16-.3.2-.24.47h14.11c3.83-5.28,7.71-11.67,4.18-18.2.31-.41.87-.18,1.32-.26ZM187.53,229.54l19.08-32,.46-.17,11.18-.02,4.52-7.07h-37.6l-4.18,7.09h11.82l-18.92,32.16h13.64ZM182.09,248.77l8.51,3.47h-5.12c-1.18,0-6.9-3.47-8.04-3.47h-6.07v3.47h-3.94v-9.14h18.21c.5.04,1.48.23,1.97.4.68.23,1.19.53,1.27,1.25.15,1.36.33,2.92-1.06,3.52-.62.27-2.32.51-2.96.51h-2.76ZM184.03,247.31c1.57-.31,1.12-2.8-.28-2.8h-12.38v2.76c.14.22.31.22.54.24,2.31.27,9.91.24,12.11-.2ZM82.7,243.09l-9.77,5.93-10.56-5.93h-3.23v9.14h3.31l-.16-7.25,2.89,1.92c2.16.79,4.74,3.06,6.77,3.79,1.28.46,2.01-.23,3.06-.8,1.96-1.07,4.92-2.64,6.66-3.9.38-.27.68-.71,1.04-1.01.26.13-.08.46-.08.55v6.7h3.78v-8.91l-.24-.24h-3.47ZM272.27,243.09c.09,2.42-.25,4.88.31,7.25-5.75-2.89-12-4.66-17.89-7.25h-3l-.24.24v8.91h3.78v-6.07c0-.25-.43-.87-.24-1.18.69.52,1.5.84,2.29,1.18,5.16,2.16,10.52,3.88,15.68,6.07h3.07v-8.91l-.24-.24h-3.55ZM309.79,248.14h10.4v-1.26h-10.4v-2.36h17.1c.37-.31.37-1.1,0-1.42h-20.97l-.24.24v8.91h21.6v-1.26h-17.5v-2.84ZM128.83,243.3l12.11,8.93h-4.34l-2.45-1.96-14.73-.08-2.68,2.05h-3.86l11.86-9.02c.62-.25,3.47-.21,4.08.09ZM132.12,248.77l-5.47-4.23-5.41,4.23h10.88ZM217.88,252.24h3.94v-9.14h-3.94v9.14Z"/>
</svg>