<?xml version="1.0" encoding="UTF-8"?>
<svg id="Layer_1" xmlns="http://www.w3.org/2000/svg" version="1.1" viewBox="0 0 144 144">
  <!-- Generator: Adobe Illustrator 29.1.0, SVG Export Plug-In . SVG Version: 2.1.0 Build 142)  -->
  <path d="M37.65,85.76c0-1.18.96-2.15,2.15-2.15h25.33c1.18,0,2.15.96,2.15,2.15s-.96,2.15-2.15,2.15h-25.33c-1.18,0-2.15-.97-2.15-2.15ZM75.94,83.67c-.33-.39-.52-.89-.52-1.41v-42.76c-.09-2.9,1.02-5.77,3.05-7.86,2.03-2.09,4.87-3.29,7.78-3.29s5.75,1.2,7.78,3.29c2.03,2.1,3.14,4.97,3.05,7.88v42.75c0,.5-.17,1-.5,1.4l-8.68,10.13c-.4.48-1,.76-1.63.76s-1.24-.28-1.64-.76l-8.67-10.13ZM80.97,82.9l5.31,6.19,5.26-6.14-5.26-3.66-5.3,3.61ZM85.04,74.91c.37-.25.79-.38,1.22-.38s.85.13,1.22.38l5.29,3.69v-39.09c0-3.6-2.92-6.53-6.52-6.53s-6.52,2.93-6.52,6.53v39.02s5.32-3.62,5.32-3.62ZM39.76,79.81h.04s16.31,0,16.31,0c1.12-.09,1.99-1.03,1.99-2.15s-.88-2.07-2.03-2.16h-16.31c-1.12.09-1.99,1.03-1.99,2.16s.88,2.06,1.99,2.15ZM114.46,62.41c-1.73-1.72-4.02-2.67-6.45-2.67h-6.27c-1.18,0-2.15.97-2.15,2.15s.96,2.15,2.15,2.15h6.25c2.66,0,4.82,2.17,4.82,4.82v37.89c0,2.65-2.17,4.81-4.82,4.82H35.99c-2.66,0-4.82-2.17-4.82-4.82v-37.86c0-2.65,2.17-4.82,4.82-4.82h33.4c1.19,0,2.15-.97,2.15-2.15s-.97-2.15-2.15-2.15h-33.4c-5,0-9.1,4.08-9.12,9.09v37.89c0,5.02,4.1,9.11,9.12,9.12h72.02c2.43,0,4.72-.95,6.45-2.67,1.7-1.7,2.68-4.05,2.68-6.46v-37.89c0-2.4-.98-4.76-2.68-6.46ZM39.8,104.13h62.87c1.18,0,2.15-.96,2.15-2.15s-.96-2.15-2.15-2.15h-62.87c-1.18,0-2.15.97-2.15,2.15s.96,2.15,2.15,2.15ZM39.8,96.02h25.33c1.18,0,2.15-.96,2.15-2.15s-.96-2.15-2.15-2.15h-25.33c-1.18,0-2.15.97-2.15,2.15s.96,2.15,2.15,2.15Z" fill="#fff"/>
</svg>