<?xml version="1.0" encoding="UTF-8"?>
<svg id="Layer_1" xmlns="http://www.w3.org/2000/svg" version="1.1" viewBox="0 0 144 144">
  <!-- Generator: Adobe Illustrator 29.1.0, SVG Export Plug-In . SVG Version: 2.1.0 Build 142)  -->
  <path d="M105.07,57.71l-2.8,2.8,9.6,9.6h-47.4l28.3-27.6v13.6h4v-20.4h-20.4v4h13.5l-31.1,30.4h-12.7c-1.1-5.64-6.57-9.31-12.21-8.21-5.64,1.1-9.31,6.57-8.21,12.21s6.57,9.31,12.21,8.21c4.15-.81,7.39-4.06,8.21-8.21h12.8l31.1,30.4h-13.5v4h20.4v-20.4h-4v13.6l-28.3-27.6h47.3l-9.6,9.6,2.8,2.8,14.4-14.4-14.4-14.4ZM35.87,78.51c-3.53,0-6.4-2.87-6.4-6.4,0-3.53,2.87-6.4,6.4-6.4s6.4,2.87,6.4,6.4-2.87,6.4-6.4,6.4h0Z" fill="#fff"/>
</svg>