<?xml version="1.0" encoding="UTF-8"?>
<svg id="Layer_1" xmlns="http://www.w3.org/2000/svg" version="1.1" viewBox="0 0 144 144">
  <!-- Generator: Adobe Illustrator 29.1.0, SVG Export Plug-In . SVG Version: 2.1.0 Build 142)  -->
  <path d="M50.05,79.51c0,1.11-.9,2-2.01,2.01h-15.54c-1.11,0-2-.9-2-2.01,0-1.11.89-2.01,2-2.02h15.54s0,0,0,0c1.11,0,2.01.91,2,2.02ZM130.29,44.5v26.3c0,5.11-4.1,9.31-9.17,9.31h-2.09v11.47c0,.47-.16.92-.46,1.28-.71.85-1.98.97-2.83.26l-15.45-13.01h-19.39v6.16c0,5.1-4.09,9.32-9.15,9.32h-28.03l-15.44,12.99c-.36.31-.82.47-1.29.48-1.11,0-2.01-.89-2.02-2v-11.46h-2.09c-5.06,0-9.15-4.21-9.15-9.32v-26.3c0-5.11,4.09-9.32,9.15-9.32h40.23v-6.15c0-5.1,4.1-9.32,9.16-9.32h48.86c5.06,0,9.17,4.21,9.17,9.32ZM76.88,59.97c0-3-2.27-5.29-5.13-5.29H22.88c-2.86,0-5.13,2.3-5.13,5.29v26.3c0,2.99,2.27,5.29,5.13,5.29h4.1c1.11,0,2.01.9,2.01,2.01v9.16l12.71-10.69c.36-.3.82-.47,1.29-.47h28.76c2.86,0,5.13-2.3,5.13-5.29v-26.3ZM126.27,44.5c0-2.99-2.29-5.29-5.15-5.29h-48.86c-2.86,0-5.14,2.3-5.14,5.29v6.15h4.63c5.06,0,9.15,4.21,9.15,9.32v16.12h20.13c.47,0,.93.17,1.29.47l12.69,10.68v-9.14s0-.01,0-.02c0-1.11.91-2.01,2.02-2h4.09c2.86,0,5.15-2.3,5.15-5.29v-26.3ZM62.12,63.83h-29.62c-1.11,0-2.01.91-2,2.02,0,1.11.9,2,2,2.01h29.6c1.11,0,2.01-.89,2.02-2h0c0-1.11-.89-2.02-2-2.02Z" fill="#fff"/>
</svg>