<?xml version="1.0" encoding="UTF-8"?>
<svg id="Layer_1" xmlns="http://www.w3.org/2000/svg" version="1.1" viewBox="0 0 144 144">
  <!-- Generator: Adobe Illustrator 29.1.0, SVG Export Plug-In . SVG Version: 2.1.0 Build 142)  -->
  <path d="M99.59,40.67c.4-.31.91-.44,1.41-.37.51.07.95.33,1.26.73.63.83.47,2.03-.36,2.67l-3.88,2.95c-.33.26-.74.39-1.15.39-.09,0-.17,0-.26-.02-.51-.07-.95-.33-1.26-.73-.63-.83-.47-2.03.36-2.66l3.88-2.95ZM99.44,52.43c.36.61,1,.95,1.66.95.32,0,.65-.08.95-.26l8.44-4.87c.45-.26.76-.67.89-1.16.13-.49.06-1-.2-1.44-.25-.44-.66-.75-1.15-.89-.49-.13-1.01-.06-1.44.19l-8.45,4.88c-.9.53-1.22,1.69-.69,2.6ZM91.56,40.97c.49,0,.98-.19,1.35-.56h0s6.9-6.9,6.9-6.9c.36-.36.56-.84.56-1.35s-.2-.99-.56-1.35c-.74-.74-1.95-.74-2.69,0l-6.9,6.89c-.36.36-.56.84-.56,1.35s.2.99.56,1.35c.37.37.86.56,1.35.56ZM109.87,58.62c.97-.4,1.44-1.51,1.04-2.49-.41-.96-1.52-1.43-2.48-1.03l-4.52,1.85c-.97.4-1.43,1.51-1.03,2.48.19.47.56.84,1.02,1.03.24.1.49.15.74.15s.49-.05.72-.14l4.51-1.85ZM103.13,70.42c1.17,5.92.25,10.11-2.6,11.8-.74.45-1.6.7-2.53.74l-43.89,10.6,6.43,10.91c.87,1.48,1.1,3.32.62,5.06-.45,1.64-1.47,2.96-2.87,3.73-.99.58-2.11.89-3.24.89-.55,0-1.1-.07-1.64-.21-1.65-.43-3.02-1.46-3.87-2.91l-7.26-12.3c-5.08.75-10.41-1.78-13.06-6.26-3.66-6.16-1.64-14.15,4.52-17.81l4.86-2.89,31.95-35.57c.41-.62.98-1.17,1.65-1.57,2.85-1.69,6.97-.5,11.61,3.35,8.5,7.06,17.17,21.61,19.32,32.45ZM35.68,77.92c-4.35,2.59-5.79,8.25-3.2,12.61,1.23,2.05,3.39,3.63,5.79,4.24,1.63.41,4.14.57,6.83-1.03l3.5-2.08-3.92-6.59h0s-5.49-9.23-5.49-9.23l-3.51,2.08ZM46.01,97.56l6.8,11.54c.72,1.21,2.32,1.61,3.56.88,1.23-.73,1.63-2.33.9-3.57l-6.75-11.47-3.47,2.07c-.34.2-.68.39-1.03.56ZM82.13,71.74c-4.61-5.83-10.66-15.96-12.52-25.32-.21-1.06-.35-2.07-.43-3.01l-26.99,30.05,9.92,16.67,39.23-9.47c-3.66-2.39-6.99-6.1-9.22-8.92ZM76.9,56.02c1.9,4.08,4.39,8.26,7.07,11.87,1.94-2.2,2.36-5.36,1.04-8.03-1.51-3.04-4.85-4.6-8.1-3.85ZM91.35,75.95c2.43,2.02,4.59,3.18,6.06,3.25.43.02.88-.07,1.17-.24,1.33-.79,1.63-3.64.8-7.8-2.01-10.1-10.09-23.68-18.01-30.26-3.27-2.71-5.91-3.81-7.24-3.01-1.33.79-1.62,3.64-.8,7.8.41,2.06,1.1,4.34,2.04,6.79,5.11-1.5,10.64.89,13.03,5.69h0c2.11,4.24,1.25,9.41-2.06,12.74,1.66,1.97,3.34,3.66,5,5.04ZM118.33,62.91c-.13-.49-.44-.9-.88-1.16-.44-.26-.96-.33-1.45-.19l-9.42,2.52c-.49.13-.9.45-1.16.89-.26.44-.32.95-.19,1.45.23.85,1,1.41,1.84,1.41.16,0,.33-.02.49-.06l9.42-2.52c.49-.13.9-.45,1.15-.89.25-.44.32-.95.19-1.44Z" fill="#fff"/>
</svg>