<?xml version="1.0" encoding="UTF-8"?>
<svg id="Layer_1" xmlns="http://www.w3.org/2000/svg" version="1.1" viewBox="0 0 144 144">
  <!-- Generator: Adobe Illustrator 29.1.0, SVG Export Plug-In . SVG Version: 2.1.0 Build 142)  -->
  <path d="M80.67,65.72c.82.82.82,2.14,0,2.89l-10.06,9.98c-.41.41-.91.58-1.48.58s-1.07-.25-1.48-.58l-4.21-4.21c-.82-.82-.82-2.14,0-2.89.82-.82,2.14-.82,2.89,0l2.72,2.8,8.58-8.49c.99-.91,2.23-.91,3.05-.08ZM109.36,75.29c1.15,1.57,1.57,3.46,1.15,5.36-.41,1.81-1.65,3.46-3.3,4.37l-2.06,1.15c-.91.49-1.4,1.57-1.24,2.64l.41,2.31c.33,1.81-.16,3.79-1.32,5.28-1.15,1.48-2.97,2.47-4.87,2.56l-2.39.16c-1.07.08-2.06.82-2.31,1.9l-.66,2.31c-.82,2.89-3.46,4.87-6.43,4.87-.91,0-1.73-.16-2.56-.49l-2.23-.91c-.99-.41-2.23-.16-2.89.66l-1.57,1.81c-1.24,1.48-3.13,2.31-5.03,2.31s-3.71-.82-4.95-2.23l-1.57-1.81c-.74-.82-1.9-1.07-2.89-.66l-2.23.91c-.82.41-1.73.58-2.64.58-2.97,0-5.61-1.98-6.43-4.78l-.66-2.31c-.25-1.07-1.24-1.73-2.31-1.81l-2.39-.08c-1.9-.08-3.63-.99-4.87-2.47-1.24-1.48-1.73-3.38-1.4-5.28l.41-2.31c.16-1.07-.33-2.14-1.32-2.64l-2.06-1.15c-1.65-.91-2.89-2.47-3.3-4.37-.41-1.81,0-3.79,1.07-5.36l1.4-1.98c.66-.91.66-2.06,0-2.97l-1.4-1.9c-1.15-1.57-1.57-3.46-1.15-5.36.41-1.81,1.65-3.46,3.3-4.37l2.06-1.15c.91-.49,1.4-1.57,1.24-2.64l-.41-2.31c-.33-1.81.16-3.79,1.32-5.28,1.15-1.48,2.97-2.47,4.87-2.56l2.39-.16c1.07-.08,2.06-.82,2.31-1.9l.66-2.31c.82-2.89,3.46-4.87,6.43-4.87.91,0,1.73.16,2.56.49l2.23.91c.99.41,2.23.16,2.89-.66l1.57-1.81c1.24-1.48,3.13-2.31,5.03-2.31s3.71.82,4.95,2.23l1.57,1.81c.74.74,1.98,1.07,2.89.66l2.23-.91c.82-.41,1.73-.58,2.64-.58,2.97,0,5.53,1.9,6.43,4.87l.66,2.31c.25,1.07,1.24,1.73,2.31,1.81l2.39.08c1.9.08,3.63.99,4.87,2.47s1.73,3.38,1.4,5.28l-.41,2.31c-.16,1.07.33,2.14,1.32,2.64l2.23,1.07c1.65.91,2.89,2.47,3.3,4.37.41,1.81,0,3.79-1.07,5.36l-1.4,1.98c-.66.91-.66,2.06,0,2.97l1.24,1.9ZM106.23,77.68l-1.4-1.9c-1.73-2.31-1.73-5.44-.08-7.75l1.32-1.98c.41-.58.58-1.32.41-2.06s-.58-1.32-1.24-1.65l-2.06-1.15c-2.56-1.4-3.96-4.21-3.46-7.01l.41-2.31c.16-.66,0-1.4-.49-1.98-.49-.58-1.15-.91-1.9-.91l-2.39-.08c-2.89-.08-5.28-2.06-6.1-4.78l-.66-2.31c-.33-1.07-1.32-1.81-2.47-1.81h-.91l-2.23.91c-.82.41-1.73.58-2.64.58-1.9,0-3.71-.82-4.95-2.23l-1.57-1.81c-.49-.49-1.15-.82-1.9-.82s-1.4.33-1.9.91l-1.57,1.81c-1.24,1.48-3.13,2.31-5.03,2.31-.91,0-1.73-.16-2.56-.49l-2.23-.91c-.33-.08-.66-.16-.99-.16-1.15,0-2.14.82-2.47,1.9l-.66,2.31c-.74,2.72-3.13,4.7-6.02,4.87l-2.39.16c-.74.08-1.32.41-1.81.99-.41.58-.66,1.32-.49,2.06l.49,2.39c.58,2.8-.82,5.61-3.3,7.01l-2.06,1.15c-.66.33-1.07.91-1.24,1.65-.16.74,0,1.48.41,2.06l1.4,1.9c1.73,2.31,1.73,5.44.08,7.75l-1.4,1.98c-.41.58-.58,1.32-.41,2.06s.58,1.32,1.24,1.65l2.06,1.15c2.56,1.4,3.96,4.21,3.46,7.01l-.41,2.31c-.16.66,0,1.4.49,1.98.49.58,1.15.91,1.9.91l2.31.08c2.89.08,5.28,2.06,6.1,4.78l.66,2.31c.33,1.07,1.32,1.81,2.47,1.81.33,0,.66,0,.99-.08l2.23-.91c.82-.41,1.73-.58,2.64-.58,1.9,0,3.71.82,4.95,2.23l1.57,1.81c.49.49,1.15.82,1.9.82s1.4-.33,1.9-.91l1.57-1.81c1.24-1.48,3.13-2.31,5.03-2.31.91,0,1.73.16,2.56.49l2.23.91c.33.08.66.16.99.16,1.15,0,2.14-.82,2.47-1.9l.66-2.31c.74-2.72,3.13-4.7,6.02-4.87l2.39-.16c.74-.08,1.4-.41,1.81-.99.41-.58.66-1.32.49-2.06l-.41-2.31c-.58-2.8.82-5.61,3.3-7.01l2.06-1.15c.66-.33,1.07-.91,1.24-1.65.08-.74,0-1.4-.41-2.06ZM95.43,72.15c0,12.86-10.47,23.34-23.34,23.34s-23.34-10.47-23.34-23.34,10.47-23.34,23.34-23.34,23.34,10.47,23.34,23.34ZM91.3,72.15c0-10.64-8.58-19.21-19.21-19.21s-19.21,8.66-19.21,19.21,8.58,19.21,19.21,19.21,19.21-8.58,19.21-19.21Z" fill="#fff"/>
</svg>